SplineFontDB: 2.0
FontName: THKrub
FullName: THKrub
FamilyName: TH Krub
Weight: Book
Copyright: Copyright (c) 2006 by Department of Intellectual Property (DIP), Ministry of Commerce and Software Industry Promotion Agency (Public Organization) (SIPA). All rights reserved.
Version: 1.1
ItalicAngle: 0
UnderlinePosition: -58
UnderlineWidth: 35
Ascent: 800
Descent: 200
NeedsXUIDChange: 1
XUID: [1021 375 425136265 6266359]
FSType: 0
OS2Version: 3
OS2_WeightWidthSlopeOnly: 0
OS2_UseTypoMetrics: 1
CreationTime: 1158873825
ModificationTime: 1204778353
PfmFamily: 17
TTFWeight: 400
TTFWidth: 5
LineGap: 20
VLineGap: 0
Panose: 2 0 5 6 4 0 0 2 0 4
OS2TypoAscent: 0
OS2TypoAOffset: 1
OS2TypoDescent: 0
OS2TypoDOffset: 1
OS2TypoLinegap: 0
OS2WinAscent: -107
OS2WinAOffset: 1
OS2WinDescent: -188
OS2WinDOffset: 1
HheadAscent: 0
HheadAOffset: 1
HheadDescent: 150
HheadDOffset: 1
OS2SubXSize: 700
OS2SubYSize: 650
OS2SubXOff: 0
OS2SubYOff: 140
OS2SupXSize: 700
OS2SupYSize: 650
OS2SupXOff: 0
OS2SupYOff: 477
OS2StrikeYSize: 35
OS2StrikeYPos: 250
OS2FamilyClass: 2053
OS2Vendor: 'b513'
Lookup: 4 0 1 "'rlig' Required Ligatures in Latin lookup 0"  {"'rlig' Required Ligatures in Latin lookup 0 subtable"  } ['rlig' ('latn' <'dflt' > ) ]
Lookup: 4 0 0 "'frac' Diagonal Fractions in Latin lookup 1"  {"'frac' Diagonal Fractions in Latin lookup 1 subtable"  } ['frac' ('latn' <'dflt' > ) ]
Lookup: 4 0 0 "'ccmp' Glyph Composition/Decomposition in Latin lookup 2"  {"'ccmp' Glyph Composition/Decomposition in Latin lookup 2 subtable"  } ['ccmp' ('latn' <'dflt' > ) ]
Lookup: 6 0 0 "'liga' Standard Ligatures in Latin lookup 3"  {"'liga' Standard Ligatures in Latin lookup 3 subtable"  } ['liga' ('latn' <'dflt' > ) ]
Lookup: 6 0 0 "'liga' Standard Ligatures in Latin lookup 4"  {"'liga' Standard Ligatures in Latin lookup 4 subtable"  } ['liga' ('latn' <'dflt' > ) ]
Lookup: 6 0 0 "'liga' Standard Ligatures in Latin lookup 5"  {"'liga' Standard Ligatures in Latin lookup 5 subtable"  } ['liga' ('latn' <'dflt' > ) ]

StartChar: exclam
Encoding: 33 33 2
Width: 251
VWidth: 1473
Flags: W
HStem: 0 102<77 175> 696 20G<77 175>
VStem: 77 98<0 102 627.625 716> 97 58<211 299.375>
Fore
175 716 m 1xe0
 155 211 l 1
 97 211 l 1xd0
 77 716 l 1
 175 716 l 1xe0
77 0 m 1xe0
 77 102 l 1
 175 102 l 1
 175 0 l 1
 77 0 l 1xe0
EndSplineSet
EndChar
StartChar: quotedbl
Encoding: 34 34 3
Width: 331
VWidth: 1473
Flags: W
VStem: 81 52<517 754 517 754 517 517> 199 51<517 754>
Fore
81 754 m 1
 133 754 l 1
 133 517 l 1
 81 517 l 1
 81 754 l 1
199 754 m 1
 250 754 l 1
 250 517 l 1
 199 517 l 1
 199 754 l 1
EndSplineSet
EndChar
StartChar: numbersign
Encoding: 35 35 4
Width: 530
VWidth: 1473
Flags: W
HStem: 0 21G<105 154.844 292 341.844> 225 46<25 137 190 324 377 480> 420 46<52 165 218 352 407 507>
VStem: 25 482<225 466 234 243>
Fore
480 225 m 1
 371 225 l 1
 339 0 l 1
 292 0 l 1
 324 225 l 1
 184 225 l 1
 152 0 l 1
 105 0 l 1
 137 225 l 1
 25 225 l 1
 25 271 l 1
 143 271 l 1
 165 420 l 1
 52 420 l 1
 52 466 l 1
 169 466 l 1
 202 689 l 1
 250 689 l 1
 218 466 l 1
 358 466 l 1
 389 689 l 1
 438 689 l 1
 407 466 l 1
 507 466 l 1
 507 420 l 1
 398 420 l 1
 377 271 l 1
 480 271 l 1
 480 225 l 1
211 420 m 1
 190 271 l 1
 330 271 l 1
 352 420 l 1
 211 420 l 1
EndSplineSet
EndChar
StartChar: dollar
Encoding: 36 36 5
Width: 623
VWidth: 1473
Flags: W
HStem: 0 53<197.915 286 339 443.148> 342 68<147.561 286> 666 54<184.636 286 339 406.122>
VStem: 62 60<472.611 610.709> 286 53<-133 0 53 329 410 664 720 828> 520 60<116.21 248.401>
Fore
62 536 m 0
 62 610 86 716 286 720 c 1
 286 828 l 1
 339 828 l 1
 339 720 l 1
 434 717 522 652 551 588 c 1
 502 550 l 1
 451 644 374 660 339 664 c 1
 339 393 l 1
 438 368 580 326 580 181 c 0
 580 36 450 -0 339 0 c 1
 339 -133 l 1
 286 -133 l 1
 286 0 l 1
 165 4 76 71 32 164 c 1
 85 200 l 1
 105 156 165 53 286 53 c 1
 286 342 l 1
 204.339 367.519 62 394.171 62 536 c 0
286 666 m 1
 199 666 122 633 122 541 c 0
 122 451 190 432 286 410 c 1
 286 666 l 1
339 53 m 1
 421 53 520 88 520 184 c 0
 520 282 421 300 339 329 c 1
 339 53 l 1
EndSplineSet
EndChar
StartChar: percent
Encoding: 37 37 6
Width: 879
VWidth: 1473
Flags: W
HStem: 0 53<569.197 702.582> 273 51<571.357 701.39> 390 53<178.757 307.965> 661 55<176.11 309.37>
VStem: 81 53<485.58 618.547> 352 53<486.658 619.335> 473 54<95.1505 227.812> 745 53<94.1506 230.285>
Fore
81 552 m 256
 81 649 162 716 242 716 c 0
 322 716 405 651 405 552 c 256
 405 468 338 390 242 390 c 0
 154 390 81 462 81 552 c 256
352 552 m 0
 352 617 304 661 242 661 c 0
 185 661 133 620 134 552 c 0
 133 489 184 443 242 443 c 0
 308 443 352 494 352 552 c 0
473 162 m 0
 473 258 554 324 635 324 c 0
 730 324 798 247 798 162 c 0
 798 78 726 0 635 0 c 0
 554 0 473 71 473 162 c 0
745 162 m 0
 748 226 697 273 635 273 c 0
 572 273 526 223 527 162 c 0
 526 98 575 53 635 53 c 0
 698 53 748 100 745 162 c 0
265 -10 m 1
 205 -10 l 1
 614 726 l 1
 676 726 l 1
 265 -10 l 1
EndSplineSet
EndChar
StartChar: ampersand
Encoding: 38 38 7
Width: 702
VWidth: 1473
Flags: W
HStem: -10 53<175.138 357.782 571.17 629> 672 54<240.327 352.484>
VStem: 41 67<102.954 262.697> 152 63<508.174 646.689> 374 65<522.863 650.203> 533 62<192.706 336>
Fore
420 112 m 1
 377 155 312 242 237 357 c 1
 132 296 108 245 108 171 c 0
 108 85 187 43 261 43 c 0
 350 43 397 89 420 112 c 1
295 672 m 0
 263 672 215 658 215 569 c 0
 215 517 238 470 261 438 c 1
 309 465 374 522 374 592 c 0
 374 627 358 672 295 672 c 0
460 156 m 1
 492 207 520 269 533 336 c 1
 595 324 l 1
 578 247 548 176 505 113 c 1
 561 57 605 51 629 50 c 1
 629 -10 l 1
 560 -6 505 25 461 68 c 1
 414 22 344 -10 258 -10 c 0
 133 -10 41 62 41 175 c 0
 41 284 93 332 208 410 c 1
 152 495 152 560 152 576 c 0
 152 673 208 726 298 726 c 0
 373 726 439 683 439 588 c 0
 439 471 323 409 293 385 c 1
 373 268 407 212 460 156 c 1
EndSplineSet
EndChar
StartChar: quotesingle
Encoding: 39 39 8
Width: 228
VWidth: 1473
Flags: W
VStem: 88 52<517 754 517 754 517 517>
Fore
88 754 m 1
 140 754 l 1
 140 517 l 1
 88 517 l 1
 88 754 l 1
EndSplineSet
EndChar
StartChar: parenleft
Encoding: 40 40 9
Width: 397
VWidth: 1473
Flags: W
VStem: 81 72<214.041 563.825>
Fore
81 389 m 0
 81 532 129 718 246 874 c 1
 331 874 l 1
 233 755 153 583 153 389 c 0
 153 194 234 19 331 -99 c 1
 246 -99 l 1
 129 58 81 250 81 389 c 0
EndSplineSet
EndChar
StartChar: parenright
Encoding: 41 41 10
Width: 397
VWidth: 1473
Flags: W
VStem: 246 71<217.147 564.127>
Fore
317 389 m 0
 317 250 269 58 152 -99 c 1
 66 -99 l 1
 151 0 246 177 246 389 c 0
 246 583 165 758 66 874 c 1
 152 874 l 1
 269 718 317 532 317 389 c 0
EndSplineSet
EndChar
StartChar: asterisk
Encoding: 42 42 11
Width: 632
VWidth: 1473
Flags: W
HStem: 538 403<281 407 281 281>
VStem: 103 426<756 762 756 756>
Fore
337 757 m 1
 507 826 l 1
 529 762 l 1
 346 717 l 1
 464 583 l 1
 407 538 l 1
 318 698 l 1
 227 538 l 1
 168 576 l 1
 290 717 l 1
 103 756 l 1
 127 824 l 1
 299 757 l 1
 281 941 l 1
 352 941 l 1
 337 757 l 1
EndSplineSet
EndChar
StartChar: plus
Encoding: 43 43 12
Width: 751
VWidth: 1473
Flags: W
HStem: 301 61<74 343 402 672>
VStem: 343 59<31 301 362 632>
Fore
343 632 m 1
 402 632 l 1
 402 362 l 1
 672 362 l 1
 672 301 l 1
 402 301 l 1
 402 31 l 1
 343 31 l 1
 343 301 l 1
 74 301 l 1
 74 362 l 1
 343 362 l 1
 343 632 l 1
EndSplineSet
EndChar
StartChar: comma
Encoding: 44 44 13
Width: 315
VWidth: 1473
Flags: W
HStem: -171 273<134 208 208 208>
VStem: 108 100<0 102>
Fore
208 102 m 1
 208 0 l 1
 134 -171 l 1
 91 -171 l 1
 156 0 l 1
 108 0 l 1
 108 102 l 1
 208 102 l 1
EndSplineSet
EndChar
StartChar: hyphen
Encoding: 45 45 14
Width: 490
VWidth: 1473
Flags: W
HStem: 314 66<62 429 62 429 62 62>
Fore
62 314 m 1
 62 380 l 1
 429 380 l 1
 429 314 l 1
 62 314 l 1
EndSplineSet
EndChar
StartChar: period
Encoding: 46 46 15
Width: 315
VWidth: 1473
Flags: W
HStem: 0 102<108 208>
VStem: 108 100<0 102>
Fore
108 0 m 1
 108 102 l 1
 208 102 l 1
 208 0 l 1
 108 0 l 1
EndSplineSet
EndChar
StartChar: slash
Encoding: 47 47 16
Width: 331
VWidth: 1473
Flags: W
VStem: 0 361<-56 829 410.586 877.171>
Fore
71 -56 m 1
 0 -56 l 1
 296 829 l 1
 361 829 l 1
 71 -56 l 1
EndSplineSet
EndChar
StartChar: zero
Encoding: 48 48 17
Width: 615
VWidth: 1473
Flags: W
HStem: -7 60<207.484 407.872> 619 59<206.624 409.417>
VStem: 46 66<162.258 505.365> 504 66<169.245 503.25>
Fore
112 330 m 0
 112 148 155 53 308 53 c 256
 458 53 504 149 504 330 c 0
 504 515 465 619 308 619 c 256
 151 619 112 520 112 330 c 0
570 330 m 0
 570 76 465 -7 308 -7 c 256
 151 -7 46 76 46 330 c 0
 46 598 151 678 308 678 c 0
 465.2 678 570 593.271 570 330 c 0
EndSplineSet
EndChar
StartChar: one
Encoding: 49 49 18
Width: 469
VWidth: 1473
Flags: W
HStem: 0 56<80 205 271 390 80 390 80 80> 656 20G<188.698 271>
VStem: 205 66<56 588>
Fore
80 0 m 1
 80 56 l 1
 205 56 l 1
 205 588 l 1
 87 561 l 1
 87 613 l 1
 236 676 l 1
 271 676 l 1
 271 56 l 1
 390 56 l 1
 390 0 l 1
 80 0 l 1
EndSplineSet
EndChar
StartChar: two
Encoding: 50 50 19
Width: 549
VWidth: 1473
Flags: W
HStem: 0 60<118 482> 620 59<221.328 366.766>
VStem: 53 65<60 123.64> 60 67<491.182 581.511> 415 67<396.479 573.813>
Fore
275 620 m 0xe8
 245 620 157 612 127 479 c 1
 60 488 l 1xd8
 81 603 160 679 283 679 c 0
 442 679 482 581 482 489 c 0
 482 281 256 261 149 137 c 0
 128 113 118 91 118 60 c 1
 482 60 l 1
 482 0 l 1
 53 0 l 1
 53 57 l 2
 53 127 65 182 265 295 c 0
 399 366 415 414 415 488 c 0
 415 594 355 620 275 620 c 0xe8
EndSplineSet
EndChar
StartChar: three
Encoding: 51 51 20
Width: 561
VWidth: 1473
Flags: W
HStem: -9 59<162.096 373.428> 327 60<180 347.644> 620 59<189.492 371.045>
VStem: 407 66<437.273 586.546> 429 66<103.072 250.769>
Fore
495 190 m 0xe8
 495 71 437 -9 265 -9 c 0
 139 -9 73 47 40 125 c 1
 99 153 l 1
 141 70 171 50 268 50 c 0
 371 50 429 86 429 187 c 0xe8
 429 271 384 327 240 327 c 2
 180 327 l 1
 180 387 l 1
 230 387 l 2
 370 387 407 438 407 514 c 0
 407 578 386 620 273 620 c 0
 211 620 168 595 119 536 c 1
 69 575 l 1
 125 641 195 679 278 679 c 0
 374 679 473 647 473 519 c 0xf0
 473 427 444 381 365 359 c 1
 490 335 495 231 495 190 c 0xe8
EndSplineSet
EndChar
StartChar: four
Encoding: 52 52 21
Width: 522
VWidth: 1473
Flags: W
HStem: 0 21G<327 393> 146 60<87 327 393 496> 656 20G<295.526 393>
VStem: 327 66<0 146 206 607>
Fore
87 206 m 1
 327 206 l 1
 327 607 l 1
 321 607 l 1
 87 206 l 1
13 203 m 1
 308 676 l 1
 393 676 l 1
 393 206 l 1
 496 206 l 1
 496 146 l 1
 393 146 l 1
 393 0 l 1
 327 0 l 1
 327 146 l 1
 13 146 l 1
 13 203 l 1
EndSplineSet
EndChar
StartChar: five
Encoding: 53 53 22
Width: 568
VWidth: 1473
Flags: W
HStem: -9 59<192.26 381.186> 383 60<205.048 397.098> 617 59<177 467>
VStem: 66 450<116 225 116 116> 449 67<117.154 328.731>
Fore
302 383 m 0xe8
 252 383 164 360 140 301 c 1
 90 308 l 1
 121 676 l 1
 467 676 l 1
 467 617 l 1
 177 617 l 1
 158 393 l 1
 179 413 216 443 312 443 c 0
 475 443 516 326 516 225 c 0
 516 115 469 -9 283 -9 c 0
 187 -9 101 43 66 116 c 1xf0
 116 149 l 1
 161.798 59.815 245.523 50 289 50 c 0
 401 50 449 108 449 221 c 0
 449 334 413 383 302 383 c 0xe8
EndSplineSet
EndChar
StartChar: six
Encoding: 54 54 23
Width: 590
VWidth: 1473
Flags: W
HStem: -9 61<210.218 408.893> 359 59<229.662 405.42> 620 59<213.34 413.039>
VStem: 66 68<144.182 388.72 330 500.161> 471 67<115.567 294.2>
Fore
66 311 m 0
 66 602 165 679 314 679 c 0
 359 679 438 666 494 623 c 1
 452 572 l 1
 437 586 396 620 312 620 c 0
 158 620 131 523 131 330 c 1
 171 375 245 418 321 418 c 256
 466 418 538 316 538 199 c 0
 538 65 424 -9 311 -9 c 0
 121 -9 66 121 66 311 c 0
134 239 m 0
 134 110 190 52 312 52 c 0
 418 52 471 104 471 209 c 0
 471 279 439 359 312 359 c 0
 205 359 134 257 134 239 c 0
EndSplineSet
EndChar
StartChar: seven
Encoding: 55 55 24
Width: 493
VWidth: 1473
Flags: W
HStem: 0 21G<106 190.065> 617 59<53 392>
VStem: 53 414<631 676>
Fore
53 676 m 1
 467 676 l 1
 467 631 l 1
 181 0 l 1
 106 0 l 1
 392 617 l 1
 53 617 l 1
 53 676 l 1
EndSplineSet
EndChar
StartChar: eight
Encoding: 56 56 25
Width: 577
VWidth: 1473
Flags: W
HStem: -9 59<183.816 391.634> 620 59<198.237 378.961>
VStem: 53 66<106.281 237.084> 78 65<450.766 569.224> 433 65<451.34 569.963> 458 66<106.281 237.14>
Fore
78 505 m 0xd0
 78 644 196 679 289 679 c 0
 413 679 498 623 498 505 c 0xd8
 498 445 453 385 370 356 c 1
 420 334 524 283 524 172 c 0
 524 27 396 -9 289 -9 c 0
 184 -9 53 27 53 172 c 0xe4
 53 283 155 333 206 356 c 1
 122 386 78 447 78 505 c 0xd0
289 328 m 1
 158 276 119 235 119 172 c 0
 119 87 197 50 289 50 c 256
 380 50 458 87 458 172 c 0xe4
 458 235 419 276 289 328 c 1
289 620 m 256
 199 620 143 575 143 508 c 0
 143 438 230 397 289 381 c 1
 347 397 433 437 433 508 c 0xd8
 433 575 378 620 289 620 c 256
EndSplineSet
EndChar
StartChar: nine
Encoding: 57 57 26
Width: 590
VWidth: 1473
Flags: W
HStem: -7 57<206.125 373.034> 251 60<183.692 362.438> 618 61<183.179 381.554>
VStem: 53 66<374.056 552.253> 458 66<243.125 341 282.171 527.678>
Fore
524 360 m 0
 524 67 424 -7 275 -7 c 0
 239 -7 152 5 97 47 c 1
 138 100 l 1
 153 86 194 50 277 50 c 0
 348 50 434 68 452 214 c 0
 456 252 458 293 458 341 c 1
 419 296 347 251 270 251 c 256
 131 251 53 347 53 472 c 0
 53 606 167 679 280 679 c 0
 475 679 524 540 524 360 c 0
457 432 m 0
 457 561 401 618 278 618 c 0
 172 618 119 566 119 460 c 0
 119 390 151 311 278 311 c 0
 383 311 457 410 457 432 c 0
EndSplineSet
EndChar
StartChar: colon
Encoding: 58 58 27
Width: 331
VWidth: 1473
Flags: W
HStem: 0 108<113 218> 364 107<113 218>
VStem: 113 105<0 108 364 471>
Fore
113 0 m 1
 113 108 l 1
 218 108 l 1
 218 0 l 1
 113 0 l 1
113 364 m 1
 113 471 l 1
 218 471 l 1
 218 364 l 1
 113 364 l 1
EndSplineSet
EndChar
StartChar: semicolon
Encoding: 59 59 28
Width: 331
VWidth: 1473
Flags: W
HStem: 364 107<113 218>
VStem: 113 105<0 108 364 471>
Fore
218 108 m 1
 218 0 l 1
 141 -180 l 1
 96 -180 l 1
 165 0 l 1
 113 0 l 1
 113 108 l 1
 218 108 l 1
113 364 m 1
 113 471 l 1
 218 471 l 1
 218 364 l 1
 113 364 l 1
EndSplineSet
EndChar
StartChar: less
Encoding: 60 60 29
Width: 715
VWidth: 1473
Flags: W
HStem: -7 21G<625.197 669>
Fore
669 -7 m 1
 47 277 l 1
 47 343 l 1
 669 628 l 1
 669 558 l 1
 128 311 l 1
 669 62 l 1
 669 -7 l 1
EndSplineSet
EndChar
StartChar: equal
Encoding: 61 61 30
Width: 577
VWidth: 1473
Flags: W
HStem: 203 64<52 526> 412 64<52 526>
VStem: 52 474<203 267 412 476 203 476 203 203>
Fore
526 412 m 1
 52 412 l 1
 52 476 l 1
 526 476 l 1
 526 412 l 1
526 203 m 1
 52 203 l 1
 52 267 l 1
 526 267 l 1
 526 203 l 1
EndSplineSet
EndChar
StartChar: greater
Encoding: 62 62 31
Width: 715
VWidth: 1473
Flags: W
HStem: -7 21G<47 90.8028>
Fore
47 62 m 1
 588 311 l 1
 47 558 l 1
 47 628 l 1
 669 343 l 1
 669 277 l 1
 47 -7 l 1
 47 62 l 1
EndSplineSet
EndChar
StartChar: question
Encoding: 63 63 32
Width: 486
VWidth: 1473
Flags: W
HStem: 0 108<168 271> 742 65<172.121 325.424>
VStem: 168 103<0 108> 192 63<203 339.87> 383 68<550.54 687.467>
Fore
246 742 m 0xd8
 185 742 127 702 94 623 c 1
 34 653 l 1
 57 715 119 807 247 807 c 0
 353 807 451 736 451 613 c 0
 451 454 255 408 255 261 c 2
 255 203 l 1
 192 203 l 1
 192 275 l 2
 192 310 202 342 222 372 c 0
 301 491 383 540 383 614 c 0
 383 698 320 742 246 742 c 0xd8
168 0 m 1xe8
 168 108 l 1
 271 108 l 1
 271 0 l 1
 168 0 l 1xe8
EndSplineSet
EndChar
StartChar: at
Encoding: 64 64 33
Width: 852
VWidth: 1473
Flags: W
HStem: -10 45<336.951 559.663> 137 52<309.063 400.537 535.418 622.878> 532 51<384.238 500.799> 689 45<334.413 559.297>
VStem: 74 51<243.804 474.719> 212 65<221.211 392.296> 728 51<324.64 527.858>
Fore
277 292 m 0
 277 231 312 189 364 189 c 0
 457 189 533 340 533 435 c 0
 533 482 497 532 454 532 c 0
 344 532 277 383 277 292 c 0
458 583 m 0
 499 583 544 564 566 498 c 1
 592 564 l 1
 647 564 l 1
 550 268 l 2
 536 230 535 223 535 212 c 0
 535 195 544 186 563 186 c 0
 645 186 728 318 728 427 c 0
 728 584 598 689 443 689 c 0
 269 689 125 546 125 358 c 0
 125 177 273 35 445 35 c 0
 548 35 652 86 712 174 c 1
 763 174 l 1
 715 84 602 -10 445 -10 c 0
 222 -10 74 172 74 365 c 256
 74 571 244 734 442 734 c 0
 613 734 779 623 779 426 c 0
 779 266 655 137 552 137 c 0
 531 137 487 150 485 208 c 1
 483 208 l 1
 416 141 372 137 351 137 c 0
 254 137 212 218 212 286 c 0
 212 442 321 583 458 583 c 0
EndSplineSet
EndChar
StartChar: A
Encoding: 65 65 34
Width: 682
VWidth: 1473
Flags: W
HStem: 0 21G<29 116.212 565.788 653> 208 65<205 479> 696 20G<295.346 387.626>
Fore
479 273 m 1
 342 657 l 1
 205 273 l 1
 479 273 l 1
303 716 m 1
 380 716 l 1
 653 0 l 1
 573 0 l 1
 498 208 l 1
 184 208 l 1
 109 0 l 1
 29 0 l 1
 303 716 l 1
EndSplineSet
EndChar
StartChar: B
Encoding: 66 66 35
Width: 629
VWidth: 1473
Flags: W
HStem: 0 62<162 446.496> 367 59<162 427.016> 650 66<162 430.681>
VStem: 88 74<62 367 426 650> 470 74<463.044 615.531> 511 74<123.692 303.289>
Fore
544 550 m 0xf8
 544 468 506 416 457 399 c 1
 532 383 585 297 585 221 c 0xf4
 585 88 517 -0 340 0 c 2
 88 0 l 1
 88 716 l 1
 343 716 l 2
 514 716 544 616 544 550 c 0xf8
314 426 m 2
 461 426 470 479 470 550 c 0xf8
 470 630 412.872 650 343 650 c 2
 162 650 l 1
 162 426 l 1
 314 426 l 2
511 221 m 0xf4
 511 338 431 367 311 367 c 2
 162 367 l 1
 162 62 l 1
 326 62 l 2
 451 62 511 96 511 221 c 0xf4
EndSplineSet
EndChar
StartChar: C
Encoding: 67 67 36
Width: 558
VWidth: 1473
Flags: W
HStem: -10 65<218.508 435.179> 659 64<218.508 434.606>
VStem: 59 71<160.96 556.375>
Fore
330 -10 m 0
 113 -10 59 112 59 357 c 256
 59 601 113 723 330 723 c 0
 380 723 467 709 529 661 c 1
 483 605 l 1
 466 620 421 659 329 659 c 0
 156 659 130 564 130 357 c 256
 130 149 156 55 329 55 c 0
 421 55 463 91 483 108 c 1
 529 52 l 1
 467 4 380 -10 330 -10 c 0
EndSplineSet
EndChar
StartChar: D
Encoding: 68 68 37
Width: 687
VWidth: 1473
Flags: W
HStem: 0 62<162 454.511> 654 62<162 449.107>
VStem: 88 74<62 654> 552 77<176.513 527.149>
Fore
552 348 m 0
 552 579 499 654 340 654 c 2
 162 654 l 1
 162 62 l 1
 340 62 l 2
 510 62 552 153 552 348 c 0
629 348 m 0
 629 124 556 -0 340 0 c 2
 88 0 l 1
 88 716 l 1
 340 716 l 2
 562 716 629 576 629 348 c 0
EndSplineSet
EndChar
StartChar: E
Encoding: 69 69 38
Width: 539
VWidth: 1473
Flags: W
HStem: 0 62<162 505> 351 61<162 466> 654 62<162 510>
VStem: 88 74<62 351 412 654>
Fore
162 62 m 1
 505 62 l 1
 505 0 l 1
 88 0 l 1
 88 716 l 1
 510 716 l 1
 510 654 l 1
 162 654 l 1
 162 412 l 1
 466 412 l 1
 466 351 l 1
 162 351 l 1
 162 62 l 1
EndSplineSet
EndChar
StartChar: F
Encoding: 70 70 39
Width: 539
VWidth: 1473
Flags: W
HStem: 0 21G<88 162> 351 61<162 466> 654 62<162 510>
VStem: 88 74<0 351 412 654>
Fore
162 0 m 1
 88 0 l 1
 88 716 l 1
 510 716 l 1
 510 654 l 1
 162 654 l 1
 162 412 l 1
 466 412 l 1
 466 351 l 1
 162 351 l 1
 162 0 l 1
EndSplineSet
EndChar
StartChar: G
Encoding: 71 71 40
Width: 640
VWidth: 1473
Flags: W
HStem: -10 65<232.369 449.098> 318 64<360.429 498> 659 64<231.408 449.544>
VStem: 74 493<112 382 357 382 357 357> 74 70<161.387 551.379> 498 69<108 318>
Fore
360 309 m 0xec
 347 309 338 345 338 361 c 0
 338 370 340 378 342 382 c 1
 567 382 l 1xf0
 567 80 l 1xe4
 553 64 478 -10 345 -10 c 0
 128 -10 74 112 74 357 c 256xf0
 74 601 128 723 345 723 c 0
 395 723 482 709 544 661 c 1
 498 605 l 1
 481 620 436 659 343 659 c 0
 184 659 144 585 144 357 c 256
 144 138 178 55 343 55 c 0
 436 55 478 91 498 108 c 1
 498 318 l 1
 438 318 l 2
 387 318 369 309 360 309 c 0xec
EndSplineSet
EndChar
StartChar: H
Encoding: 72 72 41
Width: 671
VWidth: 1473
Flags: W
HStem: 0 21G<88 162 510 583> 351 61<162 510> 696 20G<88 162 510 583>
VStem: 88 74<0 351 412 716> 510 73<0 351 412 716>
Fore
510 412 m 1
 510 716 l 1
 583 716 l 1
 583 0 l 1
 510 0 l 1
 510 351 l 1
 162 351 l 1
 162 0 l 1
 88 0 l 1
 88 716 l 1
 162 716 l 1
 162 412 l 1
 510 412 l 1
EndSplineSet
EndChar
StartChar: I
Encoding: 73 73 42
Width: 406
VWidth: 1473
Flags: W
HStem: 0 62<29 165 237 373> 654 62<34 165 237 377>
VStem: 165 72<62 654>
Fore
237 62 m 1
 373 62 l 1
 373 0 l 1
 29 0 l 1
 29 62 l 1
 165 62 l 1
 165 654 l 1
 34 654 l 1
 34 716 l 1
 377 716 l 1
 377 654 l 1
 237 654 l 1
 237 62 l 1
EndSplineSet
EndChar
StartChar: J
Encoding: 74 74 43
Width: 487
VWidth: 1473
Flags: W
HStem: -10 65<103.568 275.567> 696 20G<326 399>
VStem: 326 73<114.414 716>
Fore
200 55 m 0
 329 55 326 154 326 352 c 2
 326 716 l 1
 399 716 l 1
 399 352 l 2
 399 72 366 -10 199 -10 c 0
 139 -10 73 7 15 52 c 1
 60 108 l 1
 96 76 131 55 200 55 c 0
EndSplineSet
EndChar
StartChar: K
Encoding: 75 75 44
Width: 643
VWidth: 1473
Flags: W
HStem: 0 21G<88 162 489.862 585> 696 20G<88 162 475 582>
VStem: 88 497<0 0 383 716> 88 74<0 295 383 716>
Fore
88 0 m 1xe0
 88 716 l 1xe0
 162 716 l 1
 162 383 l 1xd0
 495 716 l 1
 582 716 l 1
 277 410 l 1
 585 0 l 1xe0
 505 0 l 1
 231 362 l 1
 162 295 l 1
 162 0 l 1xd0
 88 0 l 1xe0
EndSplineSet
EndChar
StartChar: L
Encoding: 76 76 45
Width: 524
VWidth: 1473
Flags: W
HStem: 0 62<162 510> 696 20G<88 162>
VStem: 88 74<62 716>
Fore
162 62 m 1
 510 62 l 1
 510 0 l 1
 88 0 l 1
 88 716 l 1
 162 716 l 1
 162 62 l 1
EndSplineSet
EndChar
StartChar: M
Encoding: 77 77 46
Width: 827
VWidth: 1473
Flags: W
HStem: 0 21G<88 162 370.425 457.575 666 740> 696 20G<88 217.324 610.676 740>
VStem: 88 74<0 654> 666 74<0 654>
Fore
617 716 m 1
 740 716 l 1
 740 0 l 1
 666 0 l 1
 666 654 l 1
 451 0 l 1
 377 0 l 1
 162 654 l 1
 162 0 l 1
 88 0 l 1
 88 716 l 1
 211 716 l 1
 414 74 l 1
 617 716 l 1
EndSplineSet
EndChar
StartChar: N
Encoding: 78 78 47
Width: 701
VWidth: 1473
Flags: W
HStem: 0 21G<88 162 527.471 613> 696 20G<88 222.252 539 613>
VStem: 88 74<0 654> 539 74<133 716>
Fore
88 0 m 1
 88 716 l 1
 211 716 l 1
 539 133 l 1
 539 716 l 1
 613 716 l 1
 613 0 l 1
 539 0 l 1
 162 654 l 1
 162 0 l 1
 88 0 l 1
EndSplineSet
EndChar
StartChar: O
Encoding: 79 79 48
Width: 695
VWidth: 1473
Flags: W
HStem: -9 69<236.076 458.668> 654 66<235.422 457.501>
VStem: 59 77<178.848 529.681> 560 76<177.732 530.589>
Fore
136 349 m 0
 136 143 184 60 348 60 c 0
 518 60 560 154 560 349 c 0
 560 563 518 654 348 654 c 0
 181 654 136 569 136 349 c 0
636 349 m 0
 636 76 521 -9 348 -9 c 0
 175 -9 59 79 59 349 c 0
 59 639 175 720 348 720 c 0
 570 720 636 576 636 349 c 0
EndSplineSet
EndChar
StartChar: P
Encoding: 80 80 49
Width: 629
VWidth: 1473
Flags: W
HStem: 0 21G<88 162> 265 62<162 439.49> 654 62<162 450.844>
VStem: 88 74<0 265 327 654> 511 74<395.947 595.524>
Fore
511 488 m 0
 511 611 469 654 326 654 c 2
 162 654 l 1
 162 327 l 1
 311 327 l 2
 442 327 511 363 511 488 c 0
585 488 m 0
 585 354 515 265 296 265 c 2
 162 265 l 1
 162 0 l 1
 88 0 l 1
 88 716 l 1
 326 716 l 2
 526 716 585 636 585 488 c 0
EndSplineSet
EndChar
StartChar: Q
Encoding: 81 81 50
Width: 754
VWidth: 1473
Flags: W
HStem: -9 69<264.204 430.533> 654 66<266.263 486.547>
VStem: 88 77<177.49 528.149> 589 77<176.962 531.03>
Back
377 60 m 0
 418.333 60 452.833 65.6667 480.5 77 c 128
 508.167 88.3333 530 105.833 546 129.5 c 128
 562 153.167 573.167 183.167 579.5 219.5 c 128
 585.833 255.833 589 299 589 349 c 0
 589 404.333 585.833 451.167 579.5 489.5 c 128
 573.167 527.833 562 559.167 546 583.5 c 128
 530 607.833 508.167 625.667 480.5 637 c 128
 452.833 648.333 418.333 654 377 654 c 0
 335 654 300.5 648.333 273.5 637 c 128
 246.5 625.667 224.833 607.833 208.5 583.5 c 128
 192.167 559.167 180.833 527.833 174.5 489.5 c 128
 168.167 451.167 165 404.333 165 349 c 0
 165 299 168.167 255.833 174.5 219.5 c 128
 180.833 183.167 192.167 153.167 208.5 129.5 c 128
 224.833 105.833 246.5 88.3333 273.5 77 c 128
 300.5 65.6667 335 60 377 60 c 0
377 -9 m 0
 273 -9 198.833 22 154.5 84 c 128
 110.167 146 88 234.333 88 349 c 0
 88 471.667 110 564.167 154 626.5 c 128
 198 688.833 272.333 720 377 720 c 0
 429 720 473.5 712.167 510.5 696.5 c 128
 547.5 680.833 577.5 657.5 600.5 626.5 c 128
 623.5 595.5 640.167 556.667 650.5 510 c 128
 660.833 463.333 666 409.667 666 349 c 0
 666 292.333 660.833 241.667 650.5 197 c 128
 640.167 152.333 623.5 114.667 600.5 84 c 128
 577.5 53.3333 547.5 30.1667 510.5 14.5 c 128
 473.5 -1.16667 429 -9 377 -9 c 0
445 215 m 1
 666 -53 l 1
 592 -77 l 1
 383 193 l 1
 445 215 l 1
EndSplineSet
Fore
88 349 m 0
 88 637 204 720 377 720 c 0
 599 720 666 577 666 349 c 0
 666 202.682 632.921 110.545 575.747 56.4472 c 1
 666 -53 l 1
 592 -77 l 1
 518.579 17.8502 l 1
 477.904 -1.07404 430.141 -9 377 -9 c 0
 204 -9 88 78 88 349 c 0
165 349 m 0
 165 151 209 60 377 60 c 0
 415.908 60 448.111 64.8191 474.64 74.6131 c 1
 383 193 l 1
 445 215 l 1
 530.934 110.79 l 1
 575.102 157.097 589 235.676 589 349 c 0
 589 564 547 654 377 654 c 0
 207 654 165 564 165 349 c 0
EndSplineSet
EndChar
StartChar: R
Encoding: 82 82 51
Width: 643
VWidth: 1473
Flags: W
HStem: 0 21G<88 162 489.42 582> 324 62<162 359> 654 62<162 441.165>
VStem: 88 74<0 324 386 654> 508 77<443.915 592.055>
Fore
585 510 m 0
 585 365 469 334 427 329 c 1
 582 0 l 1
 498 0 l 1
 359 324 l 1
 162 324 l 1
 162 0 l 1
 88 0 l 1
 88 716 l 1
 326 716 l 2
 489 716 585 666 585 510 c 0
508 510 m 0
 508 619 436 654 326 654 c 2
 162 654 l 1
 162 386 l 1
 340 386 l 2
 412 386 508 411 508 510 c 0
EndSplineSet
EndChar
StartChar: S
Encoding: 83 83 52
Width: 657
VWidth: 1473
Flags: W
HStem: -9 62<247.548 461.881> 659 60<206.443 409.653>
VStem: 59 69<99.9338 212> 81 74<482.73 611.909> 514 65<504 606.559> 524 74<108.629 252.587>
Fore
155 545 m 0xd8
 155 349 598 444 598 202 c 0
 598 33 477 -9 359 -9 c 0
 180 -9 101 71 59 212 c 1
 128 233 l 1
 157 118 221 53 361 53 c 0
 481 53 524 109 524 192 c 0xe4
 524 386 81 288 81 545 c 0
 81 669 180 719 317 719 c 0
 420 719 533 674 579 523 c 1
 514 504 l 1
 489 581 435 659 317 659 c 0
 209 659 155 621 155 545 c 0xd8
EndSplineSet
EndChar
StartChar: T
Encoding: 84 84 53
Width: 545
VWidth: 1473
Flags: W
HStem: 0 21G<236 309> 654 62<15 236 309 530>
VStem: 236 73<0 654>
Fore
309 0 m 1
 236 0 l 1
 236 654 l 1
 15 654 l 1
 15 716 l 1
 530 716 l 1
 530 654 l 1
 309 654 l 1
 309 0 l 1
EndSplineSet
EndChar
StartChar: U
Encoding: 85 85 54
Width: 724
VWidth: 1473
Flags: W
HStem: -9 62<231.161 496.84> 696 20G<88 162 563 636>
VStem: 88 74<113.639 278.654 278.654 716> 563 73<111.264 278.654 278.654 716>
Fore
566 206 m 0
 566 264 563 279 563 352 c 2
 563 716 l 1
 636 716 l 1
 636 237 l 2
 636 128 636 -9 359 -9 c 256
 88 -9 88 122 88 237 c 2
 88 716 l 1
 162 716 l 1
 162 352 l 2
 162 279 159 264 159 206 c 0
 159 141 160 53 359 53 c 0
 564 53 566 134 566 206 c 0
EndSplineSet
EndChar
StartChar: V
Encoding: 86 86 55
Width: 652
VWidth: 1473
Flags: W
HStem: 0 21G<281.737 372.207> 696 20G<29 115.646 537.384 623>
Fore
544 716 m 1
 623 716 l 1
 365 0 l 1
 289 0 l 1
 29 716 l 1
 109 716 l 1
 327 60 l 1
 544 716 l 1
EndSplineSet
EndChar
StartChar: W
Encoding: 87 87 56
Width: 833
VWidth: 1473
Flags: W
HStem: 0 21G<173.838 266.829 567.171 660.134> 696 20G<29 112.588 377.07 456.93 721.412 804>
Fore
452 716 m 1
 610 75 l 1
 725 716 l 1
 804 716 l 1
 656 0 l 1
 572 0 l 1
 417 642 l 1
 262 0 l 1
 178 0 l 1
 29 716 l 1
 109 716 l 1
 224 75 l 1
 382 716 l 1
 452 716 l 1
EndSplineSet
EndChar
StartChar: X
Encoding: 88 88 57
Width: 602
VWidth: 1473
Flags: W
HStem: 0 21G<15 114.81 484.928 588> 696 20G<29 129.25 464.875 564>
Fore
29 716 m 1
 118 716 l 1
 298 396 l 1
 476 716 l 1
 564 716 l 1
 343 355 l 1
 588 0 l 1
 498 0 l 1
 298 306 l 1
 102 0 l 1
 15 0 l 1
 253 355 l 1
 29 716 l 1
EndSplineSet
EndChar
StartChar: Y
Encoding: 89 89 58
Width: 623
VWidth: 1473
Flags: W
HStem: 0 21G<274 348> 696 20G<29 119.798 503.255 594>
VStem: 274 74<0 280>
Fore
348 0 m 1
 274 0 l 1
 274 280 l 1
 29 716 l 1
 109 716 l 1
 312 340 l 1
 514 716 l 1
 594 716 l 1
 348 280 l 1
 348 0 l 1
EndSplineSet
EndChar
StartChar: Z
Encoding: 90 90 59
Width: 583
VWidth: 1473
Flags: W
HStem: 0 62<147 524> 653 63<59 436>
VStem: 62 462<0 62 653 716 62 653 1.53064e-18 1.53064e-18>
Fore
436 653 m 1
 59 653 l 1
 59 716 l 1
 517 716 l 1
 517 648 l 1
 147 62 l 1
 524 62 l 1
 524 0 l 1
 62 0 l 1
 62 62 l 1
 436 653 l 1
EndSplineSet
EndChar
StartChar: bracketleft
Encoding: 91 91 60
Width: 397
VWidth: 1473
Flags: W
HStem: -87 44<177 327> 818 44<177 327>
VStem: 105 72<-43 818> 105 222<-87 -43 818 862 -87 862 862 862>
Fore
327 862 m 1xd0
 327 818 l 1xd0
 177 818 l 1
 177 -43 l 1xe0
 327 -43 l 1
 327 -87 l 1
 105 -87 l 1
 105 862 l 1
 327 862 l 1xd0
EndSplineSet
EndChar
StartChar: backslash
Encoding: 92 92 61
Width: 331
VWidth: 1473
Flags: W
HStem: -12 21G<268.454 346>
VStem: -15 361<-12 874 1318.66 1785.41>
Fore
-15 874 m 1
 52 874 l 1
 346 -12 l 1
 275 -12 l 1
 -15 874 l 1
EndSplineSet
EndChar
StartChar: bracketright
Encoding: 93 93 62
Width: 397
VWidth: 1473
Flags: W
HStem: -87 44<71 221> 818 44<71 221>
VStem: 71 222<-87 -43 818 862 -87 862 -87 -87> 221 72<-43 818>
Fore
71 -87 m 1xe0
 71 -43 l 1xe0
 221 -43 l 1
 221 818 l 1xd0
 71 818 l 1
 71 862 l 1
 293 862 l 1
 293 -87 l 1
 71 -87 l 1xe0
EndSplineSet
EndChar
StartChar: asciicircum
Encoding: 94 94 63
Width: 671
VWidth: 1473
Flags: W
HStem: 331 478<365 608 365 365>
Fore
365 809 m 1
 608 331 l 1
 535 331 l 1
 333 728 l 1
 137 331 l 1
 63 331 l 1
 305 809 l 1
 365 809 l 1
EndSplineSet
EndChar
StartChar: underscore
Encoding: 95 95 64
Width: 699
VWidth: 1473
Flags: W
HStem: -175 70<0 700>
Fore
0 -175 m 1
 0 -105 l 1
 700 -105 l 1
 700 -175 l 1
 0 -175 l 1
EndSplineSet
EndChar
StartChar: grave
Encoding: 96 96 65
Width: 248
VWidth: 1473
Flags: W
HStem: 647 154<71 194 71 71>
Fore
71 801 m 1
 194 647 l 1
 137 647 l 1
 -15 801 l 1
 71 801 l 1
EndSplineSet
EndChar
StartChar: a
Encoding: 97 97 66
Width: 559
VWidth: 1473
Flags: W
HStem: -12 55<135.767 292.345> 299 55<206.926 399> 541 53<185.009 360.612>
VStem: 29 451<12 156 12 156 439 586.645> 29 62<87.6289 221.405> 402 64<36.838 71 138 299 354 501.645>
Fore
466 106 m 2xec
 466 68 471 39 480 12 c 1xf0
 463 4 447 0 432 0 c 0
 423 0 416 4 411 12 c 1
 409 18 402 47 402 71 c 1xe4
 332 12 274 -12 189 -12 c 256
 98 -12 29 56 29 156 c 0xf0
 29 314 157 341 402 354 c 1
 402 423 l 2
 402 517 349 541 268 541 c 0
 206 541 154 512 91 435 c 0
 81 422 54 438 31 467 c 1
 83 528 159 594 271 594 c 0
 422 594 466 521 466 411 c 2
 466 106 l 2xec
200 43 m 0
 279 43 356 95 399 138 c 1
 399 299 l 1
 169 297 91 243 91 158 c 0xe8
 91 91 140 43 200 43 c 0
EndSplineSet
Substitution2: "Single Substitution lookup 27 subtable" uni0E38
Substitution2: "Single Substitution lookup 27 subtable" uni0E38
EndChar
StartChar: b
Encoding: 98 98 67
Width: 611
VWidth: 1473
Flags: W
HStem: -12 55<289.226 435.458> 541 53<271.789 432.544> 789 20G<103 166>
VStem: 84 78<12 83.1218> 103 63<149 449 522 809> 504 66<130.35 453.641>
Fore
84 12 m 1xf4
 93 48 103 62 103 136 c 2
 103 809 l 1
 166 809 l 1
 166 522 l 1xec
 282 589 319 594 370 594 c 0
 530 594 570 442 570 295 c 0
 570 131 528 -12 359 -12 c 0
 263 -12 211 27 165 75 c 1
 162 49 l 2
 158 7 145 0 133 0 c 0
 118 0 101 4 84 12 c 1xf4
352 541 m 0
 315 541 254 522 166 449 c 1
 166 149 l 1
 237 50 318 43 355 43 c 0
 474 43 504 136 504 283 c 0
 504 451 474 541 352 541 c 0
EndSplineSet
Substitution2: "Single Substitution lookup 27 subtable" uni0E39
Substitution2: "Single Substitution lookup 27 subtable" uni0E39
EndChar
StartChar: c
Encoding: 99 99 68
Width: 559
VWidth: 1473
Flags: W
HStem: -12 55<188.431 367.456> 541 53<184.514 368.018>
VStem: 41 67<136.262 452.557>
Fore
41 292 m 0
 41 527 138 594 284 594 c 0
 352 594 424 578 488 468 c 1
 430 448 l 1
 384 528 335 541 284 541 c 0
 143 541 108 467 108 292 c 0
 108 128 143 43 283 43 c 0
 330.607 43 387.277 55.5455 436 138 c 1
 488 109 l 1
 425 1 337 -12 283 -12 c 0
 89 -12 41 114 41 292 c 0
EndSplineSet
Substitution2: "Single Substitution lookup 27 subtable" uni0E3A
Substitution2: "Single Substitution lookup 27 subtable" uni0E3A
EndChar
StartChar: d
Encoding: 100 100 69
Width: 611
VWidth: 1473
Flags: W
HStem: -12 55<175.856 298.727> 541 53<202.031 345.146> 789 20G<445 508>
VStem: 41 67<130.562 429.038> 445 63<149 464 536 809>
Fore
256 43 m 0
 294 43 374 51 445 149 c 1
 445 464 l 1
 411 510 340 541 289 541 c 0
 152 541 108 428 108 283 c 0
 108 137 138 43 256 43 c 0
271 594 m 0
 315 594 354 590 445 536 c 1
 445 809 l 1
 508 809 l 1
 508 121 l 2
 508 110 507 76 523 12 c 1
 505 4 489 0 476 0 c 0
 467 0 460 4 455 12 c 1
 451 24 446 56 446 75 c 1
 367 -8 302 -12 252 -12 c 0
 83 -12 41 131 41 295 c 0
 41 521 167 594 271 594 c 0
EndSplineSet
EndChar
StartChar: e
Encoding: 101 101 70
Width: 559
VWidth: 1473
Flags: W
HStem: -12 55<208.023 377.838> 289 54<108 445> 541 53<197.762 367.877>
VStem: 41 67<159.002 289 343 437.388> 41 472<289 339.657 131 292 292 292> 445 68<343 440.715>
Fore
41 292 m 0xe8
 41 466 112 594 287 594 c 0
 468 594 513 431 513 289 c 1xe8
 108 289 l 1xf0
 108 159 157 43 295 43 c 0
 369 43 407 72 464 159 c 1
 519 131 l 1
 456 31 405 -12 289 -12 c 0
 190 -12 41 30 41 292 c 0xe8
445 343 m 1xf4
 442 432 413 541 284 541 c 0
 178 541 108 462 108 343 c 1
 445 343 l 1xf4
EndSplineSet
EndChar
StartChar: f
Encoding: 102 102 71
Width: 312
VWidth: 1473
Flags: W
HStem: 0 21G<108 174> 529 53<12 108 174 293> 762 59<192.2 285.331>
VStem: 108 66<0 529 582 743.348>
Fore
253 762 m 0
 189 762 174 728 174 673 c 2
 174 582 l 1
 293 582 l 1
 293 529 l 1
 174 529 l 1
 174 0 l 1
 108 0 l 1
 108 529 l 1
 12 529 l 1
 12 582 l 1
 108 582 l 1
 108 664 l 2
 108 785 163 821 246 821 c 0
 290 821 306 817 320 812 c 1
 335 779 324 744 315 744 c 1
 281 761 265 762 253 762 c 0
EndSplineSet
EndChar
StartChar: g
Encoding: 103 103 72
Width: 559
VWidth: 1473
Flags: W
HStem: -206 53<127.845 429.149> 43 60<143.214 433.629> 189 56<186.796 378.3> 541 53<167.61 375.808> 545 71<499.659 539>
VStem: 28 68<-124.303 1.58> 52 60<118.385 179.283 302.476 478.756> 420 68<287.15 469.169> 467 68<-118.766 12.4151>
Fore
412 560 m 1xf2
 466 612 506 616 530 616 c 0
 546 616 555 577 539 545 c 1
 477 545 463 534 451 523 c 1
 481 483 488 440 488 395 c 0
 488 228 397 189 262 189 c 0
 223 189 189 194 161 203 c 1
 125 189 112 171 112 150 c 0xeb
 112 122 124 103 295 103 c 0
 496 103 535 43 535 -47 c 0
 535 -167 469 -206 277 -206 c 256
 74 -206 28 -151 28 -69 c 0xec80
 28 20 91 43 125 55 c 1
 125 57 l 1
 99 62 52 74 52 141 c 0
 52 157 52 212 121 230 c 1
 73 260 50 311 50 383 c 0
 50 552 147 594 281 594 c 0
 336 594 379 580 412 560 c 1xf2
467 -53 m 0xe480
 467 26 432 43 262 43 c 0
 182 43 96 27 96 -56 c 0
 96 -140 139 -153 267 -153 c 0
 415 -153 467 -140 467 -53 c 0xe480
268 541 m 0xf1
 153 541 118 495 118 390 c 0
 118 274 166 245 268 245 c 0
 383 245 420 272 420 390 c 0
 420 509 384 541 268 541 c 0xf1
EndSplineSet
EndChar
StartChar: h
Encoding: 104 104 73
Width: 623
VWidth: 1473
Flags: W
HStem: 0 21G<93 159 463 530> 541 53<269.488 420.583> 789 20G<93 159>
VStem: 93 66<0 429 491 809> 463 67<0 494.456>
Fore
463 390 m 2
 463 515 412 541 345 541 c 0
 280.588 541 232.902 498.903 159 429 c 1
 159 0 l 1
 93 0 l 1
 93 809 l 1
 159 809 l 1
 159 491 l 1
 238 572 286 594 358 594 c 0
 461 594 530 543 530 398 c 2
 530 0 l 1
 463 0 l 1
 463 390 l 2
EndSplineSet
EndChar
StartChar: i
Encoding: 105 105 74
Width: 248
VWidth: 1473
Flags: W
HStem: 0 21G<91 158> 562 20G<91 158> 710 99<91 158>
VStem: 91 67<0 582 710 809>
Fore
158 0 m 1
 91 0 l 1
 91 582 l 1
 158 582 l 1
 158 0 l 1
91 710 m 1
 91 809 l 1
 158 809 l 1
 158 710 l 1
 91 710 l 1
EndSplineSet
EndChar
StartChar: j
Encoding: 106 106 75
Width: 248
VWidth: 1473
Flags: W
HStem: -206 59<-21.4584 80.2337> 562 20G<91 158> 710 99<91 158>
VStem: 91 67<-135.056 582 710 809>
Fore
12 -147 m 0
 66.3043 -147 91 -139.537 91 -74 c 2
 91 582 l 1
 158 582 l 1
 158 -65 l 2
 158 -163.352 120.46 -206 19 -206 c 0
 -25.4 -206 -41.2745 -201.844 -55 -197 c 1
 -68.5215 -169.957 -59.377 -130 -50 -130 c 1
 -15.5438 -146.08 -0.4 -147 12 -147 c 0
91 710 m 1
 91 809 l 1
 158 809 l 1
 158 710 l 1
 91 710 l 1
EndSplineSet
EndChar
StartChar: k
Encoding: 107 107 76
Width: 559
VWidth: 1473
Flags: W
HStem: 0 21G<93 159 429.418 535> 562 20G<402.286 507> 789 20G<93 159>
VStem: 93 442<0 0 302 809> 93 66<0 209 302 809>
Fore
93 0 m 1xf0
 93 809 l 1xf0
 159 809 l 1
 159 302 l 1xe8
 421 582 l 1
 507 582 l 1
 264 320 l 1
 535 0 l 1xf0
 446 0 l 1
 218 275 l 1
 159 209 l 1
 159 0 l 1xe8
 93 0 l 1xf0
EndSplineSet
EndChar
StartChar: l
Encoding: 108 108 77
Width: 248
VWidth: 1473
Flags: W
HStem: 0 21G<91 158> 789 20G<91 158>
VStem: 91 67<0 809>
Fore
91 809 m 1
 158 809 l 1
 158 0 l 1
 91 0 l 1
 91 809 l 1
EndSplineSet
EndChar
StartChar: m
Encoding: 109 109 78
Width: 932
VWidth: 1473
Flags: W
HStem: 0 21G<93 159 433 499 772 840> 541 53<261.734 401.728 603.397 743.377>
VStem: 93 66<0 429 494 582> 433 66<0 429> 772 68<0 510.553>
Fore
331 541 m 0
 281 541 197 488 159 429 c 1
 159 0 l 1
 93 0 l 1
 93 582 l 1
 159 582 l 1
 159 494 l 1
 218 556 264 594 352 594 c 0
 417 594 478 552 494 488 c 1
 571 577 628 594 687 594 c 0
 789 594 840 538 840 435 c 2
 840 0 l 1
 772 0 l 1
 772 442 l 2
 772 508 739 541 672 541 c 0
 635 541 553 506 499 429 c 1
 499 0 l 1
 433 0 l 1
 433 442 l 2
 433 507 396 541 331 541 c 0
EndSplineSet
EndChar
StartChar: n
Encoding: 110 110 79
Width: 623
VWidth: 1473
Flags: W
HStem: 0 21G<93 159 463 530> 541 53<289.301 420.604>
VStem: 93 66<0 429 492 582> 463 67<0 494.561>
Fore
345 541 m 0
 296.805 541 245.113 526.855 159 429 c 1
 159 0 l 1
 93 0 l 1
 93 582 l 1
 159 582 l 1
 159 492 l 1
 228.284 588.997 320.683 594 358 594 c 0
 461.2 594 530 543.244 530 398 c 2
 530 0 l 1
 463 0 l 1
 463 390 l 2
 463 514.764 411.907 541 345 541 c 0
EndSplineSet
EndChar
StartChar: o
Encoding: 111 111 80
Width: 559
VWidth: 1473
Flags: W
HStem: -12 55<187.498 372.502> 541 53<188.958 371.871>
VStem: 41 67<138.152 443.664> 452 67<137.937 445.112>
Fore
452 292 m 0
 452 450 414 541 280 541 c 0
 144 541 108 447 108 292 c 0
 108 88.3656 176.8 43 280 43 c 256
 383.2 43 452 88.3656 452 292 c 0
41 292 m 256
 41 476 98 594 280 594 c 0
 423 594 519 526 519 292 c 256
 519 55 423 -12 280 -12 c 0
 137 -12 41 56 41 292 c 256
EndSplineSet
EndChar
StartChar: p
Encoding: 112 112 81
Width: 611
VWidth: 1473
Flags: W
HStem: -206 21G<103 166> -12 53<258.993 417.349> 539 55<319.002 439.481>
VStem: 103 63<-206 31 103 418 492 509.403> 504 66<147.057 456.041>
Fore
504 299 m 0
 504 503 444 539 355 539 c 0
 325 539 249 535 166 418 c 1
 166 103 l 1
 251 41 299 41 323 41 c 0
 426 41 504 88 504 299 c 0
103 425 m 2
 103 440 101 542 91 567 c 1
 106 575 114 582 143 582 c 0
 157 582 166 572 166 523 c 2
 166 492 l 1
 168 492 l 1
 230 587 326 594 359 594 c 0
 486 594 570 525 570 287 c 0
 570 145 524 -12 340 -12 c 0
 270 -12 229 -0 166 31 c 1
 166 -206 l 1
 103 -206 l 1
 103 425 l 2
EndSplineSet
EndChar
StartChar: q
Encoding: 113 113 82
Width: 611
VWidth: 1473
Flags: W
HStem: -206 21G<445 508> -12 53<194.818 357.643> 539 55<175.856 321.946>
VStem: 41 67<146.171 451.227> 445 63<-206 31 103 433>
Fore
289 41 m 0
 320 41 371 42 445 103 c 1
 445 433 l 1
 374 532 293 539 256 539 c 0
 138 539 108 444 108 299 c 0
 108 84 189 41 289 41 c 0
451 514 m 1
 453 566 461 582 476 582 c 0
 507 582 513 574 527 567 c 1
 516 533 508 432 508 386 c 2
 508 -206 l 1
 445 -206 l 1
 445 31 l 1
 375 -7 351 -12 271 -12 c 0
 87 -12 41 145 41 287 c 0
 41 451 83 594 252 594 c 0
 333 594 400 567 451 514 c 1
EndSplineSet
EndChar
StartChar: r
Encoding: 114 114 83
Width: 388
VWidth: 1473
Flags: W
HStem: 0 582<87 155 87 368 87 87> 529 65<240.803 347.945>
VStem: 87 68<0 425.459 471 582>
Fore
156 471 m 1xa0
 174 512 221 594 318 594 c 0
 343 594 360 591 368 586 c 1
 380 563 362 516 351 516 c 1
 336 525 320 529 301 529 c 0x60
 234 529 155 442 155 329 c 2
 155 0 l 1
 87 0 l 1
 87 582 l 1
 155 582 l 1
 155 471 l 1
 156 471 l 1xa0
EndSplineSet
EndChar
StartChar: s
Encoding: 115 115 84
Width: 496
VWidth: 1473
Flags: W
HStem: -12 55<189.52 335.747> 541 53<151.745 315.606>
VStem: 28 427<106 155 106 106> 44 68<390.426 504.361> 387 68<93.3923 211.084>
Fore
388 459 m 0xd8
 364 459 345 541 227 541 c 256
 177 541 112 520 112 438 c 0xd8
 112 294 455 378 455 155 c 0
 455 55 366 -12 253 -12 c 0
 212 -12 102 -5 28 106 c 1xe0
 42 120 60 141 76 141 c 0
 97 141 140 43 258 43 c 0
 334 43 387 93 387 155 c 0
 387 324 44 227 44 435 c 0
 44 549 153 594 230 594 c 0
 315 594 389 555 430 489 c 1
 419 474 400 459 388 459 c 0xd8
EndSplineSet
EndChar
StartChar: t
Encoding: 116 116 85
Width: 310
VWidth: 1473
Flags: W
HStem: -12 61<172.238 258.03> 529 53<12 99 165 295>
VStem: 99 66<57.2114 529 582 772>
Fore
225 -12 m 0
 141 -12 99 10 99 91 c 2
 99 529 l 1
 12 529 l 1
 12 582 l 1
 99 582 l 1
 99 772 l 1
 165 772 l 1
 165 582 l 1
 295 582 l 1
 295 529 l 1
 165 529 l 1
 165 105 l 2
 165 64 181 49 222 49 c 0
 237 49 271 54 299 66 c 1
 308 63 316 1 299 -1 c 0
 285 -5 255 -12 225 -12 c 0
EndSplineSet
EndChar
StartChar: u
Encoding: 117 117 86
Width: 623
VWidth: 1473
Flags: W
HStem: -12 55<201.917 364.771> 562 20G<93 159 463 530>
VStem: 93 452<12 43 155 184 12 184 184 184> 93 66<90.9375 582> 463 67<60.3906 93 155 582>
Fore
501 0 m 0xe0
 470 0 466 19 466 93 c 1
 432 27 352 -12 265 -12 c 0
 162 -12 93 36 93 184 c 2xe0
 93 582 l 1
 159 582 l 1
 159 192 l 2
 159 68 210 43 277 43 c 0
 364 43 427 100 463 155 c 1
 463 582 l 1
 530 582 l 1
 530 121 l 2xd8
 530 86 532 62 536 48 c 2
 545 12 l 1
 521 0 510 0 501 0 c 0xe0
EndSplineSet
EndChar
StartChar: v
Encoding: 118 118 87
Width: 496
VWidth: 1473
Flags: W
HStem: 0 21G<208.127 287.907> 562 20G<15 93.6388 403.278 482>
VStem: 15 467<582 582 582 582>
Fore
15 582 m 1
 87 582 l 1
 246 103 l 1
 249 103 l 1
 410 582 l 1
 482 582 l 1
 281 0 l 1
 215 0 l 1
 15 582 l 1
EndSplineSet
EndChar
StartChar: w
Encoding: 119 119 88
Width: 746
VWidth: 1473
Flags: W
HStem: 0 21G<165.433 244.61 496.475 574.808> 562 20G<9 80.5675 333.304 412.482 663.39 738>
Fore
9 582 m 1
 75 582 l 1
 205 115 l 1
 206 115 l 1
 339 582 l 1
 407 582 l 1
 535 115 l 1
 538 115 l 1
 669 582 l 1
 738 582 l 1
 569 0 l 1
 502 0 l 1
 373 467 l 1
 370 467 l 1
 239 0 l 1
 171 0 l 1
 9 582 l 1
EndSplineSet
EndChar
StartChar: x
Encoding: 120 120 89
Width: 496
VWidth: 1473
Flags: W
HStem: 0 21G<12 105.735 394.102 486> 562 20G<34 127.823 370.177 463>
VStem: 12 474<0 0 1.53064e-18 1.53064e-18>
Fore
93 0 m 1
 12 0 l 1
 209 309 l 1
 34 582 l 1
 115 582 l 1
 249 373 l 1
 383 582 l 1
 463 582 l 1
 289 309 l 1
 486 0 l 1
 407 0 l 1
 249 245 l 1
 93 0 l 1
EndSplineSet
EndChar
StartChar: y
Encoding: 121 121 90
Width: 496
VWidth: 1473
Flags: W
HStem: -206 56<34.5925 143.534> 562 20G<15 93.7653 404.15 485>
VStem: 15 470<582 582 582 582>
Fore
25 -121 m 1
 52 -142 64 -150 90 -150 c 0
 113 -150 135 -138 157 -116 c 0
 179 -92 198 -51 215 9 c 1
 15 582 l 1
 87 582 l 1
 247 109 l 1
 249 109 l 1
 411 582 l 1
 485 582 l 1
 267 -43 l 2
 220 -175 168 -206 81 -206 c 0
 54 -206 35 -202 18 -194 c 1
 -6 -189 14 -129 25 -121 c 1
EndSplineSet
EndChar
StartChar: z
Encoding: 122 122 91
Width: 496
VWidth: 1473
Flags: W
HStem: 0 53<118 463> 529 53<55 364>
Fore
55 582 m 1
 454 582 l 1
 454 541 l 1
 118 53 l 1
 463 53 l 1
 463 0 l 1
 28 0 l 1
 28 43 l 1
 364 529 l 1
 55 529 l 1
 55 582 l 1
EndSplineSet
EndChar
StartChar: braceleft
Encoding: 123 123 92
Width: 372
VWidth: 1473
Flags: W
HStem: -93 41<191.01 284> 345 38<49 98.5869> 779 42<190.936 284>
VStem: 116 67<-45.7353 326.443 402.043 773.231>
Fore
116 253 m 2
 116 324 89 345 49 345 c 1
 49 383 l 1
 86 383 116 400 116 474 c 2
 116 692 l 2
 116 767 146 821 215 821 c 2
 284 821 l 1
 284 779 l 1
 228 779 l 2
 192 779 183 758 183 706 c 2
 183 485 l 2
 183 420 162 382 103 365 c 1
 103 362 l 1
 163 349 183 305 183 243 c 2
 183 22 l 2
 183 -29 192 -52 228 -52 c 2
 284 -52 l 1
 284 -93 l 1
 215 -93 l 2
 175 -93 116 -74 116 35 c 2
 116 253 l 2
EndSplineSet
EndChar
StartChar: bar
Encoding: 124 124 93
Width: 248
VWidth: 1473
Flags: W
HStem: -12 21G<94 155>
VStem: 94 61<-12 821>
Fore
94 821 m 1
 155 821 l 1
 155 -12 l 1
 94 -12 l 1
 94 821 l 1
EndSplineSet
EndChar
StartChar: braceright
Encoding: 125 125 94
Width: 372
VWidth: 1473
Flags: W
HStem: -93 41<88 181.782> 345 38<272.356 323> 779 42<88 182.021>
VStem: 189 67<-45.8477 327.523 401.657 773.231>
Fore
256 474 m 2
 256 399 286 383 323 383 c 1
 323 345 l 1
 283 345 256 326 256 253 c 2
 256 35 l 2
 256 -40 227 -93 158 -93 c 2
 88 -93 l 1
 88 -52 l 1
 144 -52 l 2
 180 -52 189 -30 189 22 c 2
 189 243 l 2
 189 307 209 350 270 362 c 1
 270 365 l 1
 210 382 189 420 189 485 c 2
 189 706 l 2
 189 758 180 779 144 779 c 2
 88 779 l 1
 88 821 l 1
 158 821 l 2
 227 821 256 767 256 692 c 2
 256 474 l 2
EndSplineSet
EndChar
StartChar: asciitilde
Encoding: 126 126 95
Width: 671
VWidth: 1473
Flags: W
HStem: 222 64<381.949 524.19> 296 63<148.212 290.739>
Fore
466 286 m 0
 500 286 528 299 573 364 c 1
 614 317 l 1
 569.577 234.988 512.682 222 463 222 c 0
 375 222 278 296 206 296 c 0
 171 296 143 281 99 218 c 1
 57 267 l 1
 102.727 347.902 164.745 359 209 359 c 0
 299 359 394 286 466 286 c 0
EndSplineSet
EndChar
StartChar: uni0E33.alt1
Encoding: 65537 -1 96
Width: 493
VWidth: 1473
Flags: W
HStem: 0 21G<334 403.5> 547 51<142.249 292.575> 688 49<-377.211 -295.054> 837 48<-376.339 -295.661>
VStem: -435 49<746.311 827.441> -286 49<746.046 827.441> 334 61<0.0100861 309.688> 342 59<319.676 495.311>
Fore
-336 885 m 256xfc
 -279 885 -237 840 -237 787 c 256
 -237 729 -282 688 -336 688 c 256
 -390 688 -435 729 -435 787 c 256
 -435 840 -393 885 -336 885 c 256xfc
-336 737 m 256
 -306 737 -286 760 -286 787 c 256
 -286 813 -307 837 -336 837 c 256
 -365 837 -386 813 -386 787 c 256
 -386 757 -363 737 -336 737 c 256
395 186 m 2xfe
 395 13 415 0 392 0 c 2
 334 0 l 1
 334 225 l 2xfe
 334 299 342 336 342 410 c 0
 342 534 253 547 225 547 c 0
 173 547 122 528 56 449 c 0
 42 431 4 475 0 480 c 1
 37 534 143 598 217 598 c 0
 364 598 401 510 401 410 c 0xfd
 401 339 395 304 395 233 c 2
 395 186 l 2xfe
EndSplineSet
EndChar
StartChar: exclamdown
Encoding: 161 161 100
Width: 248
VWidth: 1473
Flags: W
HStem: 482 100<75 172>
VStem: 75 97<-227 -137.909 482 582> 97 56<243.909 333>
Fore
75 -227 m 1xc0
 97 333 l 1
 153 333 l 1xa0
 172 -227 l 1
 75 -227 l 1xc0
172 582 m 1xc0
 172 482 l 1
 75 482 l 1
 75 582 l 1
 172 582 l 1xc0
EndSplineSet
EndChar
StartChar: cent
Encoding: 162 162 101
Width: 623
VWidth: 1473
Flags: W
HStem: -3 46<243 255.632 255.632 264.232 259.932 379.412> 508 47<203.775 317.52>
VStem: 62 60<139.867 410.729>
Fore
286 508 m 0
 158 508 122 399 122 273 c 0
 122 172 147 103 197 66 c 1
 330 499 l 1
 304 506 304 508 286 508 c 0
62 273 m 0
 62 420 107 555 286 555 c 0
 307 555 326 552 345 547 c 1
 380 653 l 1
 433 653 l 1
 390 526 l 1
 430 500 457 464 473 414 c 1
 418 399 l 1
 409 428 394 452 373 471 c 1
 243 43 l 1
 255 40 269 38 286 38 c 0
 353 38 406 58 439 144 c 1
 488 121 l 1
 443.525 11.2952 357.706 -10 286 -10 c 0
 265 -10 246 -8 228 -3 c 1
 190 -119 l 1
 137 -119 l 1
 181 15 l 1
 97 61 62 140 62 273 c 0
EndSplineSet
EndChar
StartChar: sterling
Encoding: 163 163 102
Width: 623
VWidth: 1473
Flags: W
HStem: -10 76<16 82.2209> -10 60<238.951 415.679> 333 47<15 119 193 331> 664 62<222.35 386.496>
VStem: 106 66<460.692 614.334> 131 65<184.459 307.034 306.016 308.053 308.053 333> 452 64<532.487 622.328> 467 63<76.6537 177>
Fore
342 -10 m 0x75
 271 -10 237 1 134 66 c 1
 110 34 67 1 16 -10 c 1
 16 66 l 1
 98 88 131 172 131 267 c 0xb5
 131 293 126 320 125 333 c 1
 15 333 l 1
 15 380 l 1
 119 380 l 1
 113 453 106 468 106 526 c 0
 106 650 185 726 305 726 c 0
 423 726 497 651 516 544 c 1
 452 523 l 1
 426 645 369 664 305 664 c 0
 234 664 172 636 172 523 c 0xba
 172 472 178 423 187 380 c 1
 331 380 l 1
 331 333 l 1
 193 333 l 1
 196 291 196 301 196 280 c 0
 196 221 189 173 161 112 c 1
 198 89 269 50 331 50 c 0
 416 50 441 76 467 177 c 1
 530 165 l 1
 509 57 455 -10 342 -10 c 0x75
EndSplineSet
EndChar
StartChar: currency
Encoding: 164 164 103
Width: 623
VWidth: 1473
Flags: W
HStem: 82 55<244.386 402.756> 585 53<222.189 401.125>
VStem: 34 60<265.764 454.461> 529 60<265.546 456.048>
Fore
138 576 m 1
 191 620 255 638 311 638 c 0
 377 638 435 617 485 576 c 1
 547 638 l 1
 589 595 l 1
 529 535 l 1
 573 482 589 422 589 361 c 256
 589 304 574 237 529 186 c 1
 589 125 l 1
 547 82 l 1
 485 143 l 1
 434 102 376 82 311 82 c 0
 276 82 205 89 138 143 c 1
 75 82 l 1
 34 125 l 1
 94 186 l 1
 49 237 34 304 34 361 c 256
 34 422 50 482 94 535 c 1
 34 595 l 1
 75 638 l 1
 138 576 l 1
94 361 m 0
 94 242 187 137 311 137 c 0
 435 137 529 241 529 361 c 0
 529 479 432 585 311 585 c 0
 196 585 94 483 94 361 c 0
EndSplineSet
EndChar
StartChar: yen
Encoding: 165 165 104
Width: 623
VWidth: 1473
Flags: W
HStem: 0 21G<239 305> 243 47<63 239 305 479> 389 47<49 164 382 494> 696 20G<-1 79.3803 472.887 552>
VStem: 239 66<0 243 290 303>
Fore
494 389 m 1
 357 389 l 1
 305 303 l 1
 305 290 l 1
 479 290 l 1
 479 243 l 1
 305 243 l 1
 305 0 l 1
 239 0 l 1
 239 243 l 1
 63 243 l 1
 63 290 l 1
 239 290 l 1
 239 303 l 1
 189 389 l 1
 49 389 l 1
 49 436 l 1
 164 436 l 1
 -1 716 l 1
 68 716 l 1
 270 361 l 1
 485 716 l 1
 552 716 l 1
 382 436 l 1
 494 436 l 1
 494 389 l 1
EndSplineSet
EndChar
StartChar: brokenbar
Encoding: 166 166 105
Width: 248
VWidth: 1473
Flags: W
HStem: -12 21G<94 155>
VStem: 94 61<-12 302 507 821>
Fore
94 302 m 1
 155 302 l 1
 155 -12 l 1
 94 -12 l 1
 94 302 l 1
94 821 m 1
 155 821 l 1
 155 507 l 1
 94 507 l 1
 94 821 l 1
EndSplineSet
EndChar
StartChar: section
Encoding: 167 167 106
Width: 539
VWidth: 1473
Flags: W
HStem: -90 49<183.033 328.091> 448 35<151.425 203> 586 21G<387.5 436.429> 675 50<206.776 350.403>
VStem: 74 56<324.344 427.152> 134 56<551.967 657.554> 349 56<-19.0227 79.6944> 410 56<205.338 315.311>
Fore
134 608 m 0
 134 702 219 725 283 725 c 0
 368 725 420 674 449 614 c 1
 405 586 l 1
 370 659 321 675 277 675 c 0
 197 675 190 635 190 600 c 0
 190 505.192 466 426.48 466 265 c 0
 466 184 406 153 343 147 c 1
 390 92 405 74 405 28 c 0
 405 -66 318 -90 249 -90 c 0
 174 -90 111 -43 85 15 c 1
 131 44 l 1
 141 21 178 -41 249 -41 c 0
 325 -41 349 -11 349 35 c 0
 349 116 74 235 74 377 c 0
 74 462 148 483 203 483 c 1
 206 486 l 1
 146 529 134 568 134 608 c 0
410 262 m 0
 410 329 266 448 202 448 c 256
 176 448 130 427 130 382 c 0
 130 308 282 183 333 183 c 0
 379 183 410 216 410 262 c 0
EndSplineSet
EndChar
StartChar: dieresis
Encoding: 168 168 107
Width: 248
VWidth: 1473
Flags: W
HStem: 659 106<0 74 175 249>
VStem: 0 74<659 765> 175 74<659 765>
Fore
74 765 m 1
 74 659 l 1
 0 659 l 1
 0 765 l 1
 74 765 l 1
249 765 m 1
 249 659 l 1
 175 659 l 1
 175 765 l 1
 249 765 l 1
EndSplineSet
EndChar
StartChar: copyright
Encoding: 169 169 108
Width: 895
VWidth: 1473
Flags: W
HStem: -10 50<287.926 507.88> 125 50<331.598 484.014> 541 50<320.91 482.609> 676 50<283.482 508.066>
VStem: 28 59<240.137 471.104> 186 57<269.802 456.288> 539 53<231.652 283 436 485.645> 706 59<239.779 476.027>
Fore
28 358 m 256
 28 569 203 726 396 726 c 256
 602 726 765 556 765 358 c 256
 765 159 601 -10 396 -10 c 256
 202 -10 28 147 28 358 c 256
87 358 m 256
 87 169 233 40 396 40 c 256
 567 40 706 174 706 358 c 256
 706 542 567 676 396 676 c 256
 231 676 87 545 87 358 c 256
408 175 m 0
 487 175 529 230 539 283 c 1
 592 283 l 1
 572 194 509 125 408 125 c 0
 275 125 186 223 186 359 c 256
 186 503 276 591 404 591 c 0
 495 591 579 542 592 436 c 1
 539 436 l 1
 530 479 493 541 405 541 c 0
 292 541 243 450 243 359 c 0
 243 270 303 175 408 175 c 0
EndSplineSet
EndChar
StartChar: ordfeminine
Encoding: 170 170 109
Width: 335
VWidth: 1473
Flags: W
HStem: 460 44<78.899 204.277> 650 47<102.276 229.048> 719 21G<35.5652 77.5> 775 46<98.7761 233.473>
VStem: 15 56<512.659 591.639> 242 56<483.5 504.701 504.701 508 555 650 697 764.524>
Fore
171 775 m 0
 115 775 89 751 66 719 c 1
 31 742 l 1
 62 796 102 821 177 821 c 0
 271 821 298 778 298 713 c 2
 298 538 l 2
 298 509 299 494 305 466 c 1
 255 466 l 1
 249 508 l 1
 205 470 168 460 119 460 c 0
 59 460 15 492 15 550 c 0
 15 670 174 677 242 697 c 1
 242 725 l 2
 242 765 211 775 171 775 c 0
127 504 m 0
 161 504 212 521 242 555 c 1
 242 650 l 1
 202 637 71 619 71 551 c 0
 71 532 82 504 127 504 c 0
EndSplineSet
EndChar
StartChar: guillemotleft
Encoding: 171 171 110
Width: 559
VWidth: 1473
Flags: W
HStem: 119 344<395 467 395 395>
VStem: 93 374<119 295 295 295>
Fore
327 295 m 1
 467 119 l 1
 395 119 l 1
 258 295 l 1
 395 463 l 1
 467 463 l 1
 327 295 l 1
162 295 m 1
 301 119 l 1
 227 119 l 1
 93 295 l 1
 227 463 l 1
 301 463 l 1
 162 295 l 1
EndSplineSet
EndChar
StartChar: logicalnot
Encoding: 172 172 111
Width: 671
VWidth: 1473
Flags: W
HStem: 314 62<44 567>
VStem: 567 61<119 314>
Fore
567 314 m 1
 44 314 l 1
 44 376 l 1
 628 376 l 1
 628 119 l 1
 567 119 l 1
 567 314 l 1
EndSplineSet
EndChar
StartChar: registered
Encoding: 174 174 112
Width: 895
VWidth: 1473
Flags: W
HStem: -10 50<287.926 507.88> 334 49<320 404> 527 49<320 491.459> 676 50<283.482 508.066>
VStem: 28 59<240.137 471.104> 261 59<138 334 383 527> 508 61<401.632 509.39> 706 59<239.779 476.027>
Fore
569 455 m 0
 569 358 487 338 468 334 c 1
 589 138 l 1
 523 138 l 1
 404 334 l 1
 320 334 l 1
 320 138 l 1
 261 138 l 1
 261 576 l 1
 427 576 l 2
 505 576 569 552 569 455 c 0
508 457 m 0
 508 519 461 527 414 527 c 2
 320 527 l 1
 320 383 l 1
 387 383 l 2
 451 383 508 384 508 457 c 0
28 358 m 256
 28 569 203 726 396 726 c 256
 602 726 765 556 765 358 c 256
 765 159 601 -10 396 -10 c 256
 202 -10 28 147 28 358 c 256
87 358 m 256
 87 169 233 40 396 40 c 256
 567 40 706 174 706 358 c 256
 706 542 567 676 396 676 c 256
 231 676 87 545 87 358 c 256
EndSplineSet
EndChar
StartChar: macron
Encoding: 175 175 113
Width: 248
VWidth: 1473
Flags: W
HStem: 691 50<-43 290>
VStem: -43 333<691 741 691 741 691 691>
Fore
-43 741 m 1
 290 741 l 1
 290 691 l 1
 -43 691 l 1
 -43 741 l 1
EndSplineSet
EndChar
StartChar: degree
Encoding: 176 176 114
Width: 447
VWidth: 1473
Flags: W
HStem: 492 49<156.523 292.072> 772 49<156.138 290.574>
VStem: 60 52<586.42 726.685> 336 51<586.843 726.241>
Fore
336 657 m 0
 336 723.2 291.2 772 224 772 c 256
 156.8 772 112 723.2 112 657 c 0
 112 590.2 156.8 541 224 541 c 256
 291.2 541 336 590.2 336 657 c 0
60 657 m 256
 60 752.677 139.245 821 224 821 c 256
 311.478 821 387 749.97 387 657 c 256
 387 561.611 310.161 492 224 492 c 256
 141.014 492 60 558.476 60 657 c 256
EndSplineSet
EndChar
StartChar: plusminus
Encoding: 177 177 115
Width: 671
VWidth: 1473
Flags: W
HStem: 0 60<44 628> 315 61<44 305 367 628> 562 20G<305 367>
VStem: 305 62<108 315 376 582>
Fore
305 582 m 1
 367 582 l 1
 367 376 l 1
 628 376 l 1
 628 315 l 1
 367 315 l 1
 367 108 l 1
 305 108 l 1
 305 315 l 1
 44 315 l 1
 44 376 l 1
 305 376 l 1
 305 582 l 1
44 60 m 1
 628 60 l 1
 628 0 l 1
 44 0 l 1
 44 60 l 1
EndSplineSet
EndChar
StartChar: twosuperior
Encoding: 178 178 116
Width: 340
VWidth: 1473
Flags: W
HStem: 289 45<72 317> 595 21G<28 80.5> 682 44<113.085 244.95>
VStem: 28 46<604.422 672.546> 267 51<544.364 660.169>
Fore
267 601 m 0
 267 650 238 682 186 682 c 0
 125 682 87 653 74 595 c 1
 28 603 l 1
 43 676 95 726 183 726 c 256
 266 726 318 679 318 597 c 0
 318 546 288 509 229 468 c 0
 203 450 176 432 101 372 c 0
 84 358 74 345 72 334 c 1
 317 334 l 1
 317 289 l 1
 22 289 l 1
 22 323 l 2
 22 351 29 385 143 463 c 0
 260 539 267 568 267 601 c 0
EndSplineSet
EndChar
StartChar: threesuperior
Encoding: 179 179 117
Width: 359
VWidth: 1473
Flags: W
HStem: 284 43<115.259 258.919> 495 44<118 245> 682 44<105.027 250.159>
VStem: 271 52<564.562 660.989> 286 51<353.577 466.009>
Fore
256 519 m 1xf0
 306 504 337 473 337 410 c 0
 337 309 254 284 178 284 c 0
 140 284 57 291 22 368 c 1
 60 392 l 1
 86 348 111 327 181 327 c 0
 271 327 286 377 286 410 c 0xe8
 286 461 253 495 161 495 c 2
 118 495 l 1
 118 539 l 1
 153 539 l 2
 241 539 271 570 271 617 c 0
 271 658 230 682 186 682 c 0
 131 682 108 672 81 632 c 1
 44 656 l 1
 63 681 100 726 183 726 c 0
 247 726 323 695 323 620 c 0
 323 554 296 534 256 519 c 1xf0
EndSplineSet
EndChar
StartChar: acute
Encoding: 180 180 118
Width: 248
VWidth: 1473
Flags: W
HStem: 647 154<110 265 265 265>
Fore
265 801 m 1
 110 647 l 1
 53 647 l 1
 178 801 l 1
 265 801 l 1
EndSplineSet
EndChar
StartChar: mu
Encoding: 181 181 119
Width: 623
VWidth: 1473
Flags: W
HStem: -206 21G<93 159> -12 55<200.377 353.747> 562 20G<93 159 463 530>
VStem: 93 66<-206 15 87.5954 582> 463 67<0 93 155 582>
Fore
159 192 m 2
 159 68 210 43 277 43 c 0
 343.265 43 382.925 80.6479 463 155 c 1
 463 582 l 1
 530 582 l 1
 530 0 l 1
 463 0 l 1
 463 93 l 1
 384 11 338 -12 265 -12 c 0
 220 -12 184 -3 159 15 c 1
 159 -206 l 1
 93 -206 l 1
 93 582 l 1
 159 582 l 1
 159 192 l 2
EndSplineSet
EndChar
StartChar: paragraph
Encoding: 182 182 120
Width: 559
VWidth: 1473
Flags: W
HStem: 759 50<305 423 479 563>
VStem: 18 287<500.071 695.057> 249 56<-90 377> 423 56<-90 759>
Fore
18 589 m 0xd0
 18 735 114 809 267 809 c 2
 563 809 l 1
 563 759 l 1
 479 759 l 1
 479 -90 l 1
 423 -90 l 1
 423 759 l 1
 305 759 l 1
 305 -90 l 1
 249 -90 l 1
 249 377 l 1xb0
 123 377 18 468 18 589 c 0xd0
EndSplineSet
EndChar
StartChar: periodcentered
Encoding: 183 183 121
Width: 310
VWidth: 1473
Flags: W
HStem: 236 112<111.958 198.511>
VStem: 99 112<248.877 335.475>
Fore
99 292 m 256
 99 323.742 127.358 348 155 348 c 0
 183.711 348 211 324.126 211 292 c 256
 211 258.76 184.162 236 155 236 c 0
 128.4 236 99 258.4 99 292 c 256
EndSplineSet
EndChar
StartChar: cedilla
Encoding: 184 184 122
Width: 248
VWidth: 1473
Flags: W
HStem: -233 46<61.8663 149.215> -97 45<83.2677 136.556> -20 20G<91.8064 149>
VStem: 155 70<-178.643 -103.853>
Fore
225 -146 m 0
 225 -206 150 -233 108 -233 c 0
 67 -233 30 -224 0 -211 c 1
 15 -171 l 1
 60.2503 -184.712 67.8 -187 81 -187 c 0
 142 -187 155 -169 155 -143 c 256
 155 -105 124 -97 105 -97 c 0
 86 -97 70 -100 56 -106 c 1
 40 -93 l 1
 106 0 l 1
 149 0 l 1
 100 -56 l 1
 103 -59 l 1
 110 -54 121 -52 137 -52 c 0
 192 -52 225 -87 225 -146 c 0
EndSplineSet
EndChar
StartChar: onesuperior
Encoding: 185 185 123
Width: 387
VWidth: 1473
Flags: W
HStem: 289 45<99 171 222 299>
VStem: 88 211<334 657 780 857> 171 51<334 676>
Fore
99 289 m 1xc0
 99 334 l 1
 171 334 l 1
 171 676 l 1xa0
 88 657 l 1
 88 692 l 1xc0
 183 726 l 1
 222 726 l 1
 222 334 l 1xa0
 299 334 l 1
 299 289 l 1
 99 289 l 1xc0
EndSplineSet
EndChar
StartChar: ordmasculine
Encoding: 186 186 124
Width: 304
VWidth: 1473
Flags: W
HStem: 407 45<94.5039 210.547> 681 45<95.2204 210.934>
VStem: 15 54<477.925 654.869> 236 54<477.745 655.346>
Fore
153 681 m 256
 102.6 681 69 656.261 69 566 c 256
 69 475.981 102.6 452 153 452 c 256
 200.796 452 236 472.757 236 566 c 256
 236 657.189 202.8 681 153 681 c 256
15 566 m 256
 15 645.741 42.6 726 153 726 c 256
 262.6 726 290 645.252 290 566 c 256
 290 487.844 262.6 407 153 407 c 256
 42.6 407 15 487.306 15 566 c 256
EndSplineSet
EndChar
StartChar: guillemotright
Encoding: 187 187 125
Width: 559
VWidth: 1473
Flags: W
HStem: 119 344<93 165 93 93>
VStem: 93 374<289 463 463 463>
Fore
233 289 m 1
 93 463 l 1
 165 463 l 1
 302 289 l 1
 165 119 l 1
 93 119 l 1
 233 289 l 1
398 289 m 1
 259 463 l 1
 333 463 l 1
 467 289 l 1
 333 119 l 1
 259 119 l 1
 398 289 l 1
EndSplineSet
EndChar
StartChar: onequarter
Encoding: 188 188 126
Width: 878
VWidth: 1473
Flags: W
HStem: 0 21G<181 250.929 667 720> 103 43<514 667 720 790> 289 45<97 169 222 298>
VStem: 169 53<334 676> 667 53<0 103 146 370>
Fore
514 146 m 1
 667 146 l 1
 667 370 l 1
 664 370 l 1
 514 146 l 1
461 152 m 1
 654 430 l 1
 720 430 l 1
 720 146 l 1
 790 146 l 1
 790 103 l 1
 720 103 l 1
 720 0 l 1
 667 0 l 1
 667 103 l 1
 461 103 l 1
 461 152 l 1
97 289 m 1
 97 334 l 1
 169 334 l 1
 169 676 l 1
 88 657 l 1
 88 692 l 1
 181 726 l 1
 222 726 l 1
 222 334 l 1
 298 334 l 1
 298 289 l 1
 97 289 l 1
620 726 m 1
 678 726 l 1
 239 -10 l 1
 181 -10 l 1
 620 726 l 1
EndSplineSet
LCarets2: 2 0 0 
Ligature2: "'frac' Diagonal Fractions in Latin lookup 1 subtable" one fraction four
Ligature2: "'frac' Diagonal Fractions in Latin lookup 1 subtable" one slash four
EndChar
StartChar: onehalf
Encoding: 189 189 127
Width: 873
VWidth: 1473
Flags: W
HStem: 0 43<541 784> 289 45<97 169 222 298> 392 44<580.092 710.693>
VStem: 169 53<334 676> 489 52<43 54.0999 312 351.665> 732 53<255.615 371.579>
Fore
97 289 m 1
 97 334 l 1
 169 334 l 1
 169 676 l 1
 88 657 l 1
 88 692 l 1
 181 726 l 1
 222 726 l 1
 222 334 l 1
 298 334 l 1
 298 289 l 1
 97 289 l 1
732 311 m 0
 732 362 703 392 654 392 c 0
 593 392 556 363 541 306 c 1
 495 312 l 1
 511 388 565 436 651 436 c 256
 734 436 785 390 785 308 c 0
 785 208 684 183 568 82 c 0
 551 68 542 54 541 43 c 1
 784 43 l 1
 784 0 l 1
 489 0 l 1
 489 32 l 2
 489 58 490 90 610 175 c 0
 726 248 732 284 732 311 c 0
608 726 m 1
 664 726 l 1
 227 -10 l 1
 168 -10 l 1
 608 726 l 1
EndSplineSet
LCarets2: 2 0 0 
Ligature2: "'frac' Diagonal Fractions in Latin lookup 1 subtable" one fraction two
Ligature2: "'frac' Diagonal Fractions in Latin lookup 1 subtable" one slash two
EndChar
StartChar: threequarters
Encoding: 190 190 128
Width: 876
VWidth: 1473
Flags: W
HStem: 0 21G<196 266.848 666 719> 103 43<513 666 719 788> 284 43<105.23 267.332> 495 44<127 253.089> 682 44<131.925 260.205>
VStem: 280 51<564.029 661.479> 295 51<354.377 464.997> 666 53<0 103 146 370>
Fore
513 146 m 1xf9
 666 146 l 1
 666 370 l 1
 663 370 l 1
 513 146 l 1xf9
460 152 m 1
 653 430 l 1
 719 430 l 1
 719 146 l 1
 788 146 l 1
 788 103 l 1
 719 103 l 1
 719 0 l 1
 666 0 l 1
 666 103 l 1
 460 103 l 1
 460 152 l 1
265 519 m 1
 328 499 346 458 346 410 c 0
 346 309.2 262.609 284 187 284 c 0
 110 284 57 312 29 368 c 1
 71 392 l 1
 93 350 119 327 187 327 c 0
 279 327 295 377 295 410 c 0xfb
 295 476 237 495 169 495 c 2
 127 495 l 1
 127 539 l 1
 162 539 l 2
 250 539 280 570 280 617 c 0
 280 658 240 682 196 682 c 0
 156 682 125 683 87 632 c 1
 52 656 l 1
 71 681 107 726 190 726 c 0
 242 726 331 705 331 620 c 0xfd
 331 555 305 535 265 519 c 1
635 726 m 1
 691 726 l 1
 255 -10 l 1
 196 -10 l 1
 635 726 l 1
EndSplineSet
LCarets2: 2 0 0 
Ligature2: "'frac' Diagonal Fractions in Latin lookup 1 subtable" three fraction four
Ligature2: "'frac' Diagonal Fractions in Latin lookup 1 subtable" three slash four
EndChar
StartChar: questiondown
Encoding: 191 191 129
Width: 434
VWidth: 1473
Flags: W
HStem: -239 62<148.336 288.759> 482 100<211 305>
VStem: 34 74<-138.383 13.0791> 211 94<482 582> 224 60<205.43 336>
Fore
108 -71 m 0xe8
 108 -156 176 -177 220 -177 c 0
 286 -177 319 -130 330 -108 c 2
 348 -71 l 1
 404 -99 l 1
 363 -206 292 -239 218 -239 c 0
 123 -239 34 -176 34 -55 c 0
 34 50 113 85 194 192 c 0
 214 217 224 248 224 283 c 2
 224 336 l 1
 284 336 l 1
 284 255 l 2
 284 172 209 131 136 24 c 0
 117 -4 108 -36 108 -71 c 0xe8
305 582 m 1xf0
 305 482 l 1
 211 482 l 1
 211 582 l 1
 305 582 l 1xf0
EndSplineSet
EndChar
StartChar: AE
Encoding: 198 198 136
Width: 956
VWidth: 1473
Flags: W
HStem: 0 62<579 922> 208 65<252 513> 351 61<579 882> 654 62<464 513 579 927>
VStem: 513 66<62 208 273 351 412 654>
Fore
579 62 m 1
 922 62 l 1
 922 0 l 1
 513 0 l 1
 513 208 l 1
 222 208 l 1
 109 0 l 1
 29 0 l 1
 426 716 l 1
 927 716 l 1
 927 654 l 1
 579 654 l 1
 579 412 l 1
 882 412 l 1
 882 351 l 1
 579 351 l 1
 579 62 l 1
513 273 m 1
 513 656 l 1
 464 656 l 1
 252 273 l 1
 513 273 l 1
EndSplineSet
EndChar
StartChar: Eth
Encoding: 208 208 146
Width: 687
VWidth: 1473
Flags: W
HStem: 0 62<162 463.303> 334 59<-29 88 162 385> 654 62<162 355 355 461.609>
VStem: 88 74<62 334 393 654> 555 74<166.842 543.823>
Fore
629 348 m 0
 629 122 569 -0 355 0 c 2
 88 0 l 1
 88 334 l 1
 -29 334 l 1
 -29 393 l 1
 88 393 l 1
 88 716 l 1
 355 716 l 2
 574 716 629 579 629 348 c 0
555 348 m 0
 555 574 515 654 355 654 c 2
 162 654 l 1
 162 393 l 1
 385 393 l 1
 385 334 l 1
 162 334 l 1
 162 62 l 1
 355 62 l 2
 515 62 555 141 555 348 c 0
EndSplineSet
EndChar
StartChar: multiply
Encoding: 215 215 153
Width: 573
VWidth: 1473
Flags: W
HStem: 565 20G<58 97.7156 475.19 515>
VStem: 37 499<127 127 127 127>
Fore
327 336 m 1
 536 127 l 1
 495 85 l 1
 286 295 l 1
 78 85 l 1
 37 127 l 1
 246 336 l 1
 37 544 l 1
 78 585 l 1
 286 374 l 1
 495 585 l 1
 536 544 l 1
 327 336 l 1
EndSplineSet
EndChar
StartChar: Oslash
Encoding: 216 216 154
Width: 695
VWidth: 1473
Flags: W
HStem: -9 69<233.379 458.668> 654 66<235.34 429.441>
VStem: 59 77<172.099 529.591> 560 76<177.732 531.613>
Fore
348 -9 m 0
 263 -9 202 11 156 50 c 1
 68 -88 l 1
 3 -88 l 1
 118 93 l 1
 90 133 59 202 59 349 c 0
 59 638.575 174.6 720 348 720 c 0
 408 720 457 710 496 689 c 1
 582 819 l 1
 656 819 l 1
 547 654 l 1
 586 615 636 539 636 349 c 0
 636 76 521 -9 348 -9 c 0
348 60 m 0
 518 60 560 154 560 349 c 0
 560 507 536 559 508 594 c 1
 194 109 l 1
 227 76 278 60 348 60 c 0
348 654 m 0
 181 654 136 569 136 349 c 0
 136 245 147 194 162 161 c 1
 461 632 l 1
 432 647 394 654 348 654 c 0
EndSplineSet
EndChar
StartChar: Thorn
Encoding: 222 222 160
Width: 655
VWidth: 1473
Flags: W
HStem: 0 21G<112 186> 131 61<186 459.093> 550 61<186 454.353> 696 20G<112 186>
VStem: 112 74<0 131 192 550 611 716> 526 75<259.958 482.102>
Fore
601 371 m 0
 601 209.723 524.566 131 355 131 c 2
 186 131 l 1
 186 0 l 1
 112 0 l 1
 112 716 l 1
 186 716 l 1
 186 611 l 1
 355 611 l 2
 527.736 611 601 532.034 601 371 c 0
526 371 m 256
 526 495.148 476.945 550 355 550 c 2
 186 550 l 1
 186 192 l 1
 355 192 l 2
 462.774 192 526 231.273 526 371 c 256
EndSplineSet
EndChar
StartChar: germandbls
Encoding: 223 223 161
Width: 559
VWidth: 1473
Flags: W
HStem: -12 55<255.687 403.215> 404 53<255 344.94> 754 55<201.159 352.994>
VStem: 85 68<0 701.943> 407 67<516.497 700.917> 458 66<107.767 321.287>
Fore
271 754 m 0xf8
 176.6 754 153 674.323 153 601 c 2
 153 0 l 1
 85 0 l 1
 85 597 l 2
 85 693.015 124.6 809 283 809 c 0
 397.6 809 474 721.438 474 608 c 0xf8
 474 563.955 461.961 486.26 373 440 c 1
 491.971 403.515 524 308.408 524 225 c 0
 524 87.1043 463.396 -12 333 -12 c 0
 297.748 -12 255.012 1.27896 231 15 c 1
 255 65 l 1
 269.338 56.9347 304.2 43 337 43 c 0
 423.096 43 458 121.592 458 217 c 0xf4
 458 322.46 417.4 404 255 404 c 1
 255 457 l 1
 381.514 462.271 407 530.904 407 611 c 0
 407 681.8 379.8 754 271 754 c 0xf8
EndSplineSet
EndChar
StartChar: ae
Encoding: 230 230 168
Width: 917
VWidth: 1473
Flags: W
HStem: -12 55<135.767 276.458 552.246 728.682> 289 54<194.227 399 466 788> 541 53<186.996 361.132 548.543 712.414>
VStem: 29 62<87.6289 219.962> 399 67<149.145 289 346 447.63>
Fore
451 489 m 1
 513 583 580 594 631 594 c 0
 811 594 856 431 856 289 c 1
 466 289 l 1
 466 159 502 43 638 43 c 0
 739 43 779 99 807 159 c 1
 862 131 l 1
 820 41 759 -12 632 -12 c 0
 574 -12 504 1 443 99 c 1
 343 -7 254 -12 189 -12 c 0
 98 -12 29 56 29 156 c 0
 29 308 149 346 402 346 c 1
 402 423 l 2
 402 517 349 541 268 541 c 0
 200 541 145 502 99 435 c 1
 47 463 l 1
 120 580 225 594 271 594 c 0
 332 594 416 580 451 489 c 1
200 43 m 0
 242 43 320 46 399 138 c 1
 399 292 l 1
 221 292 91 265 91 158 c 0
 91 91 140 43 200 43 c 0
788 343 m 1
 777 467 740 541 628 541 c 256
 510 541 466 437 466 343 c 1
 788 343 l 1
EndSplineSet
EndChar
StartChar: eth
Encoding: 240 240 178
Width: 559
VWidth: 1473
Flags: W
HStem: -12 55<194.007 365.993> 541 53<194.007 344.879> 789 20G<214.333 282.119 408.951 461>
VStem: 41 67<146.404 436.586> 452 67<146.072 434.648>
Fore
452 292 m 256
 452 475.344 383.2 541 280 541 c 256
 176.8 541 108 475.411 108 292 c 256
 108 107.38 176.8 43 280 43 c 256
 383.2 43 452 107.38 452 292 c 256
393 572 m 1
 371.02 610.466 346.621 648.803 317 681 c 1
 203 620 l 1
 171 664 l 1
 275 719 l 1
 261.372 733.429 237.926 755.207 194 779 c 1
 255 809 l 1
 295 779.5 l 2
 308.333 769.833 321 759.333 333 748 c 1
 446 809 l 1
 479 765 l 1
 374 709 l 1
 485.029 592.924 519 444.682 519 292 c 0
 519 148.087 471.2 -12 280 -12 c 0
 88.8 -12 41 149.581 41 292 c 256
 41 432.312 88.8 594 280 594 c 0
 323.333 594 360 585.667 390 569 c 1
 393 572 l 1
EndSplineSet
EndChar
StartChar: divide
Encoding: 247 247 185
Width: 592
VWidth: 1473
Flags: W
HStem: 75 108<253.336 339.185> 303 62<52 541 52 541 52 52> 485 107<253.266 339.334>
VStem: 242 109<87.1999 171.478 496.135 580.136>
Fore
52 303 m 1
 52 365 l 1
 541 365 l 1
 541 303 l 1
 52 303 l 1
242 539 m 0
 242 566.463 265.361 592 296 592 c 256
 326.587 592 351 566.456 351 539 c 0
 351 507.793 324.349 485 296 485 c 256
 264.843 485 242 510.562 242 539 c 0
242 128 m 0
 242 156.369 264.812 183 296 183 c 256
 327.119 183 351 156.349 351 128 c 0
 351 101.631 326.103 75 296 75 c 256
 263.097 75 242 104.308 242 128 c 0
EndSplineSet
EndChar
StartChar: oslash
Encoding: 248 248 186
Width: 559
VWidth: 1473
Flags: W
HStem: -12 55<185.66 372.458> 541 53<188.958 373.413>
VStem: 41 67<132.197 443.664> 452 67<137.855 406.551>
Fore
280 541 m 0
 144 541 108 447 108 292 c 0
 108 188 121 149 136 119 c 1
 386 510 l 1
 361 531 326 541 280 541 c 0
168 77 m 1
 195 54 233 43 280 43 c 0
 383 43 452 88 452 292 c 0
 452 362 446 425 420 468 c 1
 168 77 l 1
280 -12 m 0
 219 -12 172 0 136 25 c 1
 63 -88 l 1
 3 -88 l 1
 99 62 l 1
 56 114 41 195 41 292 c 0
 41 476 98 594 280 594 c 0
 336 594 382 583 418 560 c 1
 499 687 l 1
 560 687 l 1
 457 526 l 1
 486 494 519 432 519 292 c 0
 519 55 423 -12 280 -12 c 0
EndSplineSet
EndChar
StartChar: thorn
Encoding: 254 254 192
Width: 623
VWidth: 1473
Flags: W
HStem: -206 21G<103 171> -12 55<262.741 420.69> 541 53<266.215 420.664> 789 20G<103 171>
VStem: 103 68<-206 75 147 435 492 809> 516 66<158 422.481>
Fore
352 -12 m 0
 297 -12 245 -4 171 75 c 1
 171 -206 l 1
 103 -206 l 1
 103 809 l 1
 171 809 l 1
 171 492 l 1
 172 492 l 1
 208 547 260 594 349 594 c 0
 501 594 582 444 582 289 c 0
 582 35 444 -12 352 -12 c 0
345 541 m 0
 281 541 250 516 171 435 c 1
 171 147 l 1
 204 96 275 43 334 43 c 0
 480 43 516 173 516 299 c 0
 516 407 470 541 345 541 c 0
EndSplineSet
EndChar
StartChar: dotlessi
Encoding: 305 305 194
Width: 248
VWidth: 1473
Flags: W
HStem: 0 21G<91 158> 562 20G<91 158>
VStem: 91 67<0 582>
Fore
158 0 m 1
 91 0 l 1
 91 582 l 1
 158 582 l 1
 158 0 l 1
EndSplineSet
EndChar
StartChar: Lslash
Encoding: 321 321 195
Width: 559
VWidth: 1473
Flags: W
HStem: 0 60<186 547> 789 20G<112 186>
VStem: 112 74<60 362 463 809>
Fore
186 393 m 1
 186 60 l 1
 547 60 l 1
 547 0 l 1
 112 0 l 1
 112 362 l 1
 18 324 l 1
 18 395 l 1
 112 433 l 1
 112 809 l 1
 186 809 l 1
 186 463 l 1
 377 539 l 1
 377 468 l 1
 186 393 l 1
EndSplineSet
EndChar
StartChar: lslash
Encoding: 322 322 196
Width: 248
VWidth: 1473
Flags: W
HStem: 0 21G<91 158> 789 20G<91 158>
VStem: 91 67<0 374 480 809>
Fore
158 0 m 1
 91 0 l 1
 91 374 l 1
 1 327 l 1
 1 399 l 1
 91 445 l 1
 91 809 l 1
 158 809 l 1
 158 480 l 1
 247 526 l 1
 247 455 l 1
 158 408 l 1
 158 0 l 1
EndSplineSet
EndChar
StartChar: OE
Encoding: 338 338 197
Width: 969
VWidth: 1473
Flags: W
HStem: -9 68<235.472 427.857> 0 62<352.135 417.715 592 935> 351 61<592 896> 656 60<235.252 424.214 592 940>
VStem: 59 74<179.142 530.68> 519 73<81 351 412 639>
Fore
348 59 m 0xbc
 416 59 488 69 519 81 c 1
 519 639 l 1
 486 646 416 656 348 656 c 0
 193 656 133 587 133 349 c 0
 133 131 194 59 348 59 c 0xbc
348 720 m 0
 416 720 468 716 519 716 c 2
 940 716 l 1
 940 654 l 1
 592 654 l 1
 592 412 l 1
 896 412 l 1
 896 351 l 1
 592 351 l 1
 592 62 l 1
 935 62 l 1
 935 0 l 1
 519 0 l 2x7c
 476 0 437 -9 348 -9 c 0
 174.6 -9 59 79.4207 59 349 c 0
 59 638.575 174.6 720 348 720 c 0
EndSplineSet
EndChar
StartChar: oe
Encoding: 339 339 198
Width: 932
VWidth: 1473
Flags: W
HStem: -12 55<191.234 353.566 586.846 753.395> 289 54<504 819> 541 53<191.234 354.217 580.165 734.831>
VStem: 41 67<146.857 436.204> 436 68<148.2 289 343 435.371>
Fore
275 541 m 0
 175 541 108 475 108 292 c 256
 108 108 175 43 275 43 c 0
 400 43 436 158 436 292 c 256
 436 416 404 541 275 541 c 0
467 467 m 1
 490 522 544 594 660 594 c 0
 832 594 885 446 885 289 c 1
 504 289 l 1
 504 168 537 43 667 43 c 0
 753 43 789 85 837 159 c 1
 893 131 l 1
 825 21 761 -12 661 -12 c 0
 595 -12 517 8 466 116 c 1
 419 9 346 -12 275 -12 c 0
 88 -12 41 151 41 292 c 256
 41 431 88 594 275 594 c 0
 342 594 424 573 467 467 c 1
819 343 m 1
 796 512 723 541 659 541 c 0
 597 541 517 513 504 343 c 1
 819 343 l 1
EndSplineSet
EndChar
StartChar: florin
Encoding: 402 402 204
Width: 564
VWidth: 1473
Flags: W
HStem: -200 59<44.6019 139.163> 423 51<110 256 336 466> 738 60<409.868 496.697 492.862 500.532 500.532 510>
VStem: 29 491<-197 793 -161.138 -153.468> 264 72<480.519 675.933>
Fore
38 -133 m 1xf0
 59 -140 68 -141 75 -141 c 0
 130.916 -141 178.185 -119.677 203 43 c 2
 256 423 l 1
 110 423 l 1
 110 474 l 1
 264 474 l 1xe8
 284 694 341 798 457 798 c 0
 480 798 501 796 520 793 c 1xf0
 510 735 l 1
 497 738 483 738 476 738 c 0
 353 738 355 594 336 474 c 1xe8
 466 474 l 1
 466 423 l 1
 329 423 l 1
 267 -13 l 2
 252 -109 193 -200 72 -200 c 0
 55 -200 45 -200 29 -197 c 1
 38 -133 l 1xf0
EndSplineSet
EndChar
StartChar: circumflex
Encoding: 710 710 205
Width: 248
VWidth: 1473
Flags: W
HStem: 647 154<87 290 87 87>
VStem: -43 333<647 647 647 647>
Fore
290 647 m 1
 215 647 l 1
 125 760 l 1
 32 647 l 1
 -43 647 l 1
 87 801 l 1
 162 801 l 1
 290 647 l 1
EndSplineSet
EndChar
StartChar: caron
Encoding: 711 711 206
Width: 248
VWidth: 1473
Flags: W
HStem: 659 154<-43 162 -43 -43>
VStem: -43 333<813 813 813 813>
Fore
-43 813 m 1
 32 813 l 1
 125 700 l 1
 215 813 l 1
 290 813 l 1
 162 659 l 1
 87 659 l 1
 -43 813 l 1
EndSplineSet
EndChar
StartChar: breve
Encoding: 728 728 207
Width: 248
VWidth: 1473
Flags: W
HStem: 666 50<52.7036 197.172> 666 141
VStem: -37 323<720 807 807 807 807 807> -37 50<743.93 802.99> 236 50<747.966 807>
Fore
13 807 m 1x50
 20 777 35 716 125 716 c 0x90
 214 716 230 780 236 807 c 1x58
 286 807 l 1x60
 279 720 221 666 125 666 c 256xa0
 30 666 -30 720 -37 807 c 1x60
 13 807 l 1x50
EndSplineSet
EndChar
StartChar: dotaccent
Encoding: 729 729 208
Width: 248
VWidth: 1473
Flags: W
HStem: 659 106<87 161>
VStem: 87 74<659 765>
Fore
161 765 m 1
 161 659 l 1
 87 659 l 1
 87 765 l 1
 161 765 l 1
EndSplineSet
EndChar
StartChar: ring
Encoding: 730 730 209
Width: 248
VWidth: 1473
Flags: W
HStem: 642 39<72.7621 176.363> 828 38<71.8712 178.506>
VStem: 13 37<703.661 806.319> 199 38<703.443 807.312>
Fore
13 754 m 256
 13 819 66 866 125 866 c 0
 182 866 237 820 237 754 c 256
 237 688 182 642 125 642 c 0
 66 642 13 689 13 754 c 256
199 754 m 0
 199 802 162 828 125 828 c 0
 84 828 50 798 50 754 c 0
 50 716 82 681 125 681 c 0
 167 681 199 716 199 754 c 0
EndSplineSet
EndChar
StartChar: ogonek
Encoding: 731 731 210
Width: 248
VWidth: 1473
Flags: W
HStem: -231 54<78.3732 176.624>
VStem: 3 68<-158.958 -78.1406>
Fore
267 -172 m 1
 250 -183 172 -231 108 -231 c 0
 57 -231 3 -213 3 -141 c 0
 3 -44 127 -1 240 21 c 1
 240 12 l 1
 181 -16 71 -50 71 -131 c 0
 71 -149 79 -177 131 -177 c 0
 154 -177 183 -169 247 -134 c 1
 267 -172 l 1
EndSplineSet
EndChar
StartChar: tilde
Encoding: 732 732 211
Width: 248
VWidth: 1473
Flags: W
HStem: 664 55<134.345 245.829> 664 109<-19 -9 258 261.314 -9 299 299 299> 715 54<4.00831 115.151>
VStem: 258 41<752.245 773>
Fore
299 773 m 1x50
 286 681 240 664 200 664 c 0x90
 157.285 664 90.7746 715 43 715 c 0
 1 715 -8 668 -9 659 c 1
 -52 659 l 1
 -49 700 -19 769 47 769 c 0x30
 100.646 769 153.883 719 208 719 c 0x90
 248 719 257 763 258 773 c 1
 299 773 l 1x50
EndSplineSet
EndChar
StartChar: hungarumlaut
Encoding: 733 733 212
Width: 248
VWidth: 1473
Flags: W
HStem: 647 154<46 183 183 183>
Fore
183 801 m 1
 46 647 l 1
 -9 647 l 1
 96 801 l 1
 183 801 l 1
337 801 m 1
 183 647 l 1
 127 647 l 1
 250 801 l 1
 337 801 l 1
EndSplineSet
EndChar
StartChar: uni0E01
Encoding: 3585 3585 214
Width: 618
VWidth: 1473
Flags: W
HStem: 0 21G<97 156 479 538> 392 47<183.044 247.929> 547 51<203.582 417.584>
VStem: 66 58<442.496 495.91> 97 59<0 363.585> 479 59<0 481.141>
Fore
66 470 m 0xf4
 66 502 161 598 311 598 c 0
 440 598 538 552 538 367 c 2
 538 0 l 1
 479 0 l 1
 479 367 l 2
 479 509 429 547 311 547 c 0
 209 547 124 489 124 473 c 0xf4
 124 460 165 420 177 420 c 0
 197 420 205 439 228 439 c 0
 241 439 264 392 249 392 c 0
 193 392 156 375 156 262 c 2
 156 0 l 1
 97 0 l 1
 97 262 l 2xec
 97 330 108 359 144 395 c 1
 126 404 66 449 66 470 c 0xf4
EndSplineSet
EndChar
StartChar: uni0E02
Encoding: 3586 3586 215
Width: 587
VWidth: 1473
Flags: W
HStem: -9 52<225.274 419.214> 382 53<131.771 192.465> 544 48<140.446 272.672>
VStem: 74 53<449.411 529.667> 136 58<74.5419 239.594> 209 52<442.468 480> 296 53<422.109 520.644> 446 61<71.2403 216.677 216.677 589>
Fore
320 43 m 0
 428 43 449 76 449 144 c 0
 449 188 446 232 446 290 c 2
 446 589 l 1
 507 589 l 1
 507 166 l 2
 507 67 472 -9 318 -9 c 0
 228.97 -9 136 21 136 141 c 2
 136 214 l 2
 136 300 199 308 271 384 c 0
 288 401 296 426 296 458 c 0
 296 515 266 544 205 544 c 0
 149 544 127 519 127 482 c 0
 127 461 135 435 165 435 c 0
 180 435 209 444 209 480 c 2
 209 523 l 1
 234 523 l 1
 261 480 l 1
 261 422 225 382 165 382 c 256
 92 382 74 442 74 482 c 0
 74 548 136 592 211 592 c 0
 283 592 349 551 349 463 c 0
 349 420 341 388 325 366 c 0
 309 344 291 326 272 312 c 2
 218 271 l 2
 202 258 194 239 194 214 c 2
 194 137 l 2
 194 85 216 43 320 43 c 0
EndSplineSet
EndChar
StartChar: uni0E03
Encoding: 3587 3587 216
Width: 608
VWidth: 1473
Flags: W
HStem: -9 52<229.467 432.299> 390 52<108.03 183.887> 542 52<108.396 181.742> 580 20<274.054 309 467 527>
VStem: 52 50<447.159 536.997> 143 59<70.8035 272.43> 315 47<396.702 533.836> 467 60<78.9415 220.677 220.677 589>
Fore
143 214 m 2xdf
 143 359 315 331 315 466 c 0
 315 511 292 536 289 539 c 1
 228 468 l 1
 174.773 528.831 168.724 542 143 542 c 0
 118 542 102 522 102 494 c 0
 102 464 114 442 144 442 c 0
 164 442 182 461 193 473 c 1
 208 455 l 1
 199 421 l 1
 181 400 162 390 143 390 c 0
 84 390 52 436 52 492 c 0
 54 580 117 594 143 594 c 0xef
 178 594 213 559 231 526 c 1
 290 600 l 1
 328 582 362 528 362 468 c 0
 362 297 202 330 202 214 c 2
 202 130 l 2
 202 60 247 43 331 43 c 0
 447 43 470 87 470 152 c 0
 470 193 467 235 467 290 c 2
 467 589 l 1
 527 589 l 1
 527 174 l 2
 527 64 475 -9 330 -9 c 0
 228 -9 143 20 143 134 c 2
 143 214 l 2xdf
EndSplineSet
EndChar
StartChar: uni0E04
Encoding: 3588 3588 217
Width: 626
VWidth: 1473
Flags: W
HStem: 0 21G<106 169 486 545> 202 51<300.848 371.993> 355 52<279.061 373.563> 547 51<216.23 425.768>
VStem: 74 59<277.289 461.444> 100 68<2.16211 133.717> 382 51<263.224 345.698> 486 59<0 483.797>
Fore
309 598 m 0xfb
 483 598 545 536 545 348 c 2
 545 0 l 1
 486 0 l 1
 486 333 l 2
 486 493 465 547 309 547 c 0
 229 547 133 509 133 357 c 0xfb
 133 311 145 252 156 225 c 1
 177 278 225 407 334 407 c 0
 380 407 433 369 433 305 c 0
 433 245 386 202 330 202 c 0
 303 202 279 212 259 231 c 1
 253 277 l 1
 268 295 l 1
 296 268 l 2
 305 258 316 253 329 253 c 0
 360 253 382 277 382 306 c 0
 382 335 360 355 327 355 c 0
 247 355 170 186 168 0 c 1
 110 0 l 2
 102 0 100 4 100 21 c 0xf7
 100 107 145 172 128 190 c 0
 87 242 74 300 74 357 c 0
 74 519 180 598 309 598 c 0xfb
EndSplineSet
EndChar
StartChar: uni0E05
Encoding: 3589 3589 218
Width: 640
VWidth: 1473
Flags: W
HStem: 0 21G<106 169 501 560> 202 51<300.848 371.993> 355 52<279.061 373.563> 578 20G<193 254.226 389.077 477.5>
VStem: 74 59<277.289 477.744> 100 68<2.16211 133.717> 382 51<263.224 345.698> 501 59<0 502.565>
Fore
227 545 m 1xfb
 199 536 133 509 133 357 c 0xfb
 133 311 145 252 156 225 c 1
 177 278 225 407 334 407 c 0
 380 407 433 369 433 305 c 0
 433 245 386 202 330 202 c 0
 303 202 279 212 259 231 c 1
 253 277 l 1
 268 295 l 1
 296 268 l 2
 305 258 316 253 329 253 c 0
 360 253 382 277 382 306 c 0
 382 335 360 355 327 355 c 0
 247 355 170 186 168 0 c 1
 110 0 l 2
 102 0 100 4 100 21 c 0xf7
 100 107 145 172 128 190 c 0
 87 242 74 300 74 357 c 0
 74 536 165 578 221 598 c 1
 324 536 l 1
 418 601 l 1
 537 583 560 497 560 348 c 2
 560 0 l 1
 501 0 l 1
 501 365 l 2
 501 467 499 525 415 547 c 1
 324 485 l 1
 227 545 l 1xfb
EndSplineSet
EndChar
StartChar: uni0E06
Encoding: 3590 3590 219
Width: 692
VWidth: 1473
Flags: W
HStem: -9 53<169.538 226.552> 217 44<196.535 219.767> 390 52<108.03 174.938> 542 52<108.396 189.421> 580 20<289.054 323.5 544 603>
VStem: 52 50<447.159 536.997> 106 53<53.1116 184.119> 230 51<63.0019 176.246 176.246 217> 324 53<398.566 536.228> 544 59<105 160.397 160.397 589>
Fore
603 228 m 2xefc0
 603 0 621 0 600 0 c 2
 542 0 l 1
 515 108 420 211 278 220 c 1
 281 140 l 1
 281 84 l 2
 281 11 249 -9 200 -9 c 0
 162 -9 106 8 106 110 c 0
 106 231 207 257 228 261 c 1
 228 367 324 369 324 466 c 0
 324 495 315 511 302 538 c 1
 243 468 l 1
 185.445 524.545 173.424 542 143 542 c 0
 118 542 102 522 102 494 c 0
 102 464 114 442 144 442 c 0
 158 442 169 446 178 455 c 2
 205 483 l 1
 220 466 l 1
 212 423 l 1
 191 401 168 390 143 390 c 0
 84 390 52 436 52 492 c 0
 54 580 117 594 143 594 c 0xf7c0
 185 594 221 554 246 526 c 1
 305 600 l 1
 342 582 377 527 377 468 c 0
 377 374 286 341 278 262 c 1
 372 259 507 196 548 105 c 1
 546 137 544 201 544 265 c 2
 544 589 l 1
 603 589 l 1
 603 228 l 2xefc0
200 44 m 0
 234 44 230 75 230 136 c 0
 230 161 228 181 228 217 c 1
 207.939 211.1 159 187.081 159 113 c 0
 159 62 184 44 200 44 c 0
EndSplineSet
EndChar
StartChar: uni0E07
Encoding: 3591 3591 220
Width: 550
VWidth: 1473
Flags: W
HStem: -4 47<251.693 362.112> 399 52<309.093 348> 542 53<308.917 391.898>
VStem: 47 423<361 421 361 714.029> 249 53<457.986 534.043> 377 55<46.781 56 56 84.112> 411 59<276.725 524.297>
Fore
432 19 m 0xe4
 432 1 358 -4 317 -4 c 0
 250 -4 195 7 193 21 c 0
 167 172 151 245 47 361 c 0xf0
 37 375 85 404 96 408 c 1
 146 358 203 247 240 55 c 1
 243 48 278 43 309 43 c 256
 324 43 377 46 377 56 c 2xe4
 387 153 l 2
 398 265 411 334 411 411 c 0
 411 499 399 542 351 542 c 0
 324 542 302 524 302 496 c 0
 302 473 318 451 348 451 c 2
 392 451 l 1
 392 426 l 1
 348 399 l 1
 287 399 249 438 249 496 c 0xea
 249 553 290 595 351 595 c 0
 446 595 470 513 470 421 c 0xf0
 470 382 463 317 460 290 c 2
 443 158 l 2
 435 89 432 47 432 19 c 0xe4
EndSplineSet
EndChar
StartChar: uni0E08
Encoding: 3592 3592 221
Width: 601
VWidth: 1473
Flags: W
HStem: -9 47<349.909 431.979> 200 52<184.468 222> 343 53<184.219 264.598> 545 52<240.189 397.251>
VStem: 59 461<408 479 479 767> 124 53<270.18 334.965> 290 52<39.8333 93.6195 93.6195 307.651> 440 54<39.7902 50 50 338> 461 59<166.116 485.261>
Fore
395 -9 m 256xf1
 372 -9 290 -6 290 15 c 0
 292 62 293 105 293 146 c 0
 293 300 266 343 225 343 c 0
 200 343 177 325 177 298 c 0
 177 284 186 252 222 252 c 2
 267 252 l 1
 267 227 l 1
 222 200 l 1
 164 200 124 237 124 298 c 256
 124 358 167 396 225 396 c 0
 319 396 352 307 342 49 c 0
 342 40 378 38 389 38 c 0
 408 38 440 40 440 50 c 0xf7
 440 193 461 327 461 408 c 0xf080
 461 529 350 545 315 545 c 0
 273 545 194 541 116 448 c 0
 106 435 78 457 59 479 c 1
 91 520 197 597 306 597 c 0
 398 597 520 559 520 408 c 0xf8
 520 337 497 194 496 122 c 2
 494 78 l 1
 494 13 l 2
 494 -8 414 -9 395 -9 c 256xf1
EndSplineSet
EndChar
StartChar: uni0E09
Encoding: 3593 3593 222
Width: 642
VWidth: 1473
Flags: W
HStem: -4 53<458.891 545.461> 168 52<136.641 177> 183 47<373.475 447.482> 320 50<137.031 216.314> 545 52<279.141 440.44>
VStem: 78 52<226.807 313.333> 230 54<166.436 307.728> 402 52<53.9574 153.87> 508 59<246.847 481.514> 552 53<55.2245 141.259>
Fore
504 221 m 1xbf40
 508 230 508 252 508 273 c 2
 508 408 l 2
 508 530 387 545 352 545 c 0
 310 545 233 540 155 448 c 0
 143 435 115 458 97 479 c 1
 131 522 239 597 345 597 c 0
 435 597 567 559 567 408 c 2
 567 273 l 2xbf80
 567 259 562 224 544 205 c 1
 599 175 605 129 605 100 c 0
 605 45 584 -4 501 -4 c 256
 453 -4 402 16 402 96 c 0
 402 131 412 151 448 181 c 1
 444 182 439 183 433 183 c 0xbf40
 365 183 275 83 275 0 c 1
 221 0 l 2
 191 0 230 38 230 194 c 2
 230 245 l 2
 230 290 210 320 181 320 c 0
 140 320 130 293 130 271 c 256
 130 248 139 220 177 220 c 2
 217 220 l 1
 217 196 l 1
 177 168 l 1xdf40
 118 168 78 212 78 271 c 256
 78 330 122 370 181 370 c 0
 264 370 284 297 284 256 c 2
 284 194 l 2
 284 188 272 106 268 85 c 1
 303 193 390 230 445 230 c 0
 468 230 490 226 504 221 c 1xbf40
501 49 m 256
 542 49 552 68 552 103 c 0x9f40
 552 134 533 156 495 169 c 1
 484 162 454 143 454 103 c 0
 454 66 465 49 501 49 c 256
EndSplineSet
EndChar
StartChar: uni0E0A
Encoding: 3594 3594 223
Width: 587
VWidth: 1473
Flags: W
HStem: -9 52<229.26 430.236> 379 53<109.872 178.572> 544 48<112.716 259.719>
VStem: 49 53<449.784 531.55> 136 58<78.5123 239.594> 184 52<436.103 477> 281 53<401.892 523.296> 463 59<75.182 385.114>
Fore
411 443 m 0xfb
 395 443 403 436 385 436 c 0
 371 436 350 471 361 474 c 0
 430 490 454 521 485 582 c 0
 492 596 497 610 501 625 c 1
 511 622 555 598 555 585 c 0
 555 578 508 502 454 466 c 1
 491 441 522 414 522 354 c 2
 522 166 l 2
 522 61 475 -9 326 -9 c 0
 235 -9 136 21 136 141 c 2
 136 214 l 2xfb
 136 337 281 331 281 458 c 0
 281 527 247 544 186 544 c 0
 142 544 102 540 102 482 c 0
 102 466 110 432 144 432 c 0
 169 432 184 448 184 477 c 2
 184 520 l 1
 209 520 l 1
 236 477 l 1xf7
 236 436 218 379 144 379 c 256
 84 379 49 425 49 482 c 0
 49 540 95 592 192 592 c 0
 306 592 334 517 334 463 c 0
 334 426 334 370 264 312 c 2
 216 271 l 2
 202 258 194 239 194 214 c 2
 194 137 l 2
 194 81 226 43 327 43 c 0
 446 43 463 83 463 144 c 2
 463 351 l 258
 463 382 456 406 444 420 c 0
 430 436 420 443 411 443 c 0xfb
EndSplineSet
EndChar
StartChar: uni0E0B
Encoding: 3595 3595 224
Width: 608
VWidth: 1473
Flags: W
HStem: -9 52<232.599 448.234> 390 52<100.948 163.782> 542 52<100.028 174.587>
VStem: 44 50<459.505 524.35> 143 59<72.1319 214 214 274.299> 308 47<397.311 538.523> 483 59<75.182 144 144 386.272>
Fore
44 492 m 0
 44 562 94 594 136 594 c 0
 171 594 206 559 224 526 c 1
 287 600 l 1
 325 582 355 528 355 468 c 0
 355 298 202 330 202 214 c 2
 202 130 l 2
 202 55 264 43 339 43 c 0
 463 43 483 83 483 144 c 2
 483 351 l 258
 483 382 477 406 464 420 c 0
 451 436 441 443 432 443 c 0
 416 443 424 436 405 436 c 0
 395 436 369 471 382 474 c 0
 450 490 473 518 505 582 c 0
 512 596 518 610 522 625 c 1
 531 622 576 598 576 585 c 0
 576 577 528 503 474 466 c 1
 511 441 542 414 542 354 c 2
 542 166 l 2
 542 61 489 -9 337 -9 c 0
 196 -9 143 48 143 134 c 2
 143 214 l 2
 143 356 308 334 308 466 c 0
 308 503 296 530 286 539 c 1
 221 468 l 1
 175 514 169 542 136 542 c 0
 102 542 94 511 94 494 c 0
 94 471 103 442 137 442 c 0
 147 442 161 447 186 473 c 1
 200 455 l 1
 192 421 l 1
 174 400 155 390 136 390 c 0
 72 390 44 442 44 492 c 0
EndSplineSet
EndChar
StartChar: uni0E0C
Encoding: 3596 3596 225
Width: 934
VWidth: 1473
Flags: W
HStem: -9 52<167.359 247.326 443.538 500.552> 150 52<209 247.634> 220 42<556.285 650.936> 392 47<183.044 247.929> 547 51<212.243 432.112>
VStem: 66 58<442.496 494.247> 97 59<55.405 363.585> 256 53<64.4472 129.901> 380 53<53.1116 184.32> 496 56<262 475.369> 504 51<63.0019 197.864 262 313.968> 785 59<127.786 589>
Fore
844 228 m 2xfdd0
 844 0 864 0 841 0 c 2
 784 0 l 1
 761 94 702 207 554 220 c 1
 555 140 l 1
 555 84 l 2xf9b0
 555 11 523 -9 474 -9 c 0
 436 -9 380 8 380 110 c 0
 380 229 475 254 498 259 c 1
 498 270 496 293 496 315 c 2
 494 367 l 2
 494 516 434 547 326 547 c 0
 231 547 124 492 124 473 c 0xfdd0
 124 460 165 420 177 420 c 0
 197 420 205 439 228 439 c 0
 241 439 264 392 249 392 c 0
 193 392 156 375 156 262 c 2
 156 113 l 2
 156 57 185 43 205 43 c 0
 246 43 256 77 256 97 c 256
 256 116 247 150 209 150 c 2
 168 150 l 1
 168 174 l 1
 209 202 l 1
 269 202 309 154 309 97 c 256
 309 41 267 -9 205 -9 c 0
 162 -9 97 10 97 133 c 2
 97 262 l 2xfb90
 97 330 108 359 144 395 c 1
 126 404 66 449 66 470 c 0
 66 504 180 598 326 598 c 0
 456 598 552 552 552 367 c 2
 552 262 l 1
 607 259 736 236 790 105 c 1
 788 121 785 217 785 265 c 2
 785 589 l 1
 844 589 l 1
 844 228 l 2xfdd0
474 44 m 0
 508 44 504 75 504 136 c 0
 504 152 501 193 499 217 c 1
 476 210 433 184 433 113 c 0
 433 62 458 44 474 44 c 0
EndSplineSet
EndChar
StartChar: uni0E0D
Encoding: 3597 3597 226
Width: 957
VWidth: 1473
Flags: W
HStem: -262 44<571.011 763.009> -109 49<553.594 607.525> -9 52<167.359 247.326 573.923 776.746> 150 52<209 247.634> 392 47<183.044 247.929> 547 51<203.582 417.584>
VStem: 66 58<442.496 495.91> 97 59<55.405 363.585> 256 53<64.4472 129.901> 479 54<82.4452 235.6 235.6 481.141> 502 49<-198.193 -111.439> 617 47<-146 -110.141> 809 57<-169.41 -71> 818 59<85.7878 244.154 244.154 589>
Fore
256 97 m 256xfd90
 256 116 247 150 209 150 c 2
 168 150 l 1
 168 174 l 1
 209 202 l 1
 269 202 309 154 309 97 c 256
 309 41 267 -9 205 -9 c 0
 162 -9 97 10 97 133 c 2
 97 262 l 2xfd90
 97 330 108 359 144 395 c 1
 126 404 66 449 66 470 c 0
 66 502 161 598 311 598 c 0
 440 598 538 552 538 367 c 2
 536 286 l 2
 534 227 533 207 533 187 c 0
 533 100.187 541.012 43 676 43 c 256
 811 43 821 105 821 169 c 0
 821 214 818 260 818 320 c 2
 818 589 l 1
 877 589 l 1
 877 194 l 2
 877 112.715 876.353 -9 676 -9 c 256
 480.915 -9 479 101.562 479 194 c 2
 479 367 l 2
 479 509 429 547 311 547 c 0
 209 547 124 489 124 473 c 0xfed4
 124 460 165 420 177 420 c 0
 197 420 205 439 228 439 c 0
 241 439 264 392 249 392 c 0
 193 392 156 375 156 262 c 2
 156 113 l 2
 156 57 185 43 205 43 c 0
 246 43 256 77 256 97 c 256xfd90
664 -218 m 0
 764 -218 809 -189 809 -71 c 1
 866 -71 l 1
 866 -184 827 -262 669 -262 c 0
 530 -262 502 -194 502 -149 c 0
 502 -78 557 -60 586 -60 c 0
 619 -60 664 -77 664 -146 c 1
 641 -189 l 1
 617 -189 l 1
 617 -146 l 2
 617 -113 597 -109 586 -109 c 0
 563 -109 551 -122 551 -149 c 0xfcb8
 551 -190 571 -218 664 -218 c 0
EndSplineSet
Substitution2: "Single Substitution lookup 27 subtable" uni0E0D.alt1
Substitution2: "Single Substitution lookup 27 subtable" uni0E0D.alt1
EndChar
StartChar: uni0E0E
Encoding: 3598 3598 227
Width: 673
VWidth: 1473
Flags: W
HStem: -253 45<231.091 338.827> -127 45<235.774 337.621> -9 52<95.7139 181.79> 147 49<96.166 130> 392 47<233.75 295.676> 547 51<250.582 464.584>
VStem: 37 51<51.1814 129.822> 113 58<442.717 495.91> 159 59<188.488 356.289> 183 45<-204.562 -137.196> 192 57<51.9921 225.358> 526 59<-193 -14.7996 -14.7996 481.141>
Fore
140 -9 m 0xfe30
 79 -9 37 37 37 94 c 256
 37 154 74 196 130 196 c 1
 164 171 l 1
 164 147 l 1
 130 147 l 2
 96 147 88 117 88 94 c 256
 88 74 98 43 140 43 c 0
 161 43 192 52 192 106 c 0xfe30
 192 194 159 223 159 301 c 0xfe90
 159 324 158 350 194 393 c 1
 183 399 113 446 113 470 c 0
 113 502 208 598 358 598 c 0
 487 598 585 552 585 367 c 2
 585 -250 l 1
 524 -250 l 1
 511 -228 475 -189 423 -161 c 1
 374 -234 323 -253 271 -253 c 0
 201 -253 183 -200 183 -169 c 0
 183 -117 231 -82 296 -82 c 0
 334 -82 371 -92 399 -103 c 1
 411 -75 410 -65 412 -55 c 1
 414 -55 460 -66 460 -82 c 0
 460 -90 458 -86 445 -124 c 1
 477 -143 506 -168 527 -193 c 1
 527 -142 l 2
 527 -65 526 -39 526 116 c 2
 526 367 l 2
 526 509 476 547 358 547 c 0
 256 547 171 489 171 473 c 0xff50
 171 460 213 420 224 420 c 0
 244 420 252 439 275 439 c 0
 289 439 312 392 296 392 c 0
 234 392 218 366 218 299 c 0xfe90
 218 237 249 148 249 106 c 0
 249 14 191 -9 140 -9 c 0xfe30
270 -208 m 0
 324 -208 359 -176 380 -141 c 1
 353 -132 327 -127 302 -127 c 0
 253 -127 228 -142 228 -172 c 0xfe50
 228 -196 242 -208 270 -208 c 0
EndSplineSet
Substitution2: "Single Substitution lookup 27 subtable" uni0E0E.alt1
Substitution2: "Single Substitution lookup 27 subtable" uni0E0E.alt1
EndChar
StartChar: uni0E0F
Encoding: 3599 3599 228
Width: 673
VWidth: 1473
Flags: W
HStem: -259 45<192.977 284.844> -131 46<194.2 263.73> -9 52<95.7139 181.79> 147 49<96.166 130> 392 47<233.75 295.676> 547 51<250.582 464.584>
VStem: 37 51<51.1814 129.822> 113 58<442.717 495.91> 144 46<-211.136 -134.5> 159 59<188.488 356.289> 192 57<51.9921 225.358> 326 44<-97.5575 -67.4626> 526 57<-212 -24.8688 -24.8688 481.141>
Fore
140 -9 m 0xfe38
 79 -9 37 37 37 94 c 256
 37 154 74 196 130 196 c 1
 164 171 l 1
 164 147 l 1
 130 147 l 2
 96 147 88 117 88 94 c 256
 88 74 98 43 140 43 c 0
 161 43 192 52 192 106 c 0xfe38
 192 194 159 223 159 301 c 0xfe58
 159 324 158 350 194 393 c 1
 183 399 113 446 113 470 c 0xff18
 113 502 208 598 358 598 c 0
 487 598 585 552 585 367 c 2
 583 -265 l 1
 520 -265 l 1
 448 -206 l 1
 379 -262 l 1
 326 -206 l 1
 303 -234 276 -259 225 -259 c 0
 166 -259 144 -207 144 -177 c 0xfe98
 144 -112 188 -85 225 -85 c 0
 239 -85 273 -86 314 -130 c 1
 324 -106 326 -70 326 -63 c 1
 334 -63 370 -71 370 -82 c 0
 370 -106 352 -143 345 -161 c 1
 385 -202 l 1
 446 -153 l 1
 527 -212 l 1
 527 -158 l 2
 527 -77 526 -50 526 112 c 2
 526 367 l 2
 526 509 476 547 358 547 c 0
 256 547 171 489 171 473 c 0xff18
 171 460 213 420 224 420 c 0
 244 420 252 439 275 439 c 0
 289 439 312 392 296 392 c 0
 234 392 218 366 218 299 c 0xfe58
 218 237 249 148 249 106 c 0
 249 14 191 -9 140 -9 c 0xfe38
298 -174 m 1
 274 -149 254 -131 228 -131 c 0
 203 -131 190 -146 190 -175 c 0xfe98
 190 -201 203 -214 230 -214 c 0
 276 -214 292 -185 298 -174 c 1
EndSplineSet
Substitution2: "Single Substitution lookup 27 subtable" uni0E0F.alt1
Substitution2: "Single Substitution lookup 27 subtable" uni0E0F.alt1
EndChar
StartChar: uni0E10
Encoding: 3600 3600 229
Width: 602
VWidth: 1473
Flags: W
HStem: -290 41<129.768 213.431> -174 43<129.147 195.611> -100 41<402.793 462.41> -4 42<341.745 421.569> 112 52<181.093 220> 255 53<181.049 267.855> 371 53<132.456 213.073> 383 53<165.792 417.003> 520 59<312.723 482.136> 538 51<144.118 246.098>
VStem: 85 42<-247.11 -176.047 427.633 521.662> 121 53<181.762 247.162> 250 45<-148.603 -109.86> 361 40<-160.963 -101.331> 433 50<-246 -190.861> 449 59<164.593 353.87> 467 49<-202.5 -120.042>
Fore
224 -211 m 1xfc2c
 201 -186 180 -174 161 -174 c 0
 138 -174 127 -187 127 -212 c 0
 127 -237 139 -249 162 -249 c 0
 203 -249 217 -225 224 -211 c 1xfc2c
508 309 m 0xfd1d
 508 258 487 135 479 18 c 0
 479 -3 407 -4 387 -4 c 0
 350 -4 283 1 283 19 c 0
 291 174 294 255 222 255 c 0
 194 255 174 234 174 209 c 0
 174 194 183 164 220 164 c 2
 264 164 l 1
 264 138 l 1
 220 112 l 1
 159 112 121 151 121 209 c 256
 121 267 162 308 222 308 c 0
 348 308 340 162 334 49 c 0
 334 40 373 38 383 38 c 256
 397 38 428 40 430 50 c 0
 430.032 50.1594 449 234.989 449 301 c 0
 449 350 421 383 306 383 c 0xfd1d
 239 383 198 371 152 371 c 0
 108 371 78 396 78 466 c 0
 78 564 146 589 199 589 c 0xfe5d
 234 589 314 579 376 579 c 0
 430 579 481 591 522 603 c 1
 525 587 536 571 536 548 c 0
 536 542 532 537 523 533 c 1
 494 526 420 520 377 520 c 0xfc9d
 332.266 520 218.573 538 202 538 c 0
 160 538 131 527 131 467 c 0
 131 430 138 424 175 424 c 256xfe5d
 227 424 270 436 348 436 c 0
 478 436 508 360 508 309 c 0xfd1d
159 -131 m 0
 175 -131 199 -133 240 -174 c 1
 246 -160 250 -131 250 -106 c 1
 256 -106 295 -111 295 -124 c 0
 295 -147 278 -180 278 -180 c 1
 268 -203 l 1
 303 -239 l 1
 359 -208 l 1
 433 -246 l 1xfc2e
 433 -202 467 -188 467 -143 c 256xfc0c80
 467 -127 460 -100 433 -100 c 0xfc0e
 412 -100 401 -111 401 -134 c 0
 401 -157.647 420.781 -165.316 436 -178 c 1
 424 -194 l 1
 390 -189 l 1
 364 -163 361 -147 361 -137 c 0
 361 -86 394 -59 436 -59 c 0
 505 -59 516 -118 516 -141 c 0xfc0c80
 516 -193 483 -207 483 -289 c 1
 417 -289 l 1
 361 -255 l 1
 298 -292 l 1
 249 -242 l 1
 229 -266 204 -290 159 -290 c 0
 106 -290 85 -245 85 -214 c 0xfc2e
 85 -151 127 -131 159 -131 c 0
EndSplineSet
Substitution2: "Single Substitution lookup 27 subtable" uni0E10.alt1
Substitution2: "Single Substitution lookup 27 subtable" uni0E10.alt1
EndChar
StartChar: uni0E11
Encoding: 3601 3601 230
Width: 679
VWidth: 1473
Flags: W
HStem: 0 21G<147 208.308 539 598> 401 48<73.6938 148.088> 533 61<451.276 525.63> 545 49<76.2034 136.995>
VStem: 22 47<464.224 526.397> 154 54<0.00762939 65 168 216.465 216.465 219.5 219.5 268 268 309.755> 252 44<452.1 532.216> 539 59<0 529.875>
Fore
110 449 m 0xdf
 128 449 145 467 156 479 c 1
 171 461 l 1
 162 430 l 1
 145 411 127 401 106 401 c 0
 56 401 22 440 22 492 c 0
 22 575 78 594 103 594 c 0xdf
 112 594 147 594 181 541 c 1
 236 600 l 1
 283 568 296 541 296 501 c 0
 296 392 208 392 208 271 c 2
 203 168 l 1
 254 305 382 594 495 594 c 0
 565 594 598 569 598 467 c 2
 598 0 l 1
 539 0 l 1
 539 467 l 2
 539 534 516 533 495 533 c 0xef
 395 533 246 158 244 156 c 1
 209 65 l 1
 208 0 l 1
 158 0 l 2
 136 0 151 10 154 106 c 0
 154 148 155 202 155 268 c 0
 155 301 157 338 204 400 c 2
 236 444 l 2
 247 457 252 474 252 495 c 0
 252 516 244 535 234 547 c 1
 178 486 l 1
 152 524 137 545 109 545 c 0
 77 545 69 510 69 494 c 0
 69 476 77 449 110 449 c 0xdf
EndSplineSet
EndChar
StartChar: uni0E12
Encoding: 3602 3602 231
Width: 956
VWidth: 1473
Flags: W
HStem: -9 53<458.538 515.602> 217 47<481.708 513 569 651.749> 376 51<263.007 345.904> 581 20<193 255.839 401 499.5 807 866>
VStem: 74 59<220.688 477.744> 202 51<294.848 365.776> 355 52<271.278 367.312> 395 53<53.1116 185.631> 505 62<326.683 515.14> 519 51<62.9464 197.864 267 433.275> 807 59<108.253 140.832 140.832 589>
Fore
433 601 m 1xfea0
 566 580 567 466 567 348 c 2
 567 267 l 1xfea0
 674 261 776 198 812 106 c 1
 808 138 807 266 807 266 c 1
 807 589 l 1
 866 589 l 1
 866 228 l 2
 866 145 870 41 874 21 c 0
 877 6 875 0 863 0 c 2
 806 0 l 1
 776 120 699 209 569 220 c 1
 570 140 l 1
 570 84 l 2
 570 11 538 -9 489 -9 c 0
 451 -9 395 8 395 110 c 0xfd60
 395 218 471 256 513 264 c 1
 508 312 505 399 505 435 c 0
 505 513 476 535 430 547 c 1
 329 485 l 1
 227 545 l 1
 199 536 133 509 133 357 c 0
 133 217 172 192 199 152 c 1
 208 165 232 187 256 208 c 2
 292 238 l 2
 317 259 355 276 355 321 c 0
 355 354 335 376 306 376 c 0
 275 376 253 352 253 323 c 0
 253 310 258 299 268 290 c 2
 295 262 l 1
 277 247 l 1
 231 253 l 1
 212 273 202 297 202 324 c 0
 202 384 249 427 305 427 c 0
 370 427 407 372 407 329 c 0
 407 282 395 257 346 221 c 2
 286 174 l 2
 187 99 183 29 183 0 c 1
 125 0 l 2
 113 0 112 6 115 21 c 0
 127 92 171 120 159 136 c 1
 132 161 l 2
 81 211 74 292 74 357 c 0
 74 536 165 578 221 598 c 1
 329 536 l 1
 433 601 l 1xfea0
489 44 m 0
 525 44 519 83 519 136 c 0
 519 152 516 193 514 217 c 1
 491 210 448 184 448 113 c 0xfd60
 448 62 473 44 489 44 c 0
EndSplineSet
EndChar
StartChar: uni0E13
Encoding: 3603 3603 232
Width: 939
VWidth: 1473
Flags: W
HStem: -9 52<168.459 246.058 755.136 835.997> 152 51<209 245.295> 202 47<636.016 744.256> 392 47<183.044 247.929> 547 51<203.582 412.73>
VStem: 66 58<442.496 495.91> 97 59<52.5398 363.585> 256 53<52.3801 131.155> 466 57<0.00421143 84.7153 134 261.5 261.5 493.214> 691 51<57.533 147.511> 801 59<252.803 589> 850 53<59.1787 159.48>
Fore
256 97 m 256xbbc0
 256 115 247 152 209 152 c 2
 168 152 l 1
 168 175 l 1
 209 203 l 1
 269 203 309 154 309 97 c 256
 309 36 260 -9 203 -9 c 0
 139 -9 97 23 97 118 c 2
 97 262 l 2xdbc0
 97 330 108 359 144 395 c 1
 126 404 66 449 66 470 c 0
 66 502 161 598 311 598 c 0
 463 598 523 531 523 367 c 2
 523 261 l 1
 520 134 l 1
 569 213 655 249 716 249 c 0
 743 249 770 245 797 236 c 1
 800 245 801 257 801 273 c 2
 801 589 l 1
 860 589 l 1
 860 273 l 2xbde0
 860 255 852 237 837 220 c 1
 857 209 903 175 903 108 c 0
 903 14 837 -4 794 -4 c 256
 751 -4 691 17 691 103 c 0
 691 133 700 160 745 199 c 1
 738 201 727 202 712 202 c 0
 620 202 522 105 522 0 c 1
 471 0 l 2
 452 0 466 5 466 156 c 0
 466 240 464 283 464 367 c 0
 464 517 418 547 311 547 c 0
 209 547 124 489 124 473 c 0xbdd0
 124 460 165 420 177 420 c 0
 197 420 205 439 228 439 c 0
 241 439 264 392 249 392 c 0
 193 392 156 375 156 262 c 2
 156 118 l 2
 156 79 169 43 203 43 c 0
 237 43 256 68 256 97 c 256xbbc0
794 49 m 0
 821 49 850 61 850 110 c 0x99d0
 850 144 829 169 788 184 c 1
 748 159 742 125 742 110 c 0
 742 69 759 49 794 49 c 0
EndSplineSet
EndChar
StartChar: uni0E14
Encoding: 3604 3604 233
Width: 626
VWidth: 1473
Flags: W
HStem: 0 21G<119 183 486 545> 376 51<278.007 360.216> 547 51<216.23 425.768>
VStem: 74 59<220.105 461.444> 217 51<294.298 365.776> 370 51<272.755 367.343> 486 59<-1 483.797>
Fore
320 427 m 0
 382 427 421 377 421 329 c 0
 421 266 401 246 298 174 c 0
 186 97 183 25 183 0 c 1
 125 0 l 2
 113 0 112 6 115 21 c 0
 127 92 171 120 159 136 c 1
 122 171 74 201 74 357 c 0
 74 519 180 598 309 598 c 0
 483 598 545 536 545 348 c 2
 545 -1 l 1
 486 -1 l 1
 486 333 l 2
 486 493 465 547 309 547 c 0
 229 547 133 509 133 357 c 0
 133 217 172 192 199 152 c 1
 208 166 243 193 264 208 c 2
 305 239 l 2
 332 259 370 277 370 321 c 0
 370 354 350 376 321 376 c 0
 290 376 268 352 268 323 c 0
 268 310 273 299 283 290 c 2
 309 262 l 1
 292 247 l 1
 246 253 l 1
 227 273 217 297 217 324 c 0
 217 384 264 427 320 427 c 0
EndSplineSet
EndChar
StartChar: uni0E15
Encoding: 3605 3605 234
Width: 640
VWidth: 1473
Flags: W
HStem: 0 21G<119 183 501 560> 376 51<278.007 360.216> 581 20G<193 254.226 389.077 477.5>
VStem: 74 59<220.105 477.744> 217 51<294.298 365.776> 370 51<272.755 367.343> 501 59<0 502.565>
Fore
418 601 m 1
 537 583 560 497 560 348 c 2
 560 0 l 1
 501 0 l 1
 501 365 l 2
 501 467 499 525 415 547 c 1
 324 485 l 1
 227 545 l 1
 199 536 133 509 133 357 c 0
 133 217 172 192 199 152 c 1
 208 166 243 193 264 208 c 2
 305 239 l 2
 332 259 370 277 370 321 c 0
 370 354 350 376 321 376 c 0
 290 376 268 352 268 323 c 0
 268 310 273 299 283 290 c 2
 309 262 l 1
 292 247 l 1
 246 253 l 1
 227 273 217 297 217 324 c 0
 217 384 264 427 320 427 c 0
 382 427 421 377 421 329 c 0
 421 266 401 246 298 174 c 0
 186 97 183 25 183 0 c 1
 125 0 l 2
 113 0 112 6 115 21 c 0
 127 92 171 120 159 136 c 1
 122 171 74 201 74 357 c 0
 74 536 165 578 221 598 c 1
 324 536 l 1
 418 601 l 1
EndSplineSet
EndChar
StartChar: uni0E16
Encoding: 3606 3606 235
Width: 618
VWidth: 1473
Flags: W
HStem: -9 52<167.359 247.326> 150 52<209 247.634> 392 47<183.044 247.929> 547 51<203.582 417.584>
VStem: 66 58<442.496 495.91> 97 59<55.405 363.585> 256 53<64.4472 129.901> 479 59<0 481.141>
Fore
256 97 m 256xf7
 256 116 247 150 209 150 c 2
 168 150 l 1
 168 174 l 1
 209 202 l 1
 269 202 309 154 309 97 c 256
 309 41 267 -9 205 -9 c 0
 162 -9 97 10 97 133 c 2
 97 262 l 2xf7
 97 330 108 359 144 395 c 1
 126 404 66 449 66 470 c 0
 66 502 161 598 311 598 c 0
 440 598 538 552 538 367 c 2
 538 0 l 1
 479 0 l 1
 479 367 l 2
 479 509 429 547 311 547 c 0
 209 547 124 489 124 473 c 0xfb
 124 460 165 420 177 420 c 0
 197 420 205 439 228 439 c 0
 241 439 264 392 249 392 c 0
 193 392 156 375 156 262 c 2
 156 113 l 2
 156 57 185 43 205 43 c 0
 246 43 256 77 256 97 c 256xf7
EndSplineSet
EndChar
StartChar: uni0E17
Encoding: 3607 3607 236
Width: 704
VWidth: 1473
Flags: W
HStem: 0 21G<171.5 233.909 564 623> 389 50<112.098 144> 548 52<115.547 197.901 467.1 544.88>
VStem: 52 53<457.165 537.297> 180 54<0.00375366 22 22 141.656 263.062 327 415 436.008> 208 59<393.222 538.656> 564 59<0 528.448>
Fore
105 494 m 256xf6
 105 470 113 439 147 439 c 2
 180 439 l 1
 180 415 l 1xfa
 144 389 l 1
 87 389 52 433 52 494 c 256
 52 555 102 600 159 600 c 0
 230 600 267 557 267 483 c 0xf6
 267 446.531 236 393.5 236 323 c 2
 228 186 l 1
 272 367 373 594 504 594 c 0
 599 594 623 537 623 470 c 2
 623 0 l 1
 564 0 l 1
 564 470 l 2
 564 528 532 542 510 542 c 0
 397 542 247 215 234 22 c 2
 233 0 l 1
 183 0 l 2
 160 0 180 4 180 228 c 2
 180 327 l 2xfa
 180 401.587 208 436.013 208 480 c 0
 208 537 179 548 159 548 c 0
 125 548 105 522 105 494 c 256xf6
EndSplineSet
EndChar
StartChar: uni0E18
Encoding: 3608 3608 237
Width: 614
VWidth: 1473
Flags: W
HStem: -9 52<218.734 381.51> 517 59<253.967 469.695> 535 54<142.444 235.393>
VStem: 65 56<408.963 513.306> 65 468 93 54<124.379 243.746 243.746 301> 452 59<116.805 258 258 305.933>
Fore
373 576 m 0xd2
 431 576 485 590 519 603 c 1
 525 581 533 570 533 548 c 0
 533 542 529 537 520 533 c 1
 499 528 429 517 373 517 c 0xc8
 315 517 217 535 199 535 c 0
 154 535 121 505 121 460 c 0xb0
 121 382 135 416 338 396 c 0
 435 387 511 346 511 258 c 2
 511 194 l 2
 511 115 508 57 438 20 c 0
 391 -6 328 -9 301 -9 c 0
 260 -9 114 -5 98 110 c 0
 95 135 93 163 93 194 c 2
 93 305 l 1
 149 301 l 1
 149 233 147 244 147 187 c 0xa6
 147 124 155 97 166 82 c 1
 194 54 243 43 301 43 c 256
 358 43 407 54 435 82 c 1
 450 103 452 132 452 169 c 2
 452 258 l 2
 452 391.116 147.769 325.644 96 368 c 0
 72 389 65 416 65 458 c 0
 65 541 119 589 196 589 c 0xb2
 224.177 589 313.547 576 373 576 c 0xd2
EndSplineSet
EndChar
StartChar: uni0E19
Encoding: 3609 3609 238
Width: 671
VWidth: 1473
Flags: W
HStem: -4 53<482.32 570.116> 200 49<361.749 475.22> 389 50<112.098 144> 548 52<115.547 197.901>
VStem: 52 53<457.165 537.297> 180 56<0.0103455 74.2812 134.69 231.5 231.5 439.929> 208 59<396.18 538.656> 421 52<57.2006 147.352> 532 59<252.803 589> 580 53<58.3558 161.041>
Fore
105 494 m 256xfb
 105 470 113 439 147 439 c 2
 180 439 l 1
 180 415 l 1xfd
 144 389 l 1
 87 389 52 433 52 494 c 256
 52 555 102 600 159 600 c 0
 230 600 267 557 267 483 c 0xfb
 267 449 236 400 236 323 c 2
 236 134 l 1
 282 209 385 249 446 249 c 0
 474 249 501 245 527 236 c 1
 530 245 532 257 532 273 c 2
 532 589 l 1
 591 589 l 1
 591 273 l 2xfd80
 591 255 583 237 567 220 c 1
 589 208 633 175 633 108 c 0
 633 18 575 -4 524 -4 c 256
 481 -4 421 17 421 103 c 0
 421 140.2 438.641 170.136 476 196 c 1
 469 199 458 200 443 200 c 0
 349 200 237 102 237 0 c 1
 187 0 l 2
 168 0 180 14 180 63 c 0
 181 84 181 108 181 136 c 0
 181 212 180 251 180 327 c 0xfd40
 180 401.587 208 436.013 208 480 c 0
 208 537 179 548 159 548 c 0
 125 548 105 522 105 494 c 256xfb
524 49 m 0
 561 49 580 70 580 110 c 0xf940
 580 144 560 169 519 184 c 1
 479 159 473 125 473 110 c 0
 473 69 490 49 524 49 c 0
EndSplineSet
EndChar
StartChar: uni0E1A
Encoding: 3610 3610 239
Width: 699
VWidth: 1473
Flags: W
HStem: -9 52<281.434 514.527> 387 52<114.351 150> 548 52<115.547 197.901>
VStem: 52 53<458.633 537.297> 180 54<85.8413 254.677 254.677 327 439 439.929> 208 59<396.18 538.656> 560 59<86.5735 229.108 229.108 589>
Fore
105 494 m 256xf6
 105 472 114 439 150 439 c 2
 184 439 l 1
 184 415 l 1
 150 387 l 1
 91 387 52 436 52 494 c 256
 52 555 102 600 159 600 c 0
 230 600 267 557 267 483 c 0xf6
 267 449 236 400 236 323 c 0
 236 255 234 241 234 187 c 0
 234 102.793 238.024 43 398 43 c 256
 560 43 563 113.672 563 169 c 0
 563 208 560 234 560 290 c 2
 560 589 l 1
 619 589 l 1
 619 194 l 2
 619 114.544 620 -9 398 -9 c 0
 180.047 -9 180 96.652 180 194 c 2
 180 327 l 2xfa
 180 401.587 208 436.013 208 480 c 0
 208 537 179 548 159 548 c 0
 125 548 105 522 105 494 c 256xf6
EndSplineSet
EndChar
StartChar: uni0E1B
Encoding: 3611 3611 240
Width: 699
VWidth: 1473
Flags: W
HStem: -9 52<281.434 514.527> 387 52<114.351 150> 548 52<115.547 197.901>
VStem: 52 53<458.633 537.297> 180 54<85.8413 254.677 254.677 327 439 439.929> 208 59<396.18 538.656> 560 59<86.5735 229.108 229.108 801>
Fore
105 494 m 256xf6
 105 472 114 439 150 439 c 2
 184 439 l 1
 184 415 l 1
 150 387 l 1
 91 387 52 436 52 494 c 256
 52 555 102 600 159 600 c 0
 230 600 267 557 267 483 c 0xf6
 267 449 236 400 236 323 c 0
 236 255 234 241 234 187 c 0
 234 102.793 238.024 43 398 43 c 256
 560 43 563 113.672 563 169 c 0
 563 208 560 234 560 290 c 2
 560 801 l 1
 619 801 l 1
 619 194 l 2
 619 114.544 620 -9 398 -9 c 0
 180.047 -9 180 96.652 180 194 c 2
 180 327 l 2xfa
 180 401.587 208 436.013 208 480 c 0
 208 537 179 548 159 548 c 0
 125 548 105 522 105 494 c 256xf6
EndSplineSet
EndChar
StartChar: uni0E1C
Encoding: 3612 3612 241
Width: 639
VWidth: 1473
Flags: W
HStem: 0 21G<74 140 492 556.5> 387 52<194 231.537> 548 52<149.679 231.726>
VStem: 82 58<0.014679 69.1738 122 191.13 194 219.5 219.5 401 403.01 409.25 407.506 533.16> 84 52<122.749 194 194 241.59> 242 53<446.799 537.628> 494 58<115 158.98 158.98 269.115 269.115 589>
Fore
189 600 m 0xf6
 250 600 295 551 295 494 c 256
 295 433 251 387 194 387 c 1
 153 415 l 1
 153 439 l 1
 194 439 l 2
 224 439 242 463 242 494 c 256
 242 522 223 548 189 548 c 0
 167 548 134 529 134 473 c 0
 134 454 141 374 141 317 c 0
 141 239 136 200 136 122 c 1xee
 181 198 266 265 320 302 c 1
 394 254 463 188 501 115 c 1
 501 131 499 156 497 196 c 2
 495 248 l 2
 494 264 494 279 494 290 c 2
 494 589 l 1
 552 589 l 1
 552 194 l 2
 552 0 566 0 547 0 c 2
 492 0 l 1
 492 15 l 2
 492 61 458 130 320 245 c 1
 180 133 140 61 140 15 c 2
 140 0 l 1
 85 0 l 2
 63 0 80 20 82 70 c 0xf6
 83 120 84 132 84 194 c 2xee
 82 317 l 2
 82 395 75 411 75 473 c 0
 75 575 139 600 189 600 c 0xf6
EndSplineSet
EndChar
StartChar: uni0E1D
Encoding: 3613 3613 242
Width: 639
VWidth: 1473
Flags: W
HStem: 0 21G<74 140 492 556.5> 387 52<194 231.537> 548 52<149.679 231.726>
VStem: 82 58<0.014679 69.1738 122 191.13 194 219.5 219.5 401 403.01 409.25 407.506 533.16> 84 52<122.749 194 194 241.59> 242 53<446.799 537.628> 494 58<115 158.98 158.98 269.115 269.115 801>
Fore
189 600 m 0xf6
 250 600 295 551 295 494 c 256
 295 433 251 387 194 387 c 1
 153 415 l 1
 153 439 l 1
 194 439 l 2
 224 439 242 463 242 494 c 256
 242 522 223 548 189 548 c 0
 167 548 134 529 134 473 c 0
 134 454 141 374 141 317 c 0
 141 239 136 200 136 122 c 1xee
 181 198 266 265 320 302 c 1
 394 254 463 188 501 115 c 1
 501 131 499 156 497 196 c 2
 495 248 l 2
 494 264 494 279 494 290 c 2
 494 801 l 1
 552 801 l 1
 552 194 l 2
 552 0 566 0 547 0 c 2
 492 0 l 1
 492 15 l 2
 492 61 458 130 320 245 c 1
 180 133 140 61 140 15 c 2
 140 0 l 1
 85 0 l 2
 63 0 80 20 82 70 c 0xf6
 83 120 84 132 84 194 c 2xee
 82 317 l 2
 82 395 75 411 75 473 c 0
 75 575 139 600 189 600 c 0xf6
EndSplineSet
EndChar
StartChar: uni0E1E
Encoding: 3614 3614 243
Width: 735
VWidth: 1473
Flags: W
HStem: 0 21G<170.5 236 588 652.5> 387 52<114.351 150> 548 52<115.547 197.901>
VStem: 52 53<458.633 537.297> 178 58<0.0161133 15 70 109.656 194.221 312 415 432.495> 208 59<385.334 538.656> 589 59<0.000732422 15 15 106.729 214.922 290 290 589>
Fore
267 483 m 0xf6
 267 450 236 385 236 308 c 0
 236 275 231 160 231 144 c 1
 271 271 336 417 415 552 c 1
 462 476 552 310 597 137 c 1
 597 183 589 229 589 290 c 2
 589 589 l 1
 648 589 l 1
 648 194 l 2
 648 0 663 0 642 0 c 2
 588 0 l 1
 588 15 l 2
 588 105 446 402 415 466 c 1
 370 374 236 103 236 15 c 2
 236 0 l 1
 181 0 l 2
 160 0 176 22 178 70 c 0xfa
 179 120 180 132 180 194 c 2
 180 312 l 2
 180 406 208 418 208 480 c 0
 208 537 179 548 159 548 c 0
 125 548 105 522 105 494 c 256
 105 472 114 439 150 439 c 2
 184 439 l 1
 184 415 l 1
 150 387 l 1
 91 387 52 436 52 494 c 256
 52 555 102 600 159 600 c 0
 230 600 267 557 267 483 c 0xf6
EndSplineSet
EndChar
StartChar: uni0E1F
Encoding: 3615 3615 244
Width: 735
VWidth: 1473
Flags: W
HStem: 0 21G<170.5 236 588 652.5> 387 52<114.351 150> 548 52<115.547 197.901>
VStem: 52 53<458.633 537.297> 178 58<0.0161133 15 70 109.656 194.221 312 415 432.495> 208 59<385.334 538.656> 589 59<0.000732422 15 15 106.729 214.922 290 290 801>
Fore
267 483 m 0xf6
 267 450 236 385 236 308 c 0
 236 275 231 160 231 144 c 1
 271 271 336 417 415 552 c 1
 462 476 552 310 597 137 c 1
 597 183 589 229 589 290 c 2
 589 801 l 1
 648 801 l 1
 648 194 l 2
 648 0 663 0 642 0 c 2
 588 0 l 1
 588 15 l 2
 588 105 446 402 415 466 c 1
 370 374 236 103 236 15 c 2
 236 0 l 1
 181 0 l 2
 160 0 176 22 178 70 c 0xfa
 179 120 180 132 180 194 c 2
 180 312 l 2
 180 406 208 418 208 480 c 0
 208 537 179 548 159 548 c 0
 125 548 105 522 105 494 c 256
 105 472 114 439 150 439 c 2
 184 439 l 1
 184 415 l 1
 150 387 l 1
 91 387 52 436 52 494 c 256
 52 555 102 600 159 600 c 0
 230 600 267 557 267 483 c 0xf6
EndSplineSet
EndChar
StartChar: uni0E20
Encoding: 3616 3616 245
Width: 665
VWidth: 1473
Flags: W
HStem: -9 52<95.7139 181.79> 147 49<96.166 130> 392 47<233.75 295.676> 547 51<250.582 464.584>
VStem: 37 51<51.1814 129.822> 113 58<442.717 495.91> 159 59<188.407 376.493> 192 57<51.9921 225.286> 526 59<0 481.141>
Fore
140 -9 m 0xf980
 79 -9 37 37 37 94 c 256
 37 154 74 196 130 196 c 1
 164 171 l 1
 164 147 l 1
 130 147 l 2
 96 147 88 117 88 94 c 256
 88 74 98 43 140 43 c 0
 161 43 192 52 192 106 c 0xf980
 192 194 159 223 159 301 c 0xfa80
 159 346 172 369 194 393 c 1
 183 399 113 446 113 470 c 0
 113 502 208 598 358 598 c 0
 487 598 585 552 585 367 c 2
 585 0 l 1
 526 0 l 1
 526 367 l 2
 526 509 476 547 358 547 c 0
 256 547 171 489 171 473 c 0xfc80
 171 460 213 420 224 420 c 0
 244 420 252 439 275 439 c 0
 289 439 312 392 296 392 c 0
 234 392 218 366 218 299 c 0xfa80
 218 236.803 249 147.766 249 106 c 0
 249 14 191 -9 140 -9 c 0xf980
EndSplineSet
EndChar
StartChar: uni0E21
Encoding: 3617 3617 246
Width: 671
VWidth: 1473
Flags: W
HStem: -9 53<158.756 206.242> 220 44<259 348.922> 389 50<134.098 166> 548 52<137.547 219.901>
VStem: 74 53<457.165 537.297> 85 53<53.7189 184.017> 209 52<61.9216 179.764 179.764 217 264.193 362.471> 230 59<421.155 538.656> 523 59<108.603 160.397 160.397 589>
Fore
127 494 m 256xf980
 127 470 135 439 169 439 c 2
 202 439 l 1
 202 415 l 1
 166 389 l 1
 109 389 74 433 74 494 c 256
 74 555 124 600 181 600 c 0
 252 600 289 557 289 483 c 0xf980
 289 446 258 399 258 314 c 2
 258 264 l 1
 391 264 488 173 527 105 c 1
 525 137 523 201 523 265 c 2
 523 589 l 1
 582 589 l 1
 582 228 l 2
 582 145 587 42 589 21 c 0
 592 6 591 0 579 0 c 2
 522 0 l 1
 483 161 342 215 259 220 c 1
 261 140 l 1
 261 84 l 2
 261 8 224 -9 180 -9 c 0
 142 -9 85 8 85 110 c 0xf680
 85 229 182 255 203 259 c 1
 202 272 202 280 202 285 c 2
 202 318 l 2
 202 355 209 384 216 411 c 2
 226 447 l 2
 228 458 230 469 230 480 c 0
 230 537 201 548 181 548 c 0
 147 548 127 522 127 494 c 256xf980
180 44 m 0
 219 44 209 99 209 136 c 0
 209 152 207 176 205 217 c 1
 181 209 138 183 138 113 c 0xf680
 138 56 170 44 180 44 c 0
EndSplineSet
EndChar
StartChar: uni0E22
Encoding: 3618 3618 247
Width: 617
VWidth: 1473
Flags: W
HStem: -9 52<194.349 432.86> 268 53<269.969 309.835> 404 51<194 232.495> 547 53<145.911 233.198>
VStem: 74 59<378.016 533.533> 93 56<115.047 240.347> 240 53<471.34 530.035> 476 59<118.276 225.585 225.585 589>
Fore
149 171 m 2xf7
 149 112 146 43 314 43 c 256
 465 43 479 98 479 162 c 0
 479 203 476 231 476 290 c 2
 476 589 l 1
 535 589 l 1
 535 290 l 2
 535 154 542 92 502 52 c 0
 458 1 375 -9 314 -9 c 0
 179 -9 113 40 99 101 c 0
 95 118 93 142 93 172 c 2
 93 200 l 2xf7
 93 232 94 271 147 311 c 1
 124 325 74 370 74 467 c 0
 74 515 99 600 197 600 c 0
 256 600 293 560 293 499 c 0
 293 443 254 404 194 404 c 1
 152 429 l 1
 152 455 l 1
 194 455 l 2
 231 455 240 484 240 499 c 0
 240 518 231 547 197 547 c 0
 139 547 133 508 133 454 c 0xfb
 133 405 151 370 186 350 c 0
 221 331 266 321 320 321 c 0
 335 321 298 268 287 268 c 0
 277 268 207 290 187 290 c 0
 172 290 149 266 149 214 c 2
 149 171 l 2xf7
EndSplineSet
EndChar
StartChar: uni0E23
Encoding: 3619 3619 248
Width: 530
VWidth: 1473
Flags: W
HStem: -9 52<278.274 363.252> 153 52<277.676 317> 517 59<175.873 379.067> 535 54<123.389 322.535>
VStem: 44 56<395.586 510.779> 215 53<52.6459 145.108> 376 59<55.4809 291.71>
Fore
321 -9 m 0xde
 260 -9 215 42 215 97 c 0
 215 154 256 205 317 205 c 1
 357 177 l 1
 357 153 l 1
 317 153 l 2
 278 153 268 119 268 97 c 0
 268 69 287 43 321 43 c 0
 354 43 376 62 376 118 c 2
 376 237 l 2
 376 274 359 320 244 328 c 2
 176 334 l 2
 111 339 44 332 44 451 c 0
 44 531 96 589 174 589 c 0xde
 216 589 253 576 326 576 c 0
 365 576 409 582 457 603 c 1
 463 581 471 570 471 548 c 0
 471 542 467 537 458 533 c 1
 432 527 379 517 326 517 c 0xee
 250 517 212 535 174 535 c 0
 130 535 100 498 100 452 c 0
 100 364 136 400 290 377 c 0
 404 360 435 301 435 237 c 2
 435 118 l 2
 435 24 389 -9 321 -9 c 0xde
EndSplineSet
EndChar
StartChar: uni0E24
Encoding: 3620 3620 249
Width: 618
VWidth: 1473
Flags: W
HStem: -9 52<167.359 247.326> 150 52<209 247.634> 392 47<183.044 247.929> 547 51<206.108 417.584>
VStem: 74 57<439.018 496.832> 97 59<55.405 363.585> 256 53<64.4472 129.901> 479 59<-221 481.141>
Fore
256 97 m 256xf7
 256 116 247 150 209 150 c 2
 168 150 l 1
 168 174 l 1
 209 202 l 1
 269 202 309 154 309 97 c 256
 309 41 267 -9 205 -9 c 0
 162 -9 97 10 97 133 c 2
 97 262 l 2xf7
 97 330 108 359 144 395 c 1
 127 403 74 446 74 470 c 0
 74 504 164 598 311 598 c 0
 440 598 538 552 538 367 c 2
 538 -221 l 1
 479 -221 l 1
 479 367 l 2
 479 509 429 547 311 547 c 0
 209 547 131 488 131 473 c 0xfb
 131 458 167 420 177 420 c 0
 197 420 205 439 228 439 c 0
 241 439 264 392 249 392 c 0
 193 392 156 375 156 262 c 2
 156 113 l 2
 156 57 185 43 205 43 c 0
 246 43 256 77 256 97 c 256xf7
EndSplineSet
EndChar
StartChar: uni0E25
Encoding: 3621 3621 250
Width: 642
VWidth: 1473
Flags: W
HStem: -9 53<183.059 265.599> 136 51<227 263.98> 324 52<219.87 362.744> 545 52<236.004 438.24>
VStem: 106 53<70.3038 261.128> 271 53<49.1882 119.114> 498 59<289.519 487.587> 499 45<267 328.917>
Fore
557 408 m 0xfe
 557 320 544 320 544 233 c 0xfd
 544 222 545 207 547 186 c 2
 554 122 l 2
 564 19 578 0 557 0 c 2xfe
 499 0 l 1xfd
 499 246 388 324 314 324 c 0
 231.777 324 159 293 159 169 c 0
 159 59 200 44 228 44 c 0
 255 44 271 63 271 90 c 0
 271 106 262 136 227 136 c 2
 183 136 l 1
 183 162 l 1
 227 187 l 1
 284 187 324 150 324 90 c 0
 324 31 287 -9 228 -9 c 0
 179 -9 106 18 106 166 c 0
 106 334 224 376 309 376 c 0
 341 376 438 365 496 267 c 1
 496 309 498 323 498 408 c 0
 498 518 414 545 343 545 c 0
 249 545 176 502 131 448 c 0
 121 435 93 457 74 479 c 1
 107 524 233 597 336 597 c 0
 440 597 557 559 557 408 c 0xfe
EndSplineSet
EndChar
StartChar: uni0E26
Encoding: 3622 3622 251
Width: 665
VWidth: 1473
Flags: W
HStem: -9 52<95.7139 181.79> 147 49<96.166 130> 392 47<233.75 295.676> 547 51<253.108 464.584>
VStem: 37 51<51.1814 129.822> 121 57<439.193 496.832> 159 59<188.488 376.958> 192 57<51.9921 225.358> 526 59<-221 481.141>
Fore
140 -9 m 0xf980
 79 -9 37 37 37 94 c 256
 37 154 74 196 130 196 c 1
 164 171 l 1
 164 147 l 1
 130 147 l 2
 96 147 88 117 88 94 c 256
 88 74 98 43 140 43 c 0
 161 43 192 52 192 106 c 0xf980
 192 194 159 223 159 301 c 0xfa80
 159 343 167 370 192 395 c 1
 175 403 121 446 121 470 c 0
 121 504 211 598 358 598 c 0
 487 598 585 552 585 367 c 2
 585 -221 l 1
 526 -221 l 1
 526 367 l 2
 526 509 476 547 358 547 c 0
 256 547 178 488 178 473 c 0xfd80
 178 459 215 420 224 420 c 0
 244 420 252 439 275 439 c 0
 289 439 312 392 296 392 c 0
 234 392 218 366 218 299 c 0xfa80
 218 237 249 148 249 106 c 0
 249 14 191 -9 140 -9 c 0xf980
EndSplineSet
EndChar
StartChar: uni0E27
Encoding: 3623 3623 252
Width: 540
VWidth: 1473
Flags: W
HStem: -10 51<303.639 386.846> 150 52<301.737 340> 545 52<181.765 344.059>
VStem: 240 53<50.8682 141.782> 401 57<55.0918 312.561 312.561 486.657>
Fore
29 479 m 1
 66 530 185 597 261 597 c 0
 353 597 460 559 460 408 c 2
 460 370 l 2
 460 346 458 323 458 253 c 2
 458 116 l 2
 458 32 421 -10 346 -10 c 0
 285 -10 240 39 240 96 c 256
 240 158 286 202 340 202 c 1
 380 174 l 1
 380 150 l 1
 340 150 l 2
 312 150 293 127 293 96 c 256
 293 68 312 41 346 41 c 0
 368 41 401 57 401 116 c 2
 401 408 l 2
 401 531 301 545 270 545 c 0
 188 545 124 492 85 448 c 0
 71 430 33 474 29 479 c 1
EndSplineSet
EndChar
StartChar: uni0E28
Encoding: 3624 3624 253
Width: 623
VWidth: 1473
Flags: W
HStem: 0 21G<106 169 486 545> 202 51<300.848 371.993> 355 52<279.061 373.563> 547 51<216.23 426.676>
VStem: 74 59<307.889 461.444> 100 68<2.16211 59.999> 382 51<263.224 345.698> 486 59<0 486.111>
Fore
601 607 m 0xfb
 601 591 539 549 498 536 c 1
 520 509 545 465 545 348 c 2
 545 0 l 1
 486 0 l 1
 486 333 l 2
 486 493 465 547 309 547 c 0
 229 547 133 509 133 357 c 0xfb
 133 311 145 252 156 225 c 1
 177 278 225 407 334 407 c 0
 380 407 433 369 433 305 c 0
 433 245 386 202 330 202 c 0
 303 202 279 212 259 231 c 1
 253 277 l 1
 268 295 l 1
 296 268 l 2
 305 258 316 253 329 253 c 0
 360 253 382 277 382 306 c 0
 382 335 360 355 327 355 c 0
 247 355 170 186 168 0 c 1
 110 0 l 2
 102 0 100 4 100 21 c 0xf7
 100 42 106 87 118 128 c 2
 128 161 l 2
 142 198 121 186 90 260 c 0
 79 286 74 318 74 357 c 0
 74 519 180 598 309 598 c 0
 372 598 421 589 455 570 c 1
 486 585 527 616 554 639 c 1
 559 638 601 623 601 607 c 0xfb
EndSplineSet
EndChar
StartChar: uni0E29
Encoding: 3625 3625 254
Width: 720
VWidth: 1473
Flags: W
HStem: -9 52<298.844 533.068> 186 47<407.65 540.669> 330 49<398.828 456.97> 396 52<132.917 171> 557 51<136.432 216.845>
VStem: 72 53<468.887 546.271> 200 55<85.1072 327 424 438.177> 228 59<391.429 548.621> 348 50<243.778 328.71> 585 54<88.3151 169 169 245 278.207 589>
Fore
125 502 m 256xfdc0
 125 483 134 448 171 448 c 2
 205 448 l 1
 205 424 l 1
 171 396 l 1
 112 396 72 445 72 502 c 256
 72 566 124 608 180 608 c 0
 250 608 287 565 287 492 c 0xfdc0
 287 445.994 256 394.656 256 317 c 2
 255 187 l 2
 255 99.7772 259.452 43 418 43 c 256
 574 43 585 109.578 585 169 c 2
 585 245 l 1
 562 199 501 186 471 186 c 0
 405.106 186 348 208 348 296 c 0
 348 368 403 379 430 379 c 0
 466 379 505 362 505 296 c 1
 482 264 l 1
 458 264 l 1
 458 296 l 2
 458 316 452 330 430 330 c 0
 403 330 398 321 398 296 c 0
 398 248 419 233 467 233 c 0
 558 233 580 299 580 333 c 2
 580 589 l 1
 639 589 l 1
 639 194 l 2
 639 117.177 638 -9 418 -9 c 0
 200.063 -9 200 101.698 200 194 c 2
 200 327 l 2xfec0
 200 400 228 436 228 489 c 0
 228 546 199 557 180 557 c 0
 144 557 125 530 125 502 c 256xfdc0
EndSplineSet
EndChar
StartChar: uni0E2A
Encoding: 3626 3626 255
Width: 630
VWidth: 1473
Flags: W
HStem: -10 53<183.014 264.865> 134 52<227 263.156> 324 52<221.017 362.744> 545 52<236.004 438.089>
VStem: 106 53<66.9141 260.738> 271 53<58.6433 116.676> 498 59<289.519 488.283> 499 45<267 328.917>
Fore
314 324 m 0xfd
 233 324 159 293 159 168 c 0
 159 75 187 43 228 43 c 0
 262 43 271 70 271 88 c 0
 271 104 262 134 227 134 c 2
 183 134 l 1
 183 161 l 1
 227 186 l 1
 282 186 324 151 324 88 c 0
 324 31 288 -10 228 -10 c 0
 179 -10 106 17 106 165 c 0
 106 334 228 376 309 376 c 0
 341 376 438 365 496 267 c 1
 496 309 498 323 498 408 c 0
 498 518 414 545 343 545 c 0
 249 545 176 502 131 448 c 0
 121 435 93 457 74 479 c 1
 107 524 233 597 336 597 c 0
 403 597 448 580 471 567 c 1
 514.478 586.022 549.684 624.229 569 639 c 1
 575 638 616 621 616 607 c 0
 616 593 557 550 513 536 c 1
 542 507 557 464 557 408 c 0xfe
 557 320 544 320 544 233 c 0xfd
 544 222 545 207 547 186 c 2
 554 122 l 2
 564 19 578 0 557 0 c 2xfe
 499 0 l 1
 499 246 388 324 314 324 c 0xfd
EndSplineSet
EndChar
StartChar: uni0E2B
Encoding: 3627 3627 256
Width: 693
VWidth: 1473
Flags: W
HStem: 0 21G<178.5 239 554 613> 387 52<114.351 150> 548 52<115.547 197.901 495.719 576.83>
VStem: 52 53<458.633 537.297> 183 48<138 230.5 230.5 231.5 231.5 435.678> 208 59<392.853 538.656> 429 53<451.805 533.637> 554 59<0 346.216> 589 53<449.43 535.351>
Fore
105 494 m 256xf6
 105 472 114 439 150 439 c 2
 184 439 l 1
 184 415 l 1
 150 387 l 1
 91 387 52 436 52 494 c 256
 52 555 102 600 159 600 c 0
 230 600 267 557 267 483 c 0xf6
 267 446.531 236 393.5 236 323 c 2
 231 138 l 1
 243 164 308 295 494 382 c 1
 466 404 429 434 429 489 c 0
 429 552 469 598 536 598 c 0
 578 598 642 576 642 485 c 0xfa80
 642 443 628 414 580 380 c 1
 593 372 613 355 613 336 c 2
 613 0 l 1
 554 0 l 1
 554 334 l 2
 554 345 547 357 530 351 c 0
 398 294 239 144 239 18 c 2
 239 0 l 1
 189 0 l 2
 168 0 183 6 183 136 c 0xfb
 183 212 181 251 181 327 c 0
 181 396 208 443 208 480 c 0
 208 537 179 548 159 548 c 0
 125 548 105 522 105 494 c 256xf6
536 545 m 0
 502 545 482 517 482 489 c 0
 482 475 489 437 532 408 c 1
 585 442 589 467 589 482 c 0xf280
 589 511 578 545 536 545 c 0
EndSplineSet
EndChar
StartChar: uni0E2C
Encoding: 3628 3628 257
Width: 724
VWidth: 1473
Flags: W
HStem: 0 21G<170.5 236 588 648> 387 52<114.351 150> 548 52<115.547 197.901> 576 52<545.122 601.357>
VStem: 52 53<458.633 537.297> 178 58<0.0161133 15 70 93.9937 137.293 223.672 223.672 327 439 439.929> 208 59<396.269 538.656> 479 50<456.214 569.688> 588 65<1.32624 94.8546> 591 53<148.731 366.732> 605 52<492.5 572.984>
Fore
105 494 m 256xeb
 105 472 114 439 150 439 c 2
 184 439 l 1
 184 415 l 1
 150 387 l 1
 91 387 52 436 52 494 c 256
 52 555 102 600 159 600 c 0
 230 600 267 557 267 483 c 0xeb
 267 449 236 400 236 323 c 0
 236 286 231 156 231 137 c 1
 252 180 309 284 415 405 c 1
 459 357 548 250 597 130 c 1
 594 162 591 226 591 290 c 0xed40
 591 310 592 330 594 352 c 2
 600 402 l 1
 520 390 479 455 479 520 c 0
 479 608 552 628 572 628 c 0
 636 628 657 582 657 528 c 2
 657 517 l 1xd920
 648 454 l 1
 669 464 711 503 725 557 c 1
 740 552 758 543 766 527 c 1
 778 513 704 435 648 412 c 1
 648 363 644 363 644 169 c 0xd940
 644 115 647 62 653 21 c 0
 656 6 654 0 642 0 c 2
 588 0 l 1
 588 15 l 2
 588 80 516 204 415 340 c 1
 305 193 236 80 236 15 c 2
 236 0 l 1
 181 0 l 2
 160 0 176 22 178 70 c 0xdd80
 179 120 180 132 180 194 c 2
 180 327 l 2
 180 402 208 436 208 480 c 0
 208 537 179 548 159 548 c 0
 125 548 105 522 105 494 c 256xeb
572 576 m 256xd920
 555 576 529 568 529 519 c 0
 529 480 549 431 603 443 c 1
 604 458 605 504 605 519 c 0
 605 558 598 576 572 576 c 256xd920
EndSplineSet
Substitution2: "Single Substitution lookup 27 subtable" uni0E2C.alt1
Substitution2: "Single Substitution lookup 27 subtable" uni0E2C.alt1
EndChar
StartChar: uni0E2D
Encoding: 3629 3629 258
Width: 629
VWidth: 1473
Flags: W
HStem: -9 52<201.611 418.805> 181 52<214 251.532> 323 53<168.183 253.765> 545 52<212.035 416.453>
VStem: 91 59<96.6608 306.212> 259 53<249.535 317.454> 489 59<124.237 460.325>
Fore
65 479 m 1
 105 530 193 597 305 597 c 0
 491 597 548 510 548 289 c 0
 548 46 457 -9 320 -9 c 256
 149 -9 91 54 91 215 c 0
 91 292 116 376 217 376 c 0
 274 376 312 335 312 277 c 256
 312 217 272 181 214 181 c 1
 171 206 l 1
 171 233 l 1
 214 233 l 2
 250 233 259 262 259 277 c 0
 259 305 242 323 217 323 c 0
 177 323 150 303 150 215 c 0
 150 77 188 43 320 43 c 256
 455 43 489 109 489 289 c 0
 489 499 445 545 305 545 c 0
 242 545 188 526 122 448 c 0
 112 435 84 457 65 479 c 1
EndSplineSet
EndChar
StartChar: uni0E2E
Encoding: 3630 3630 259
Width: 629
VWidth: 1473
Flags: W
HStem: -9 52<210.087 417.128> 159 52<214 251.532> 301 53<168.401 253.765> 395 50<143.124 391.49> 545 52<157.813 411.712>
VStem: 80 57<454.736 522.819> 91 59<102.508 283.351> 259 53<227.535 295.454> 489 59<128.393 408.361>
Fore
317 -9 m 0xfd80
 196 -9 91 32 91 194 c 0
 91 288 126 354 217 354 c 0
 274 354 312 313 312 255 c 256
 312 195 272 159 214 159 c 1
 171 184 l 1
 171 211 l 1
 214 211 l 2
 250 211 259 240 259 255 c 0
 259 283 242 301 217 301 c 0
 177 301 150 280 150 194 c 0xfb80
 150 70 221 43 317 43 c 0
 445 43 489 101 489 289 c 0
 489 360 482 415 467 454 c 1
 407 415 341 395 270 395 c 0
 111 395 80 433 80 489 c 0
 80 575 167 597 290 597 c 0
 373 597 437 576 482 533 c 1
 503 555 522 581 539 610 c 1
 549 608 586 591 586 577 c 0
 586 564 533 510 513 491 c 1
 536 444 548 376 548 289 c 0
 548 52 456 -9 317 -9 c 0xfd80
137 492 m 0xfd80
 137 451 156 445 277 445 c 0
 327 445 394 457 449 496 c 1
 416 532 359 545 290 545 c 0
 210 545 137 534 137 492 c 0xfd80
EndSplineSet
EndChar
StartChar: uni0E2F
Encoding: 3631 3631 260
Width: 464
VWidth: 1473
Flags: W
HStem: 0 21G<320 382> 393 45<90.3036 230.443> 547 48<74.6605 128.529>
VStem: 24 48<456.792 544.314> 138 48<510 545.41> 320 62<0 482 515.424 547 547 588.2>
Fore
149 438 m 0
 202 438 321 479 321 589 c 1
 370 589 l 2
 392 589 382 581 382 547 c 2
 382 0 l 1
 320 0 l 1
 320 482 l 1
 307 461 251 393 147 393 c 0
 74 393 24 438 24 507 c 0
 24 577 77 595 108 595 c 0
 139 595 186 578 186 510 c 1
 162 467 l 1
 138 467 l 1
 138 510 l 2
 138 540 120 547 108 547 c 0
 84 547 72 534 72 507 c 0
 72 452 117 438 149 438 c 0
EndSplineSet
EndChar
StartChar: uni0E30
Encoding: 3632 3632 261
Width: 447
VWidth: 1473
Flags: W
HStem: 44 47<85.3006 257.105> 178 49<80.1072 134.827> 379 47<85.0804 258.765> 513 48<80.3294 134.408>
VStem: 29 49<101.074 175.091 436.074 511.109> 144 48<141 176.859 476 511.41>
Fore
161 426 m 0
 268 426 311 479 339 545 c 1
 404 530 l 1
 359 429 279 379 165 379 c 0
 49 379 29 437 29 476 c 0
 29 549 88 561 113 561 c 0
 147 561 192 544 192 476 c 1
 168 440 l 1
 144 440 l 1
 144 476 l 2
 144 506 125 513 113 513 c 0
 90 513 78 501 78 476 c 0
 78 446 91 426 161 426 c 0
161 91 m 0
 268 91 310 145 339 211 c 1
 404 196 l 1
 359 95 279 44 165 44 c 0
 50 44 29 102 29 141 c 0
 29 215 87 227 113 227 c 0
 147 227 192 210 192 141 c 1
 168 106 l 1
 144 106 l 1
 144 141 l 2
 144 174 124 178 113 178 c 0
 90 178 78 166 78 141 c 0
 78 111 91 91 161 91 c 0
EndSplineSet
EndChar
StartChar: uni0E31
Encoding: 3633 3633 262
Width: 0
VWidth: 1473
Flags: W
HStem: 670 46<-287.205 -97.9605> 816 49<-298.751 -245.475>
VStem: -351 49<732.22 813.561> -236 47<779 814.859>
Fore
-199 670 m 0
 -331 670 -351 734 -351 776 c 0
 -351 847 -297 865 -267 865 c 0
 -234 865 -189 848 -189 779 c 1
 -212 744 l 1
 -236 744 l 1
 -236 779 l 2
 -236 812 -256 816 -267 816 c 0
 -290 816 -302 803 -302 776 c 0
 -302 743 -284 716 -211 716 c 0
 -89 716 -26 771 1 844 c 1
 74 829 l 1
 34 754 -35 670 -199 670 c 0
EndSplineSet
Substitution2: "Single Substitution lookup 27 subtable" uni0E31.alt1
Substitution2: "Single Substitution lookup 27 subtable" uni0E31.alt1
EndChar
StartChar: uni0E32
Encoding: 3634 3634 263
Width: 493
VWidth: 1473
Flags: W
HStem: 0 21G<334 403.5> 547 51<142.249 292.575>
VStem: 334 61<0.0100861 309.688> 342 59<319.676 495.311>
Fore
395 186 m 2xe0
 395 13 415 0 392 0 c 2
 334 0 l 1
 334 225 l 2xe0
 334 299 342 336 342 410 c 0
 342 534 253 547 225 547 c 0
 173 547 122 528 56 449 c 0
 42 431 4 475 0 480 c 1
 37 534 143 598 217 598 c 0
 364 598 401 510 401 410 c 0xd0
 401 339 395 304 395 233 c 2
 395 186 l 2xe0
EndSplineSet
EndChar
StartChar: uni0E33
Encoding: 3635 3635 264
Width: 493
VWidth: 1473
Flags: W
HStem: 0 21G<334 403.5> 547 51<142.249 292.575> 688 49<-156.211 -74.0538> 837 48<-155.339 -74.6613>
VStem: -214 49<746.311 827.441> -65 49<746.046 827.441> 334 61<0.0100861 309.688> 342 59<319.676 495.311>
Fore
-115 885 m 256xfc
 -58 885 -16 840 -16 787 c 256
 -16 729 -61 688 -115 688 c 256
 -169 688 -214 729 -214 787 c 256
 -214 840 -172 885 -115 885 c 256xfc
-115 737 m 256
 -85 737 -65 760 -65 787 c 256
 -65 813 -86 837 -115 837 c 256
 -144 837 -165 813 -165 787 c 256
 -165 757 -142 737 -115 737 c 256
395 186 m 2xfe
 395 13 415 0 392 0 c 2
 334 0 l 1
 334 225 l 2xfe
 334 299 342 336 342 410 c 0
 342 534 253 547 225 547 c 0
 173 547 122 528 56 449 c 0
 42 431 4 475 0 480 c 1
 37 534 143 598 217 598 c 0
 364 598 401 510 401 410 c 0xfd
 401 339 395 304 395 233 c 2
 395 186 l 2xfe
EndSplineSet
Substitution2: "Single Substitution lookup 27 subtable" uni0E33.alt1
Substitution2: "Single Substitution lookup 27 subtable" uni0E33.alt1
EndChar
StartChar: uni0E34
Encoding: 3636 3636 265
Width: 0
VWidth: 1473
Flags: W
HStem: 644 47<-320.047 -125> 665 45<-491.513 -453.046 -472.28 -141.388> 806 47<-440.223 -223.986>
VStem: -550 481<670.22 687.485>
Fore
-433 670 m 0xb0
 -506 670 -527 665 -537 665 c 0x70
 -546 665 -550 671 -550 682 c 0
 -545 755 -508 853 -340 853 c 0
 -181 853 -69 768 -69 657 c 0
 -69 648 -74 644 -84 644 c 0
 -141 644 -284 670 -433 670 c 0xb0
-125 691 m 1xb0
 -139 752 -228 806 -345 806 c 0
 -455 806 -492 748 -492 710 c 1x70
 -467 712 -441 713 -414 713 c 0
 -288 713 -156 694 -125 691 c 1xb0
EndSplineSet
Substitution2: "Single Substitution lookup 27 subtable" uni0E34.alt1
Substitution2: "Single Substitution lookup 27 subtable" uni0E34.alt1
EndChar
StartChar: uni0E35
Encoding: 3637 3637 266
Width: 0
VWidth: 1473
Flags: W
HStem: 644 47<-321.312 -125> 665 45<-490.271 -454.046 -472.159 -141.324> 806 47<-440.223 -224.584>
VStem: -550 481<670.22 683.778> -146 64<793 887>
Fore
-431 670 m 0xb0
 -505 670 -526 665 -537 665 c 0
 -546 665 -550 671 -550 682 c 0x70
 -545 755 -508 853 -340 853 c 0
 -277 853 -189 829 -146 793 c 1
 -146 887 l 1
 -82 887 l 1
 -82 716 l 1x68
 -74 688 l 2
 -70 678 -69 668 -69 657 c 0
 -69 648 -74 644 -84 644 c 0
 -141 644 -283 670 -431 670 c 0xb0
-125 691 m 1xa0
 -139 752 -228 806 -345 806 c 0
 -455 806 -492 748 -492 710 c 1x60
 -468 712 -442 713 -416 713 c 0
 -289 713 -156 694 -125 691 c 1xa0
EndSplineSet
Substitution2: "Single Substitution lookup 27 subtable" uni0E35.alt1
Substitution2: "Single Substitution lookup 27 subtable" uni0E35.alt1
EndChar
StartChar: uni0E36
Encoding: 3638 3638 267
Width: 0
VWidth: 1473
Flags: W
HStem: 644 47<-321.312 -125> 665 45<-490.271 -454.046 -472.159 -133.99> 806 47<-440.223 -223.888> 869 41<-150.067 -79.0235>
VStem: -74 42<796.662 853.852>
Fore
-125 691 m 1xb8
 -139 752 -228 806 -345 806 c 0
 -455 806 -492 748 -492 710 c 1x78
 -468 712 -442 713 -416 713 c 0
 -289 713 -156 694 -125 691 c 1xb8
-431 670 m 0
 -505 670 -526 665 -537 665 c 0x78
 -546 665 -550 671 -550 682 c 0
 -545 755 -508 853 -340 853 c 0
 -282 853 -229 839 -196 824 c 1
 -196 870 -164 910 -115 910 c 256
 -69 910 -32 878 -32 825 c 0
 -32 782 -66 749 -99 744 c 1
 -78 716 -69 692 -69 657 c 0
 -69 648 -74 644 -84 644 c 0xb8
 -141 644 -283 670 -431 670 c 0
-115 781 m 256
 -82 781 -74 809 -74 825 c 256
 -74 841 -82 869 -115 869 c 256
 -147 869 -155 841 -155 825 c 256
 -155 809 -147 781 -115 781 c 256
EndSplineSet
Substitution2: "Single Substitution lookup 27 subtable" uni0E36.alt1
Substitution2: "Single Substitution lookup 27 subtable" uni0E36.alt1
EndChar
StartChar: uni0E37
Encoding: 3639 3639 268
Width: 0
VWidth: 1473
Flags: W
HStem: 644 47<-321.312 -125> 665 45<-490.271 -454.046 -472.159 -133.99> 806 47<-440.223 -286.692>
VStem: -550 481<670.22 683.778> -268 63<841 894> -146 64<791 894>
Fore
-125 691 m 1xa0
 -139 752 -228 806 -345 806 c 0
 -455 806 -492 748 -492 710 c 1x60
 -468 712 -442 713 -416 713 c 0
 -289 713 -156 694 -125 691 c 1xa0
-431 670 m 0
 -505 670 -526 665 -537 665 c 0
 -546 665 -550 671 -550 682 c 0x70
 -545 755 -508 853 -340 853 c 0
 -326 853 -287 850 -268 841 c 1
 -268 894 l 1
 -205 894 l 1
 -205 824 l 1
 -193 819 -182 813 -172 807 c 2
 -146 791 l 1
 -146 894 l 1
 -82 894 l 1
 -82 716 l 1x6c
 -74 688 l 2
 -70 678 -69 668 -69 657 c 0
 -69 648 -74 644 -84 644 c 0xb0
 -141 644 -283 670 -431 670 c 0
EndSplineSet
Substitution2: "Single Substitution lookup 27 subtable" uni0E37.alt1
Substitution2: "Single Substitution lookup 27 subtable" uni0E37.alt1
EndChar
StartChar: uni0E38
Encoding: 3640 3640 269
Width: 0
VWidth: 1473
Flags: W
HStem: -99 39<-191.643 -130.339>
VStem: -233 39<-168.285 -109.658> -149 56<-309 -141.305 -309 -60 -309 -309> -127 45<-218.651 -111.079>
Fore
-82 -138 m 0xd0
 -82 -184 -93 -175 -93 -221 c 2
 -93 -309 l 1
 -149 -309 l 1
 -149 -220 l 2xe0
 -149 -186 -127 -168 -127 -140 c 0
 -127 -122 -134 -99 -161 -99 c 256
 -187 -99 -194 -120 -194 -136 c 0
 -194 -156 -180 -165 -171 -169 c 2
 -155 -177 l 1
 -162 -193 l 1
 -190 -194 l 1
 -215 -189 -233 -168 -233 -136 c 0
 -233 -90 -200 -60 -156 -60 c 0
 -111 -63 -82 -93 -82 -138 c 0xd0
EndSplineSet
Substitution2: "Single Substitution lookup 26 subtable" a
Substitution2: "Single Substitution lookup 27 subtable" uni0E38.alt1
Substitution2: "Single Substitution lookup 26 subtable" a
Substitution2: "Single Substitution lookup 27 subtable" uni0E38.alt1
EndChar
StartChar: uni0E39
Encoding: 3641 3641 270
Width: 0
VWidth: 1473
Flags: W
HStem: -293 31<-229.157 -138.103> -99 39<-312.684 -250.172>
VStem: -354 39<-152.343 -100.827> -287 57<-258.763 -181.916> -247 41<-185.11 -110.794> -138 56<-258.532 -69>
Fore
-182 -293 m 2xf4
 -189 -293 l 2
 -233 -293 -287 -293 -287 -247 c 2
 -287 -228 l 2xf4
 -287 -187 -247 -180 -247 -137 c 0
 -247 -123 -254 -99 -280 -99 c 0
 -303 -99 -315 -111 -315 -136 c 0
 -315 -145 -311 -153 -302 -162 c 2
 -286 -177 l 1
 -298 -192 l 1
 -329 -186 l 1
 -346 -171 -354 -154 -354 -134 c 0
 -354 -83 -317 -60 -281 -60 c 0
 -232 -60 -206 -99 -206 -136 c 0xec
 -206 -173 -230 -179 -230 -242 c 0
 -230 -254 -218 -262 -184 -262 c 256
 -150 -262 -138 -254 -138 -242 c 2
 -138 -69 l 1
 -82 -69 l 1
 -82 -247 l 2
 -82 -292 -140 -293 -182 -293 c 2xf4
EndSplineSet
Substitution2: "Single Substitution lookup 26 subtable" b
Substitution2: "Single Substitution lookup 27 subtable" uni0E39.alt1
Substitution2: "Single Substitution lookup 26 subtable" b
Substitution2: "Single Substitution lookup 27 subtable" uni0E39.alt1
EndChar
StartChar: uni0E3A
Encoding: 3642 3642 271
Width: 0
VWidth: 1473
Flags: W
HStem: -206 118<-159.868 -64.1318>
VStem: -174 124<-191.593 -102.407>
Fore
-112 -88 m 256
 -76.7686 -88 -50 -114.472 -50 -147 c 256
 -50 -182.4 -80.7 -206 -112 -206 c 256
 -147.231 -206 -174 -179.528 -174 -147 c 256
 -174 -111.6 -143.3 -88 -112 -88 c 256
EndSplineSet
Substitution2: "Single Substitution lookup 26 subtable" c
Substitution2: "Single Substitution lookup 27 subtable" uni0E3A.alt1
Substitution2: "Single Substitution lookup 26 subtable" c
Substitution2: "Single Substitution lookup 27 subtable" uni0E3A.alt1
EndChar
StartChar: uni0E3F
Encoding: 3647 3647 272
Width: 629
VWidth: 1473
Flags: W
HStem: 0 62<162 286 339 441.886> 382 58<165 286 339 432.959> 650 66<165 286 339 438.313>
VStem: 88 74<62 382 440 650> 286 53<-133 0 62 380 440 650 716 857> 470 74<473.165 619.03> 511 74<126.683 313.901>
Fore
544 557 m 0xfc
 544 475 506 431 457 414 c 1
 526 399 585 313 585 228 c 0xfa
 585 118 537 0 339 0 c 1
 339 -133 l 1
 286 -133 l 1
 286 0 l 1
 88 0 l 1
 88 716 l 1
 286 716 l 1
 286 857 l 1
 339 857 l 1
 339 716 l 1
 487 716 544 652 544 557 c 0xfc
286 382 m 1
 162 382 l 1
 162 62 l 1
 286 62 l 1
 286 382 l 1
286 650 m 1
 165 650 l 1
 165 440 l 1
 286 440 l 1
 286 650 l 1
470 557 m 0xfc
 470 637 412 650 339 650 c 1
 339 440 l 1
 453 447 470 479 470 557 c 0xfc
339 62 m 1
 457 66 511 108 511 228 c 0xfa
 511 353 423 377 339 380 c 1
 339 62 l 1
EndSplineSet
EndChar
StartChar: uni0E40
Encoding: 3648 3648 273
Width: 313
VWidth: 1473
Flags: W
HStem: -1 58<155.114 239.331> 152 59<205 239.413> 569 20G<90 151>
VStem: 85 59<65.4094 272.693 540.079 587.251> 96 60<259.38 544.31> 247 59<64.1195 146.174>
Fore
82 580 m 0xec
 82 587 87 589 93 589 c 2
 150 589 l 1
 152 539 156 442 156 371 c 0xec
 156 292 144 152 144 125 c 0
 144 88 155 57 200 57 c 0
 226 57 247 76 247 105 c 256
 247 133 230 152 205 152 c 2
 162 152 l 1
 162 178 l 1
 205 211 l 1
 266 211 306 162 306 105 c 256
 306 42 259 -1 200 -1 c 256
 166 -1 85 13 85 125 c 0xf4
 92 244 96 268 96 364 c 0
 96 462.044 82 558.4 82 580 c 0xec
EndSplineSet
EndChar
StartChar: uni0E41
Encoding: 3649 3649 274
Width: 608
VWidth: 1473
Flags: W
HStem: -1 58<155.114 239.331 450.114 534.331> 152 59<205 239.413 500 534.413> 569 20G<90 151 385 446>
VStem: 85 59<65.4094 272.693 540.079 587.251> 96 60<259.38 544.31> 247 59<64.1195 146.174> 380 59<65.4094 272.693 540.079 587.251> 391 60<259.38 544.31> 542 59<64.1195 146.174>
Fore
377 580 m 0xe580
 377 587 382 589 388 589 c 2
 445 589 l 1
 447 539 451 442 451 371 c 0xe580
 451 292 439 152 439 125 c 0
 439 88 450 57 495 57 c 0
 521 57 542 76 542 105 c 256
 542 133 525 152 500 152 c 2
 457 152 l 1
 457 178 l 1
 500 211 l 1
 561 211 601 162 601 105 c 256
 601 42 554 -1 495 -1 c 256
 461 -1 380 13 380 125 c 0xe680
 387 244 391 268 391 364 c 0
 391 462.044 377 558.4 377 580 c 0xe580
82 580 m 0
 82 587 87 589 93 589 c 2
 150 589 l 1
 152 539 156 442 156 371 c 0xec80
 156 292 144 152 144 125 c 0
 144 88 155 57 200 57 c 0
 226 57 247 76 247 105 c 256
 247 133 230 152 205 152 c 2
 162 152 l 1
 162 178 l 1
 205 211 l 1
 266 211 306 162 306 105 c 256
 306 42 259 -1 200 -1 c 256
 166 -1 85 13 85 125 c 0xf480
 92 244 96 268 96 364 c 0xec80
 96 462.044 82 558.4 82 580 c 0
EndSplineSet
EndChar
StartChar: uni0E42
Encoding: 3650 3650 275
Width: 313
VWidth: 1473
Flags: W
HStem: -1 58<155.151 239.331> 152 59<205 239.413> 924 59<69.5816 246.672> 938 55<13.9452 192.442>
VStem: -55 54<831.668 921.339> 85 59<67.1419 185.25 180.5 190 190 236 255 433.295> 96 60<311.406 636.954 636.954 723.716> 247 59<64.1195 146.174>
Fore
247 105 m 256xdd
 247 133 230 152 205 152 c 2
 162 152 l 1
 162 178 l 1
 205 211 l 1
 266 211 306 162 306 105 c 256
 306 42 259 -1 200 -1 c 256
 166 -1 85 13 85 125 c 2xdd
 91 236 l 2
 94 276 96 337 96 438 c 2
 96 685 l 2
 96 704 99 773 24 784 c 0
 -27 792 -55 795 -55 869 c 0
 -55 968 23 993 66 993 c 0xdb
 118 993 118 983 196 983 c 0
 238 983 275 991 298 1006 c 1
 302 991 312 973 312 952 c 0
 312 930 236 924 196 924 c 0xeb
 120 924 107 938 69 938 c 0
 38 938 -1 924 -1 869 c 0
 -1 836 3 832 57 825 c 0
 92 820 121 801 140 768 c 0
 150 749 155 722 155 685 c 0
 156 652 156 620 156 589 c 2
 156 445 l 2xdb
 156 407 154 331 150 255 c 2
 144 125 l 2
 144 87.8969 155.2 57 200 57 c 0
 226 57 247 76 247 105 c 256xdd
EndSplineSet
EndChar
StartChar: uni0E43
Encoding: 3651 3651 276
Width: 321
VWidth: 1473
Flags: W
HStem: -1 58<155.151 239.331> 152 59<205 239.413> 770 54<8.31876 70.6014> 947 49<21.1667 170.554>
VStem: -52 53<829.287 926.861> 85 59<67.1419 185.25 180.5 190 190 236 255 433.295> 96 60<311.406 575.477 575.477 679.466> 196 57<763.237 922.254> 247 59<64.1195 146.174>
Fore
247 105 m 256xfc80
 247 133 230 152 205 152 c 2
 162 152 l 1
 162 178 l 1
 205 211 l 1
 266 211 306 162 306 105 c 256
 306 42 259 -1 200 -1 c 256
 166 -1 85 13 85 125 c 2xfc80
 91 236 l 2
 94 276 96 337 96 438 c 2
 96 603 l 2
 96 745 196 715 196 847 c 0
 196 910 178 947 90 947 c 0
 48.982 947 1 932.4 1 874 c 0
 1 847 15 824 43 824 c 0
 58 824 87 833 87 869 c 2
 87 912 l 1
 112 912 l 1
 138 869 l 1
 138 811 104 770 43 770 c 256
 -18 770 -52 818 -52 874 c 0
 -52 924 -10 996 96 996 c 0
 222 996 253 915 253 852 c 0
 253 714 155 715 155 603 c 0
 156 584 156 566 156 548 c 2
 156 445 l 2xfb
 156 407 154 331 150 255 c 2
 144 125 l 2
 144 87.8969 155.2 57 200 57 c 0
 226 57 247 76 247 105 c 256xfc80
EndSplineSet
EndChar
StartChar: uni0E44
Encoding: 3652 3652 277
Width: 313
VWidth: 1473
Flags: W
HStem: -1 58<155.151 239.331> 152 59<205 239.413>
VStem: -60 61<887.668 984> 85 59<67.1419 185.25 180.5 190 190 236 255 433.295> 96 60<311.406 570.554> 127 57<828.891 899.672 942.508 998.4> 247 59<64.1195 146.174>
Fore
247 105 m 256xf2
 247 133 230 152 205 152 c 2
 162 152 l 1
 162 178 l 1
 205 211 l 1
 266 211 306 162 306 105 c 256
 306 42 259 -1 200 -1 c 256
 166 -1 85 13 85 125 c 2xf2
 91 236 l 2
 94 276 96 337 96 438 c 0xea
 96 543 102 662 119 760 c 2
 130 825 l 2
 133 846 134 863 134 878 c 0
 134 886 134 893 133 900 c 1
 104 852 78 818 31 776 c 1
 14.5619 803.945 -34.8933 897.521 -60 984 c 1
 -45 996 -2 1021 1 999 c 0
 22 901 41 864 49 852 c 1
 69 875 127 949 127 984 c 2
 127 999 l 1
 175 999 l 2
 196 999 182 983 184 931 c 2
 184 856 l 2xe6
 184 827 182 800 180 774 c 2
 170 692 l 2
 156 570 156 494 156 445 c 0xea
 156 407 154 331 150 255 c 2
 144 125 l 2
 144 87.8969 155.2 57 200 57 c 0
 226 57 247 76 247 105 c 256xf2
EndSplineSet
EndChar
StartChar: uni0E45
Encoding: 3653 3653 278
Width: 493
VWidth: 1473
Flags: W
HStem: 547 51<142.249 292.575>
VStem: 342 57<37.2873 82.5617 82.5617 317.5 317.5 321.5 319.5 495.311> 343 68<-219.973 -139.322>
Fore
401 410 m 0xc0
 401 339 399 304 399 233 c 0xc0
 399 142 407 -171 411 -200 c 0
 414 -215 413 -221 401 -221 c 2
 343 -221 l 1xa0
 343 -149 343 -83 342 -22 c 0
 342 46 339 101 339 188 c 2
 339 225 l 2
 339 299 342 336 342 410 c 0
 342 534 253 547 225 547 c 0
 173 547 122 528 56 449 c 0
 42 431 4 475 0 480 c 1
 37 534 143 598 217 598 c 0
 364 598 401 510 401 410 c 0xc0
EndSplineSet
EndChar
StartChar: uni0E46
Encoding: 3654 3654 279
Width: 447
VWidth: 1473
Flags: W
HStem: 386 52<103.416 171.744> 538 53<104.462 147> 547 42<292 318.577>
VStem: 44 52<445.562 530.064> 314 66<-191.402 444.463> 324 62<-33.2994 545.481>
Fore
141 386 m 0xd4
 83 386 44 432 44 488 c 0
 44 550 100 591 147 591 c 1xd4
 221 532 l 1
 283 589 l 1
 301 589 l 2
 368 589 386 559 386 461 c 0xb4
 386 118 380 176 380 -110 c 2
 380 -150 l 2
 380 -175 391 -192 371 -192 c 2
 314 -192 l 1xb8
 325 145 324 165 324 458 c 0
 324 540 319 547 292 547 c 1xb4
 221 480 l 1
 149 538 l 1
 115 538 96 517 96 489 c 0
 96 459 114 438 143 438 c 0
 157 438 168 443 177 452 c 2
 199 483 l 1
 218 471 l 1
 212 418 l 1
 197 396 174 386 141 386 c 0xd4
EndSplineSet
EndChar
StartChar: uni0E47
Encoding: 3655 3655 280
Width: 0
VWidth: 1473
Flags: W
HStem: 676 36<-285.565 -170.332> 816 38<-217.493 -158.317> 882 46<-404.91 -298.146 -301.792 -294.5 -298.146 -170.778>
VStem: -473 50<732.045 863.451> -259 39<764.838 813.995> -155 45<727.049 796.833>
Fore
-336 796 m 1
 -291 724 -261 712 -221 712 c 0
 -181 712 -155 738 -155 776 c 0
 -155 790 -160 816 -186 816 c 0
 -209 816 -220 804 -220 779 c 0
 -220 772 -215 763 -206 754 c 2
 -190 740 l 1
 -202 725 l 1
 -233 731 l 1
 -250 746 -259 763 -259 781 c 0
 -259 827 -231 854 -187 854 c 0
 -124 852 -110 798 -110 778 c 0
 -110 707 -165 676 -222 676 c 0
 -266 676 -302 688 -334 738 c 1
 -373 681 l 1
 -411 681 l 1
 -430 686 -473 715 -473 798 c 0
 -473 902 -411 928 -348 928 c 0
 -293 928 -302 922 -256 922 c 0
 -199 922 -146 939 -146 1006 c 1
 -118 1009 -75 1005 -80 984 c 0
 -90 940 -117 877 -247 877 c 0
 -285 877 -304 882 -342 882 c 0
 -388 882 -423 866 -423 801 c 0
 -423 755 -405 733 -393 723 c 1
 -336 796 l 1
EndSplineSet
Substitution2: "Single Substitution lookup 27 subtable" uni0E47.alt1
Substitution2: "Single Substitution lookup 27 subtable" uni0E47.alt1
EndChar
StartChar: uni0E48
Encoding: 3656 3656 281
Width: 0
VWidth: 1473
Flags: W
HStem: 958 200<-138 -97>
VStem: -152 68<1043.5 1158 1072 1158 1072 1072>
Fore
-138 958 m 1
 -152 1072 l 1
 -152 1158 l 1
 -84 1158 l 1
 -84 1072 l 1
 -97 958 l 1
 -138 958 l 1
EndSplineSet
Substitution2: "Single Substitution lookup 27 subtable" uni0E48.alt2
Substitution2: "Single Substitution lookup 27 subtable" uni0E48.alt2
EndChar
StartChar: uni0E49
Encoding: 3657 3657 282
Width: 0
VWidth: 1473
Flags: W
HStem: 943 37<-263.703 -147.595> 1111 38<-282.01 -223.749>
VStem: -324 40<1062.72 1109.06> -221 43<1024.16 1101.93> -66 59<1040.91 1143>
Fore
-320 994 m 0
 -292 996 -221 1010 -221 1074 c 0
 -221 1091 -227 1111 -250 1111 c 0
 -273 1111 -284 1100 -284 1077 c 0
 -284 1070 -280 1062 -271 1053 c 2
 -255 1039 l 1
 -267 1024 l 1
 -298 1030 l 1
 -315 1045 -324 1061 -324 1078 c 0
 -324 1124 -295 1149 -252 1149 c 0
 -191 1147 -178 1099 -178 1075 c 0
 -178 1025 -208 991 -264 980 c 1
 -239 980 l 2
 -178 980 -98 990 -66 1143 c 1
 -7 1143 l 1
 -47 1005 -100 943 -239 943 c 0
 -249 943 -302 943 -339 955 c 1
 -339 963 -334 988 -331 996 c 1
 -328 995 -324 994 -320 994 c 0
EndSplineSet
Substitution2: "Single Substitution lookup 27 subtable" uni0E49.alt2
Substitution2: "Single Substitution lookup 27 subtable" uni0E49.alt2
EndChar
StartChar: uni0E4A
Encoding: 3658 3658 283
Width: 0
VWidth: 1473
Flags: W
HStem: 925 38<-316.166 -257.439> 1089 42<-306.323 -228.256 -181.075 -127.303>
VStem: -361 40<978.003 1075.11> -256 39<964.085 1013.92> -122 48<969.99 1080.82>
Fore
-321 1011 m 0
 -321 990 -313 963 -283 963 c 0
 -265 963 -256 974 -256 997 c 0
 -256 1009 -264 1020 -271 1027 c 2
 -289 1043 l 1
 -277 1058 l 1
 -245 1050 l 1
 -219 1026 -217 1009 -217 999 c 0
 -217 964 -230 925 -284 925 c 0
 -346 925 -361 978 -361 1019 c 0
 -361 1099 -304 1131 -264 1131 c 0
 -224 1131 -205 1107 -197 1084 c 1
 -190 1109 -173 1130 -138 1130 c 0
 -112 1130 -95 1121 -86 1102 c 0
 -78 1083 -74 1064 -74 1043 c 0
 -74 1017 -76 1002 -85 977 c 1
 -50 1001 -18 1099 -34 1167 c 1
 12 1167 l 2
 24 1167 27 1165 27 1149 c 0
 27 1047 -38 959 -85 937 c 1
 -124 937 l 2
 -135 937 -122 950 -122 1019 c 0
 -122 1076 -133 1087 -149 1087 c 0
 -174 1087 -192 1053 -199 1036 c 1
 -220 1086 -243 1089 -261 1089 c 0
 -285 1089 -321 1077 -321 1011 c 0
EndSplineSet
Substitution2: "Single Substitution lookup 27 subtable" uni0E4A.alt2
Substitution2: "Single Substitution lookup 27 subtable" uni0E4A.alt2
EndChar
StartChar: uni0E4B
Encoding: 3659 3659 284
Width: 0
VWidth: 1473
Flags: W
HStem: 949 215<-134 -93 -147 -93 -81 -81> 1036 47<-228 -147 -81 0>
VStem: -228 228<1036 1083> -147 66<1083 1164>
Fore
0 1036 m 1x60
 -84 1036 l 1x60
 -93 949 l 1
 -134 949 l 1xa0
 -143 1036 l 1
 -228 1036 l 1
 -228 1083 l 1x60
 -147 1083 l 1x50
 -147 1164 l 1
 -81 1164 l 1x90
 -81 1083 l 1x50
 0 1083 l 1
 0 1036 l 1x60
EndSplineSet
Substitution2: "Single Substitution lookup 27 subtable" uni0E4B.alt2
Substitution2: "Single Substitution lookup 27 subtable" uni0E4B.alt2
EndChar
StartChar: uni0E4C
Encoding: 3660 3660 285
Width: 0
VWidth: 1473
Flags: W
HStem: 910 269<-158 -91 -91 -91> 910 42<-192.004 -121.597>
VStem: -240 43<962.668 1024.39> -119 41<955.041 1026.42>
Fore
-119 989 m 0x70
 -119 1018 -137 1031 -144 1037 c 1
 -130 1049 l 1
 -97 1044 l 1
 -83 1031 -78 1014 -78 989 c 0
 -78 942 -114 910 -158 910 c 0
 -227 913 -240 970 -240 991 c 0
 -240 1081 -153 1085 -118 1111 c 0
 -99 1124 -91 1144 -91 1179 c 1
 -46 1179 l 2xb0
 -35 1179 -35 1173 -38 1162 c 0
 -54 1082 -91 1081 -165 1044 c 0
 -192 1030 -197 1007 -197 994 c 0
 -197 969 -182 952 -159 952 c 0
 -135 952 -119 965 -119 989 c 0x70
EndSplineSet
Substitution2: "Single Substitution lookup 27 subtable" uni0E4C.alt2
Substitution2: "Single Substitution lookup 27 subtable" uni0E4C.alt2
EndChar
StartChar: uni0E4D
Encoding: 3661 3661 286
Width: 0
VWidth: 1473
Flags: W
HStem: 688 49<-155.829 -74.1687> 837 48<-155.352 -74.6457>
VStem: -214 49<746.356 827.527> -65 49<746.352 827.521>
Fore
-115 885 m 256
 -58.1486 885 -16 840.234 -16 787 c 256
 -16 729.036 -61.4037 688 -115 688 c 256
 -168.611 688 -214 729.08 -214 787 c 256
 -214 840.264 -171.82 885 -115 885 c 256
-115 737 m 256
 -85.2013 737 -65 759.716 -65 787 c 256
 -65 813.222 -85.6633 837 -115 837 c 256
 -144.368 837 -165 813.221 -165 787 c 256
 -165 757.202 -142.283 737 -115 737 c 256
EndSplineSet
Substitution2: "Single Substitution lookup 27 subtable" uni0E4D.alt1
Substitution2: "Single Substitution lookup 27 subtable" uni0E4D.alt1
EndChar
StartChar: uni0E4E
Encoding: 3662 3662 287
Width: 0
VWidth: 1473
Flags: W
HStem: 667 39<-247.55 -195.443> 819 39<-196.013 -153.141> 926 47<-183.334 -99.3101>
VStem: -299 47<718.646 796.903> -256 47<860.186 915.215> -186 40<708.148 755.897>
Fore
-218 706 m 0xf4
 -205 706 -186 713 -186 741 c 0
 -186 749 -190 757 -199 766 c 2
 -215 781 l 1
 -203 796 l 1
 -172 790 l 1
 -155 774 -146 757 -146 740 c 0
 -146 693 -183 667 -225 667 c 0
 -282 667 -299 719 -299 744 c 0xf4
 -299 816 -232 839 -214 841 c 1
 -236 841 -256 859 -256 885 c 0
 -256 938 -197 973 -126 973 c 2
 -69 965 l 1
 -58 960 -55 964 -55 950 c 0
 -55 939.06 -64.8448 916.851 -66 913 c 1
 -84 921 -107 926 -133 926 c 0
 -160 926 -209 919 -209 887 c 0xec
 -209 865 -198 858 -163 858 c 0
 -156 858 -149 858 -143 859 c 1
 -147 834 -152 822 -153 818 c 1
 -156 819 -160 819 -164 819 c 2
 -174 819 l 2
 -190 819 -252 809 -252 745 c 0
 -252 734 -245 706 -218 706 c 0xf4
EndSplineSet
Substitution2: "Single Substitution lookup 27 subtable" uni0E4E.alt1
Substitution2: "Single Substitution lookup 27 subtable" uni0E4E.alt1
EndChar
StartChar: uni0E4F
Encoding: 3663 3663 288
Width: 708
VWidth: 1473
Flags: W
HStem: 43 57<261.065 443.935> 186 53<303.734 409.097> 389 54<304.005 408.328> 524 58<263.109 446.515>
VStem: 81 63<219.324 402.293> 227 54<261.877 366.211> 432 54<261.86 365.916> 564 64<218.661 407.27>
Fore
81 311 m 0
 81 466 207 582 355 582 c 0
 499 582 628 468 628 311 c 0
 628 160 504 43 355 43 c 0
 202 43 81 162 81 311 c 0
144 311 m 256
 144 196 235 100 355 100 c 0
 461 100 564 184 564 311 c 256
 564 438 463 524 355 524 c 0
 229 524 144 421 144 311 c 256
227 315 m 0
 227 388 286 443 357 443 c 256
 429 443 486 386 486 315 c 0
 486 237 425 186 357 186 c 256
 286 186 227 238 227 315 c 0
281 315 m 0
 281 270 316 239 357 239 c 256
 397 239 432 271 432 315 c 0
 432 358 396 389 357 389 c 256
 314 389 281 354 281 315 c 0
EndSplineSet
EndChar
StartChar: uni0E50
Encoding: 3664 3664 289
Width: 621
VWidth: 1473
Flags: W
HStem: -12 52<212.914 408.866> 432 51<213.574 408.207>
VStem: 52 72<131.309 340.638> 498 72<131.309 340.638>
Fore
311 483 m 256
 419 483 570 434 570 236 c 256
 570 38 419 -12 311 -12 c 256
 203 -12 52 38 52 236 c 256
 52 434 203 483 311 483 c 256
311 40 m 256
 401 40 498 79 498 236 c 256
 498 393 398 432 311 432 c 256
 223 432 124 393 124 236 c 256
 124 79 220 40 311 40 c 256
EndSplineSet
EndChar
StartChar: uni0E51
Encoding: 3665 3665 290
Width: 620
VWidth: 1473
Flags: W
HStem: 35 49<164.838 305.064> 187 49<250.222 314.478> 426 54<206.114 407.887>
VStem: 52 64<137.296 337.065> 190 47<147 181.219> 320 47<99.9276 181.155> 499 70<104.493 330.37>
Fore
231 84 m 0
 275 84 320 96 320 144 c 0
 320 169 300 187 278 187 c 256
 262 187 237 179 237 147 c 2
 237 108 l 1
 214 108 l 1
 190 147 l 1
 190 200 227 236 278 236 c 0
 331 236 367 197 367 144 c 0
 367 68 313 35 234 35 c 0
 165 35 52 71 52 242 c 256
 52 401 172 480 315 480 c 0
 465 480 569 395 569 221 c 0
 569 132 543 62 492 8 c 0
 407 -79 291 -112 276 -112 c 0
 249 -112 234 -87 224 -49 c 1
 378 -15 499 33 499 221 c 0
 499 385 401 426 309 426 c 0
 219 426 116 388 116 237 c 0
 116 153 147 84 231 84 c 0
EndSplineSet
EndChar
StartChar: uni0E52
Encoding: 3666 3666 291
Width: 658
VWidth: 1473
Flags: W
HStem: -9 52<259.59 432.193> 124 53<266.204 356.652> 268 52<320 357.918>
VStem: 66 62<84.0482 471.901> 186 59<199.276 357.225> 364 53<184.387 250.676> 538 62<123.224 405.626>
Fore
364 222 m 0
 364 238 355 268 320 268 c 2
 275 268 l 1
 275 295 l 1
 320 320 l 1
 374 320 417 285 417 222 c 0
 417 166 377 124 317 124 c 0
 265 124 186 145 186 284 c 0
 186 352 209 425 317 473 c 1
 407 395 l 1
 482 471 l 1
 499 471 l 2
 550 471 600 439 600 380 c 2
 600 194 l 2
 600 67 588 9 378 -6 c 0
 356 -8 338 -9 324 -9 c 0
 302 -9 146 -7 96 52 c 0
 79 71 66 102 66 194 c 2
 66 333 l 2
 66 435 44 508 -22 567 c 1
 -5 586 20 605 40 605 c 0
 65 605 132 522 128 359 c 2
 128 187 l 2
 128 81 148 68 223 52 c 0
 262 44 304 43 324 43 c 256
 408 43 496 58 517 82 c 0
 534 103 538 131 538 169 c 2
 538 368 l 2
 538 400 506 414 491 414 c 1
 407 329 l 1
 318 405 l 1
 309 399 245 364 245 287 c 0
 245 224 259 177 317 177 c 0
 345 177 364 197 364 222 c 0
EndSplineSet
EndChar
StartChar: uni0E53
Encoding: 3667 3667 292
Width: 606
VWidth: 1473
Flags: W
HStem: -9 53<138.476 229.098> 136 51<192 229.516> 418 53<138.069 243.664 386.012 469.189>
VStem: 59 59<64.6491 152 152 397.545> 236 53<51.3355 118.4> 485 63<0 361.171>
Fore
236 90 m 0
 236 106 227 136 192 136 c 2
 149 136 l 1
 149 162 l 1
 192 187 l 1
 245 187 289 152 289 90 c 0
 289 31 247 -9 189 -9 c 0
 137 -9 59 14 59 152 c 2
 59 306 l 2
 59 388 85 471 190 471 c 0
 253 471 294 445 315 323 c 1
 338 455 389 471 439 471 c 0
 526 471 548 395 548 329 c 2
 548 0 l 1
 485 0 l 1
 485 320 l 2
 485 357 478 418 435 418 c 0
 376 418 346 357 336 215 c 1
 296 215 l 1
 281 341 272 418 180 418 c 256
 143 418 118 390 118 301 c 2
 118 155 l 2
 118 96 128 44 189 44 c 0
 217 44 236 65 236 90 c 0
EndSplineSet
EndChar
StartChar: uni0E54
Encoding: 3668 3668 293
Width: 627
VWidth: 1473
Flags: W
HStem: -6 53<176.597 345.629 494.608 570> 18 48<375.513 499.831> 265 50<317.782 387.347> 413 56<181.892 327.209 322.963 331.454 327.209 457.778>
VStem: 52 64<114.611 344.711> 240 56<133.058 255.295> 395 45<190.635 257.691>
Fore
269 469 m 0xbe
 291.2 469 291.2 467 380 467 c 0
 488 467 513 554 532 614 c 1
 549 608 592 591 592 564 c 0
 592 554 554 410 382 410 c 0
 348 410 313 413 281 413 c 0
 202 413 116 396 116 236 c 0
 116 71 185 47 270 47 c 0xbe
 303 47 336 49 352 52 c 1
 331 52 240 105 240 208 c 0
 240 257 274 315 348 315 c 0
 401 315 440 269 440 220 c 256
 440 194 431 172 414 155 c 1
 373 150 l 1
 357 164 l 1
 382 189 l 2
 391 196 395 206 395 218 c 0
 395 247 373 265 346 265 c 0
 331 265 296 258 296 202 c 0
 296 111 382 66 482 66 c 0
 552 66 577 58 598 49 c 1
 570 -4 l 1
 523 11 494 18 464 18 c 0x7e
 387 18 340 -6 258 -6 c 0
 134 -6 52 48 52 225 c 0
 52 381 106 469 269 469 c 0xbe
EndSplineSet
EndChar
StartChar: uni0E55
Encoding: 3669 3669 294
Width: 627
VWidth: 1473
Flags: W
HStem: -6 53<176.597 345.629 494.608 570> 18 48<375.513 499.831> 265 50<317.782 387.347> 392 42<387.543 463.119> 415 54<166.482 245.673 245.673 258> 561 46<299.704 376.382>
VStem: 52 64<114.611 358.584> 240 56<133.058 255.295 467.485 555.118> 382 47<483.733 555.864> 395 45<190.635 257.691> 533 60<526.512 597.266>
Fore
593 567 m 0x37a0
 593 539 540 392 396 392 c 0x37a0
 368 392 355 402 315 417 c 1
 300.47 414.578 302.283 415 278 415 c 0
 175 415 116 402 116 236 c 0
 116 71 185 47 270 47 c 0
 303 47 336 49 352 52 c 1
 331 52 240 105 240 208 c 0
 240 257 274 315 348 315 c 0
 401 315 440 269 440 220 c 256xaf60
 440 194 431 172 414 155 c 1
 373 150 l 1
 357 164 l 1
 382 189 l 2xafa0
 391 196 395 206 395 218 c 0
 395 247 373 265 346 265 c 0
 331 265 296 258 296 202 c 0
 296 111 382 66 482 66 c 0
 552 66 577 58 598 49 c 1
 570 -4 l 1
 523 11 494 18 464 18 c 0x6760
 387 18 340 -6 258 -6 c 0
 134 -6 52 48 52 225 c 0
 52 436.815 158.884 469 233 469 c 0xaf60
 243 469 255.5 467 258 467 c 1
 251 480 247 494 247 510 c 0
 247 588 307 607 339 607 c 0
 389 607 429 573 429 519 c 0
 429 489 413 454 386 438 c 1
 408.219 433.834 405.574 434 414 434 c 0
 464 434 522 502 533 614 c 1
 552 608 593 593 593 567 c 0x37a0
318 463 m 1
 374 463 382 496 382 511 c 0
 382 551 359 561 339 561 c 0
 302 561 293 530 293 511 c 0
 293 490 301 474 318 463 c 1
EndSplineSet
EndChar
StartChar: uni0E56
Encoding: 3670 3670 295
Width: 601
VWidth: 1473
Flags: W
HStem: -7 56<224.166 414.901> 186 53<192.806 259.913> 417 56<208.496 405.274>
VStem: 133 53<84.3766 178.998> 277 52<141 179.094> 483 67<123.682 333.2>
Fore
133 138 m 0
 133 196 172 239 231 239 c 0
 293 239 329 195 329 141 c 1
 303 97 l 1
 277 97 l 1
 277 141 l 2
 277 177 249 186 231 186 c 0
 204 186 186 165 186 138 c 0
 186 67 257 49 326 49 c 0
 407 49 483 87 483 228 c 0
 483 347 427 417 309 417 c 0
 233 417 185 392 156 348 c 1
 110 348 l 1
 118 444 61 539 0 597 c 1
 24 624 52 632 68 632 c 0
 74 632 80 629 84 623 c 0
 114 582 155 505 158 424 c 1
 187 447 238 473 315 473 c 0
 418 473 550 424 550 228 c 0
 550 67 446 -7 323 -7 c 0
 162 -7 133 80 133 138 c 0
EndSplineSet
EndChar
StartChar: uni0E57
Encoding: 3671 3671 296
Width: 730
VWidth: 1473
Flags: W
HStem: -9 53<134.649 223.098> 136 51<186 223.516> 418 53<374 418.927>
VStem: 52 58<70.7971 354.079> 230 53<51.3355 118.4> 433 63<66 404.49> 608 64<183.232 438.674>
Fore
608 314 m 0
 608 463 525 547 508 563 c 1
 533 591 582 605 595 585 c 0
 628 541 672 454 672 323 c 0
 672 238 654 169 618 115 c 0
 582 61 537 23 483 0 c 1
 439 0 l 2
 422 0 433 7 433 31 c 2
 433 339 l 2
 433 392 413 418 374 418 c 1
 283 296 l 1
 178 407 l 1
 130 374 110 321 110 249 c 2
 110 199 l 2
 110 91 125 44 183 44 c 0
 211 44 230 65 230 90 c 0
 230 106 221 136 186 136 c 2
 141 136 l 1
 141 162 l 1
 186 187 l 1
 239 187 283 152 283 90 c 0
 283 31 241 -9 183 -9 c 0
 76 -9 52 86 52 196 c 2
 52 255 l 2
 52 386 130 447 183 473 c 1
 283 365 l 1
 358 471 l 1
 380 471 l 2
 456 471 496 421 496 343 c 2
 496 66 l 1
 525 84 608 143 608 314 c 0
EndSplineSet
EndChar
StartChar: uni0E58
Encoding: 3672 3672 297
Width: 621
VWidth: 1473
Flags: W
HStem: -6 55<174.196 291.185 368.998 503.435> 225 48<454.329 525.131> 402 61<335.257 470.438> 413 56<183.895 324.859>
VStem: 52 64<111.115 340.986> 255 59<131.828 169.504> 402 46<152.435 218.722> 535 59<78.9982 218.201>
Fore
605 562 m 0xef
 605 527 544 402 396 402 c 0xef
 370.6 402 307.1 413 269 413 c 0
 164 413 116 348 116 236 c 0
 116 88 168 49 246 49 c 0
 270 49 282 56 305 63 c 1
 259 113 255 140 255 148 c 0
 255 161 291 179 306 179 c 0
 311 179 314 177 314 174 c 0
 314 97 372 46 427 46 c 0
 489 46 535 68 535 155 c 256
 535 213 510 225 494 225 c 0
 465 225 448 206 448 180 c 0
 448 168 452 158 461 150 c 2
 486 125 l 1
 470 112 l 1
 429 116 l 1
 411 134 402 156 402 181 c 256
 402 235 442 273 492 273 c 0
 579.287 273 594 204 594 161 c 0
 594 65 528 -6 451 -6 c 0
 373 -6 350 37 329 37 c 0
 312 37 286 -6 206 -6 c 0
 144 -6 52 39 52 225 c 0
 52 409 147 469 259 469 c 0xdf
 285.353 469 358.293 463 395 463 c 0
 502 463 527 551 547 614 c 1
 589 599 605 583 605 562 c 0xef
EndSplineSet
EndChar
StartChar: uni0E59
Encoding: 3673 3673 298
Width: 604
VWidth: 1473
Flags: W
HStem: 0 53<152.2 237.713> 144 52<200 237.944> 418 52<147.731 276.999 385.582 484.958>
VStem: 52 61<101.834 379.838> 245 53<60.4838 127.576> 467 63<0 75.7321>
Fore
467 0 m 1
 356 365 273 418 224 418 c 0
 143 418 113 398 113 222 c 0
 113 153 130 53 197 53 c 0
 230 53 245 78 245 99 c 0
 245 115 236 144 200 144 c 2
 156 144 l 1
 156 171 l 1
 200 196 l 1
 259 196 298 157 298 99 c 0
 298 40 253 0 194 0 c 0
 109 0 52 88 52 220 c 0
 52 380 76 470 224 470 c 0
 275 470 319 442 339 415 c 1
 354 445 385 473 427 473 c 0
 470 473 500 454 517 417 c 1
 527 441 537 516 504 595 c 1
 527 605 578 620 583 591 c 0
 605 494 548 354 524 354 c 0
 502 354 502 357 496 357 c 1
 491 358 494 360 494 370 c 0
 494 402 466 421 429 421 c 0
 406 421 388 407 371 377 c 1
 457 240 519 39 530 0 c 1
 467 0 l 1
EndSplineSet
EndChar
StartChar: uni0E5A
Encoding: 3674 3674 299
Width: 605
VWidth: 1473
Flags: W
HStem: 0 21G<305 367 451.898 514> 393 45<90.3036 209.262> 547 48<74.6605 128.529>
VStem: 24 48<456.792 544.314> 138 48<510 545.41> 305 62<0 477 520.601 547 547 588.345> 452 62<0 588.345>
Fore
149 438 m 0
 192 438 291 454 309 589 c 1
 355 589 l 2
 379 589 367 581 367 547 c 2
 367 0 l 1
 305 0 l 1
 305 477 l 1
 253 398 182 393 147 393 c 0
 74 393 24 438 24 507 c 0
 24 577 77 595 108 595 c 0
 139 595 186 578 186 510 c 1
 162 467 l 1
 138 467 l 1
 138 510 l 2
 138 540 120 547 108 547 c 0
 84 547 72 534 72 507 c 0
 72 452 117 438 149 438 c 0
449 589 m 1
 502 589 l 2
 526 589 514 581 514 547 c 2
 514 0 l 1
 452 0 l 1
 449 589 l 1
EndSplineSet
LCarets2: 1 0 
Ligature2: "'liga' Standard Ligatures in Latin lookup 24 subtable" uni0E2F uni0E2F
EndChar
StartChar: uni0E5B
Encoding: 3675 3675 300
Width: 1026
VWidth: 1473
Flags: W
HStem: 35 49<236.246 396.633> 190 40<279.754 351.146> 247 17<899.419 952.072> 312 40<279.934 351.272> 455 46<225.576 357.513>
VStem: 113 53<162.494 383.114> 236 38<235.524 305.977> 379 51<324.743 343.385 334.064 429.632> 491 39<193.904 317> 706 94<236.478 319.499 319.578 374> 713 25<284.455 324>
Fore
810 342 m 1xffc0
 839 335 896 264 978 264 c 2
 986 264 l 1
 966 253 946 247 925 247 c 0
 893 247 865 259 840 284 c 1
 834 237 820 210 798 203 c 1
 777 203 757 305 738 324 c 1xffa0
 738 234 725 189 698 189 c 0
 682 189 666 289 642 317 c 1
 636 220 617 172 586 172 c 0
 571 172 550 292 530 317 c 1
 530 129 457 35 311 35 c 0
 184 35 113 131 113 270 c 0
 113 404 167 501 287 501 c 0
 377 501 430 443 430 349 c 0
 430 261 391 190 315 190 c 0
 270 190 236 230 236 271 c 0
 236 318 271 352 315 352 c 0
 341 352 362 342 379 323 c 1
 379 326 l 1
 381 335 382 347 382 361 c 0
 382 424 352 455 292 455 c 0
 200 455 166 365 166 262 c 0
 166 152 226 84 311 84 c 0
 438 84 491 188 491 327 c 0
 491 358 489 381 486 396 c 1
 541 385 578 333 597 240 c 1
 606 269 610 296 610 323 c 0
 610 342 606 365 598 393 c 1
 639 382 675 339 706 265 c 1xffc0
 711 290 713 308 713 320 c 0xffa0
 713 329 711 347 706 374 c 1
 748 363 779 321 800 250 c 1
 810 263 815 281 815 302 c 0
 815 314 813 327 810 342 c 1xffc0
315 230 m 256
 338 230 357 250 357 271 c 256
 357 292 337 312 315 312 c 256
 294 312 274 294 274 271 c 256
 274 250 292 230 315 230 c 256
EndSplineSet
EndChar
StartChar: zerowidthnonjoiner
Encoding: 8204 8204 301
Width: 0
VWidth: 1473
Flags: W
VStem: -29 58<-374 417>
Fore
29 -374 m 1
 -29 -374 l 1
 -29 417 l 1
 29 417 l 1
 29 -374 l 1
EndSplineSet
EndChar
StartChar: zerowidthjoiner
Encoding: 8205 8205 302
Width: 0
VWidth: 1473
Flags: W
VStem: -29 58<-374 280>
Fore
29 -374 m 1
 -29 -374 l 1
 -29 280 l 1
 -66 250 l 1
 -94 293 l 1
 -32 336 l 1
 -90 385 l 1
 -53 421 l 1
 0 371 l 1
 53 421 l 1
 90 385 l 1
 32 336 l 1
 94 293 l 1
 65 250 l 1
 29 280 l 1
 29 -374 l 1
EndSplineSet
EndChar
StartChar: lefttorightmark
Encoding: 8206 8206 303
Width: 0
VWidth: 1473
Flags: W
HStem: 308 57<29 174>
VStem: -29 58<-374 308>
Fore
29 -374 m 1
 -29 -374 l 1
 -29 365 l 1
 174 365 l 1
 140 407 l 1
 178 430 l 1
 247 336 l 1
 178 242 l 1
 140 267 l 1
 174 308 l 1
 29 308 l 1
 29 -374 l 1
EndSplineSet
EndChar
StartChar: righttoleftmark
Encoding: 8207 8207 304
Width: 0
VWidth: 1473
Flags: W
HStem: 308 57<-174 -29>
VStem: -29 58<-374 308>
Fore
-29 308 m 1
 -174 308 l 1
 -140 267 l 1
 -178 242 l 1
 -247 336 l 1
 -178 430 l 1
 -140 407 l 1
 -174 365 l 1
 29 365 l 1
 29 -374 l 1
 -29 -374 l 1
 -29 308 l 1
EndSplineSet
EndChar
StartChar: endash
Encoding: 8211 8211 305
Width: 559
VWidth: 1473
Flags: W
HStem: 267 50<0 560>
Fore
0 267 m 1
 0 317 l 1
 560 317 l 1
 560 267 l 1
 0 267 l 1
EndSplineSet
EndChar
StartChar: emdash
Encoding: 8212 8212 306
Width: 1119
VWidth: 1473
Flags: W
HStem: 267 50<0 1120>
VStem: 0 1120<267 317 267 317 267 267>
Fore
1120 267 m 1
 0 267 l 1
 0 317 l 1
 1120 317 l 1
 1120 267 l 1
EndSplineSet
EndChar
StartChar: quoteleft
Encoding: 8216 8216 307
Width: 248
VWidth: 1473
Flags: W
HStem: 551 270<68 137 137 137>
VStem: 68 96<551 653>
Fore
68 551 m 1
 68 653 l 1
 137 821 l 1
 183 821 l 1
 116 653 l 1
 164 653 l 1
 164 551 l 1
 68 551 l 1
EndSplineSet
EndChar
StartChar: quoteright
Encoding: 8217 8217 308
Width: 248
VWidth: 1473
Flags: W
HStem: 541 268<110 183 183 183>
VStem: 85 98<709 809>
Fore
183 809 m 1
 183 709 l 1
 110 541 l 1
 68 541 l 1
 131 709 l 1
 85 709 l 1
 85 809 l 1
 183 809 l 1
EndSplineSet
EndChar
StartChar: quotesinglbase
Encoding: 8218 8218 309
Width: 248
VWidth: 1473
Flags: W
HStem: -168 268<110 183 183 183>
VStem: 85 98<0 100>
Fore
183 100 m 1
 183 0 l 1
 110 -168 l 1
 68 -168 l 1
 131 0 l 1
 85 0 l 1
 85 100 l 1
 183 100 l 1
EndSplineSet
EndChar
StartChar: quotedblleft
Encoding: 8220 8220 310
Width: 496
VWidth: 1473
Flags: W
HStem: 551 102<158 205 345 392>
VStem: 109 96<551 653> 295 97<551 653>
Fore
109 551 m 1
 109 653 l 1
 180 821 l 1
 222 821 l 1
 158 653 l 1
 205 653 l 1
 205 551 l 1
 109 551 l 1
295 551 m 1
 295 653 l 1
 367 821 l 1
 410 821 l 1
 345 653 l 1
 392 653 l 1
 392 551 l 1
 295 551 l 1
EndSplineSet
EndChar
StartChar: quotedblright
Encoding: 8221 8221 311
Width: 496
VWidth: 1473
Flags: W
HStem: 709 100<105 153 293 339>
VStem: 105 97<709 809> 293 96<709 809>
Fore
389 809 m 1
 389 709 l 1
 318 541 l 1
 274 541 l 1
 339 709 l 1
 293 709 l 1
 293 809 l 1
 389 809 l 1
202 809 m 1
 202 709 l 1
 131 541 l 1
 87 541 l 1
 153 709 l 1
 105 709 l 1
 105 809 l 1
 202 809 l 1
EndSplineSet
EndChar
StartChar: quotedblbase
Encoding: 8222 8222 312
Width: 496
VWidth: 1473
Flags: W
HStem: 0 100<105 153 293 339>
VStem: 105 97<0 100> 293 96<0 100>
Fore
389 100 m 1
 389 0 l 1
 318 -168 l 1
 274 -168 l 1
 339 0 l 1
 293 0 l 1
 293 100 l 1
 389 100 l 1
202 100 m 1
 202 0 l 1
 131 -168 l 1
 87 -168 l 1
 153 0 l 1
 105 0 l 1
 105 100 l 1
 202 100 l 1
EndSplineSet
EndChar
StartChar: dagger
Encoding: 8224 8224 313
Width: 559
VWidth: 1473
Flags: W
HStem: 591 21G<93 260.609 299.391 467>
VStem: 93 374<561 591 541 610 541 541> 265 30<-90 -21.2174 526.175 561>
Fore
265 -90 m 1xa0
 242 362 l 1
 262 561 l 1
 93 541 l 1
 93 610 l 1
 262 591 l 1
 246 821 l 1
 314 821 l 1
 298 591 l 1
 467 610 l 1
 467 541 l 1xc0
 298 561 l 1
 318 362 l 1
 295 -90 l 1
 265 -90 l 1xa0
EndSplineSet
EndChar
StartChar: daggerdbl
Encoding: 8225 8225 314
Width: 559
VWidth: 1473
Flags: W
HStem: 591 21G<93 260.609 299.391 467>
VStem: 93 374<121 541 121 121>
Fore
467 541 m 1
 298 561 l 1
 318 365 l 1
 298 169 l 1
 467 189 l 1
 467 121 l 1
 298 138 l 1
 314 -90 l 1
 246 -90 l 1
 262 138 l 1
 93 121 l 1
 93 189 l 1
 262 169 l 1
 242 365 l 1
 262 561 l 1
 93 541 l 1
 93 610 l 1
 262 591 l 1
 246 821 l 1
 314 821 l 1
 298 591 l 1
 467 610 l 1
 467 541 l 1
EndSplineSet
EndChar
StartChar: bullet
Encoding: 8226 8226 315
Width: 559
VWidth: 1473
Flags: W
HStem: 202 403<189.14 367.684>
VStem: 77 405<317.477 491.409>
Fore
278 202 m 0
 171 202 77 290 77 405 c 0
 77 525 173 605 278 605 c 0
 404 605 482 505 482 405 c 0
 482 304 401 202 278 202 c 0
EndSplineSet
EndChar
StartChar: ellipsis
Encoding: 8230 8230 316
Width: 1119
VWidth: 1473
Flags: W
HStem: 0 100<138 236 513 607 884 981>
VStem: 138 98<0 100> 513 94<0 100> 884 97<0 100>
Fore
138 0 m 1
 138 100 l 1
 236 100 l 1
 236 0 l 1
 138 0 l 1
513 0 m 1
 513 100 l 1
 607 100 l 1
 607 0 l 1
 513 0 l 1
884 0 m 1
 884 100 l 1
 981 100 l 1
 981 0 l 1
 884 0 l 1
EndSplineSet
EndChar
StartChar: perthousand
Encoding: 8240 8240 317
Width: 1208
VWidth: 1473
Flags: W
HStem: 0 53<538.931 673.415 896.931 1031.41> 273 51<540.929 671.141 898.929 1029.14> 390 53<178.757 307.965> 661 55<176.11 309.37>
VStem: 81 53<485.58 618.547> 352 53<486.658 619.335> 443 55<94.7208 230.721> 716 53<95.4583 229.849> 801 55<94.7208 230.721> 1074 53<95.4583 229.849>
Fore
81 552 m 256
 81 649 162 716 242 716 c 0
 322 716 405 651 405 552 c 256
 405 468 338 390 242 390 c 0
 154 390 81 462 81 552 c 256
352 552 m 0
 352 617 304 661 242 661 c 0
 185 661 133 620 134 552 c 0
 133 489 184 443 242 443 c 0
 308 443 352 494 352 552 c 0
443 162 m 0
 443 248 515 324 605 324 c 0
 700 324 769 246 769 162 c 0
 769 81 697 0 605 0 c 0
 517 0 443 79 443 162 c 0
716 162 m 0
 717 223 671 273 605 273 c 0
 546 273 495 226 498 162 c 0
 495 97 548 53 605 53 c 0
 671 53 717 101 716 162 c 0
250 -10 m 1
 190 -10 l 1
 600 726 l 1
 661 726 l 1
 250 -10 l 1
801 162 m 0
 801 248 873 324 963 324 c 0
 1058 324 1127 246 1127 162 c 0
 1127 81 1055 0 963 0 c 0
 875 0 801 79 801 162 c 0
1074 162 m 0
 1075 223 1029 273 963 273 c 0
 904 273 853 226 856 162 c 0
 853 97 906 53 963 53 c 0
 1029 53 1075 101 1074 162 c 0
EndSplineSet
EndChar
StartChar: minute
Encoding: 8242 8242 318
Width: 228
VWidth: 1473
Flags: W
VStem: 88 52<517 754 517 754 517 517>
Fore
88 754 m 1
 140 754 l 1
 140 517 l 1
 88 517 l 1
 88 754 l 1
EndSplineSet
EndChar
StartChar: second
Encoding: 8243 8243 319
Width: 331
VWidth: 1473
Flags: W
VStem: 81 52<517 754 517 754 517 517> 199 51<517 754>
Fore
81 754 m 1
 133 754 l 1
 133 517 l 1
 81 517 l 1
 81 754 l 1
199 754 m 1
 250 754 l 1
 250 517 l 1
 199 517 l 1
 199 754 l 1
EndSplineSet
EndChar
StartChar: guilsinglleft
Encoding: 8249 8249 320
Width: 372
VWidth: 1473
Flags: W
HStem: 119 344<208 281 208 208>
VStem: 71 210<119 295 295 295>
Fore
143 295 m 1
 281 119 l 1
 208 119 l 1
 71 295 l 1
 208 463 l 1
 281 463 l 1
 143 295 l 1
EndSplineSet
EndChar
StartChar: guilsinglright
Encoding: 8250 8250 321
Width: 372
VWidth: 1473
Flags: W
HStem: 119 344<93 165 93 93>
VStem: 93 208<289 463 463 463>
Fore
231 289 m 1
 93 463 l 1
 165 463 l 1
 301 289 l 1
 165 119 l 1
 93 119 l 1
 231 289 l 1
EndSplineSet
EndChar
StartChar: fraction
Encoding: 8260 8260 322
Width: 238
VWidth: 1473
Flags: W
HStem: 0 21G<-53 15.1312>
VStem: -53 345<0 701 1.53064e-18 1.53064e-18>
Fore
7 0 m 1
 -53 0 l 1
 231 701 l 1
 292 701 l 1
 7 0 l 1
EndSplineSet
EndChar
StartChar: Euro
Encoding: 8364 8364 323
Width: 558
VWidth: 1473
Flags: W
HStem: -10 65<218.867 435.179> 233 63<-27 60 135 404> 412 64<-27 60 135 404> 659 64<220.558 434.606>
VStem: 65 70<155.586 233 296 326.431 326.431 326.454 326.442 384.535 384.523 384.546 384.546 412 476 557.328>
Back
59 357 m 256
 59 421.667 63.3333 477 72 523 c 128
 80.6667 569 95.6667 607 117 637 c 128
 138.333 667 166.333 688.833 201 702.5 c 128
 235.667 716.167 278.667 723 330 723 c 0
 362.667 723 397.333 717.833 434 707.5 c 128
 470.667 697.167 502.333 681.667 529 661 c 1
 483 605 l 1
 460.333 625 436.333 639 411 647 c 128
 385.667 655 358.333 659 329 659 c 0
 287.667 659 254 653.333 228 642 c 128
 202 630.667 181.5 612.833 166.5 588.5 c 128
 151.5 564.167 141.667 533 137 495 c 128
 132.333 457 130 411 130 357 c 256
 130 302.333 132.333 256.167 137 218.5 c 128
 141.667 180.833 151.5 149.667 166.5 125 c 128
 181.5 100.333 202 82.5 228 71.5 c 128
 254 60.5 287.667 55 329 55 c 0
 358.333 55 385.667 58.8333 411 66.5 c 128
 436.333 74.1667 460.333 88 483 108 c 1
 529 52 l 1
 502.333 31.3333 470.667 15.8333 434 5.5 c 128
 397.333 -4.83333 362.667 -10 330 -10 c 0
 278.667 -10 235.667 -3.16667 201 10.5 c 128
 166.333 24.1667 138.333 46 117 76 c 128
 95.6667 106 80.6667 144 72 190 c 128
 63.3333 236 59 291.667 59 357 c 256
404 412 m 1
 -27 412 l 1
 -27 476 l 1
 404 476 l 1
 404 412 l 1
404 233 m 1
 -27 233 l 1
 -27 296 l 1
 404 296 l 1
 404 233 l 1
EndSplineSet
Fore
131 296 m 1
 404 296 l 1
 404 233 l 1
 135 233 l 1
 149 111 195 55 329 55 c 0
 421 55 463 91 483 108 c 1
 529 52 l 1
 467 4 380 -10 330 -10 c 0
 156 -10 85 68 65 233 c 1
 -27 233 l 1
 -27 296 l 1
 60 296 l 1
 59 315 59 336 59 357 c 0
 59 376 59 394 60 412 c 1
 -27 412 l 1
 -27 476 l 1
 65 476 l 1
 83 641 152 723 330 723 c 0
 380 723 467 709 529 661 c 1
 483 605 l 1
 466 620 421 659 329 659 c 0
 194 659 148 601 135 476 c 1
 404 476 l 1
 404 412 l 1
 131 412 l 1
 130 395 130 376 130 357 c 0
 130 335 130 315 131 296 c 1
EndSplineSet
EndChar
StartChar: uni2113
Encoding: 8467 8467 324
Width: 307
VWidth: 1473
Flags: W
HStem: -4 51<140.592 211.995> 673 46<142.535 184.433>
VStem: 90 50<56.0607 217 309 672.838> 218 47<413.387 626.511>
Fore
152 -4 m 0
 118 -4 90 11 90 71 c 2
 90 217 l 1
 44 186 l 1
 7 220 l 1
 90 277 l 1
 90 629 l 2
 90 705 134 719 161 719 c 0
 224 719 265 619 265 533 c 0
 265 401 206 304 140 246 c 1
 140 72 l 2
 140 57 145 47 166 47 c 0
 192 47 208 55 231 69 c 1
 232 68 257 21 239 13 c 0
 209 -3 161 -4 152 -4 c 0
140 309 m 1
 196 374 218 478 218 523 c 0
 218 570 189 673 164 673 c 0
 148 673 140 658 140 629 c 2
 140 309 l 1
EndSplineSet
EndChar
StartChar: trademark
Encoding: 8482 8482 325
Width: 1043
VWidth: 1473
Flags: W
HStem: 255 461<197 253 485 541 913 969 44 253 44 44> 666 50<44 197 253 402 541 544 910 913>
VStem: 197 56<255 666> 485 56<255 666> 913 56<255 666>
Fore
402 666 m 1x78
 253 666 l 1x78
 253 255 l 1
 197 255 l 1xb8
 197 666 l 1
 44 666 l 1x78
 44 716 l 1xb8
 402 716 l 1
 402 666 l 1x78
729 348 m 1
 874 716 l 1x78
 969 716 l 1
 969 255 l 1
 913 255 l 1xb8
 913 666 l 1
 910 666 l 1x78
 744 255 l 1
 710 255 l 1xb8
 544 666 l 1
 541 666 l 1x78
 541 255 l 1
 485 255 l 1
 485 716 l 1xb8
 580 716 l 1
 729 348 l 1
EndSplineSet
EndChar
StartChar: Ohm
Encoding: 8486 8486 326
Width: 692
VWidth: 1473
Flags: W
HStem: 0 59<52 225 467 641> 669 60<245.133 444.817>
VStem: 52 66<318.32 534.072> 225 62<59 150> 405 62<59 150> 575 66<318.564 533.273>
Fore
641 420 m 0
 641 304 573 183 467 150 c 1
 467 59 l 1
 641 59 l 1
 641 0 l 1
 405 0 l 1
 405 192 l 1
 489 209 575 294 575 420 c 0
 575 556 497 669 346 669 c 0
 209 669 118 573 118 420 c 0
 118 294 204 209 287 192 c 1
 287 0 l 1
 52 0 l 1
 52 59 l 1
 225 59 l 1
 225 150 l 1
 138 179 52 280 52 420 c 0
 52 591 155 729 346 729 c 256
 537 729 641 592 641 420 c 0
EndSplineSet
EndChar
StartChar: estimated
Encoding: 8494 8494 327
Width: 713
VWidth: 1473
Flags: W
HStem: -12 55<284.925 477.655> 318 55<140 566> 629 53<258.001 452.305>
VStem: 74 66<210.431 318 373 473.399>
Fore
74 321 m 0
 74 615 244 682 357 682 c 0
 523 682 633 586 633 318 c 1
 140 318 l 1
 140 184 238 43 371 43 c 0
 499.733 43 559.681 119.711 585 159 c 1
 639 131 l 1
 584.175 39.0362 491.823 -12 365 -12 c 0
 224 -12 74 106 74 321 c 0
566 373 m 1
 556 524 504 629 354 629 c 0
 203 629 140 504 140 373 c 1
 566 373 l 1
EndSplineSet
EndChar
StartChar: partialdiff
Encoding: 8706 8706 328
Width: 559
VWidth: 1473
Flags: W
HStem: -12 55<194.086 365.914> 541 53<194.086 345.662> 789 20G<227.273 346>
VStem: 41 67<146.413 436.426> 452 67<145.968 436.372>
Fore
452 292 m 256
 452 475 383 541 280 541 c 256
 177 541 108 475 108 292 c 256
 108 107 177 43 280 43 c 256
 383 43 452 107 452 292 c 256
393 572 m 1
 373 619 297 713 194 765 c 1
 255 809 l 1
 437 683 519 530 519 292 c 0
 519 148 471 -12 280 -12 c 0
 89 -12 41 150 41 292 c 256
 41 432 89 594 280 594 c 0
 323 594 360 586 390 569 c 1
 393 572 l 1
EndSplineSet
EndChar
StartChar: Delta
Encoding: 8710 8710 329
Width: 573
VWidth: 1473
Flags: W
HStem: 0 59<81 479> 696 20G<229.408 330.592>
Fore
560 0 m 1
 0 0 l 1
 236 716 l 1
 324 716 l 1
 560 0 l 1
479 59 m 1
 280 650 l 1
 81 59 l 1
 479 59 l 1
EndSplineSet
EndChar
StartChar: product
Encoding: 8719 8719 330
Width: 692
VWidth: 1473
Flags: W
HStem: 0 21G<96 164 507 575> 650 66<164 507> 660 56<35 65.5 604 633>
VStem: 96 68<0 650> 507 68<0 650>
Fore
575 0 m 1xb8
 507 0 l 1
 507 650 l 1
 164 650 l 1xd8
 164 0 l 1
 96 0 l 1
 96 653 l 1
 35 660 l 1
 35 716 l 1
 633 716 l 1
 633 660 l 1
 575 653 l 1
 575 0 l 1xb8
EndSplineSet
EndChar
StartChar: summation
Encoding: 8721 8721 331
Width: 646
VWidth: 1473
Flags: W
HStem: 0 59<119 595> 657 59<137 573>
Fore
595 0 m 1
 52 0 l 1
 52 81 l 1
 312 368 l 1
 57 638 l 1
 57 716 l 1
 573 716 l 1
 573 657 l 1
 137 657 l 1
 386 392 l 1
 386 354 l 1
 119 59 l 1
 595 59 l 1
 595 0 l 1
EndSplineSet
EndChar
StartChar: minus
Encoding: 8722 8722 332
Width: 592
VWidth: 1473
Flags: W
HStem: 303 62<52 541 52 541 52 52>
Fore
52 303 m 1
 52 365 l 1
 541 365 l 1
 541 303 l 1
 52 303 l 1
EndSplineSet
EndChar
StartChar: radical
Encoding: 8730 8730 333
Width: 570
VWidth: 1473
Flags: W
HStem: 0 21G<237 318.769> 295 59<44 127>
VStem: 37 496<295 653 295 295>
Fore
312 0 m 1
 245 0 l 1
 127 295 l 1
 37 295 l 1
 44 354 l 1
 165 354 l 1
 277 77 l 1
 474 653 l 1
 533 653 l 1
 312 0 l 1
EndSplineSet
EndChar
StartChar: infinity
Encoding: 8734 8734 334
Width: 822
VWidth: 1473
Flags: W
HStem: 147 52<159.676 287.293 536.053 666.698> 439 50<157.387 284.082 538.232 660.32>
VStem: 59 53<250.48 392.745> 710 53<243.821 389.357>
Fore
112 324 m 0
 112 263 151 199 225 199 c 0
 299 199 364 293 382 326 c 1
 297 415 266 439 224 439 c 0
 136 439 112 361 112 324 c 0
598 489 m 0
 666 489 763 452 763 311 c 0
 763 213 692 147 600 147 c 0
 513 147 442 240 405 281 c 1
 326 160 260 147 224 147 c 0
 159 147 59 181 59 326 c 0
 59 423 131 489 222 489 c 0
 300 489 358 419 415 357 c 1
 499 477 561 489 598 489 c 0
598 197 m 0
 681 197 710 271 710 312 c 0
 710 375 672 438 597 438 c 0
 525 438 458 342 440 311 c 1
 525 220 557 197 598 197 c 0
EndSplineSet
EndChar
StartChar: integral
Encoding: 8747 8747 335
Width: 356
VWidth: 1473
Flags: W
HStem: -152 67<1.65156 106.452> 647 63<201.321 287.805 282.954 292.655 292.655 302>
VStem: 124 65<-66.6298 635.328>
Fore
124 579 m 2
 124 664 164 710 246 710 c 0
 286 710 299 709 312 706 c 1
 302 645 l 1
 288 648 276 647 264 647 c 0
 212 647 190 632 190 576 c 2
 189 -16 l 2
 189 -129 107 -152 62 -152 c 0
 24 -152 1 -148 -13 -144 c 1
 -6 -82 l 1
 2 -84 20 -85 38 -85 c 0
 110 -85 124 -54 124 0 c 2
 124 579 l 2
EndSplineSet
EndChar
StartChar: approxequal
Encoding: 8776 8776 336
Width: 578
VWidth: 1473
Flags: W
HStem: 140 56<322.696 456.252> 205 56<119.407 251.944> 327 56<325.214 457.896> 392 56<122.108 253.724>
VStem: 43 493<178 410 178 178>
Fore
535 222 m 1
 496 150 443 140 401 140 c 0
 325 140 232 205 174 205 c 0
 143 205 120 194 78 136 c 1
 43 178 l 1
 83 250 135 261 177 261 c 0
 250 261 339 196 404 196 c 0
 435 196 456 208 498 265 c 1
 535 222 l 1
44 365 m 1
 84 437 135 448 178 448 c 0
 250 448 346 383 405 383 c 0
 438 383 458 396 499 452 c 1
 536 410 l 1
 498 338 444 327 402 327 c 0
 327 327 234 392 175 392 c 0
 146 392 123 381 80 323 c 1
 44 365 l 1
EndSplineSet
EndChar
StartChar: notequal
Encoding: 8800 8800 337
Width: 568
VWidth: 1473
Flags: W
HStem: 0 21G<102 165.345> 174 63<47 192 277 522> 383 63<47 299 386 522>
VStem: 47 475<174 237 383 446 174 446 174 174>
Fore
192 174 m 1
 47 174 l 1
 47 237 l 1
 224 237 l 1
 299 383 l 1
 47 383 l 1
 47 446 l 1
 333 446 l 1
 426 626 l 1
 479 626 l 1
 386 446 l 1
 522 446 l 1
 522 383 l 1
 352 383 l 1
 277 237 l 1
 522 237 l 1
 522 174 l 1
 245 174 l 1
 155 0 l 1
 102 0 l 1
 192 174 l 1
EndSplineSet
EndChar
StartChar: lessequal
Encoding: 8804 8804 338
Width: 671
VWidth: 1473
Flags: W
HStem: 0 60<44 628>
Fore
44 402 m 1
 626 604 l 1
 626 541 l 1
 94 361 l 1
 626 174 l 1
 626 112 l 1
 44 323 l 1
 44 402 l 1
44 60 m 1
 628 60 l 1
 628 0 l 1
 44 0 l 1
 44 60 l 1
EndSplineSet
EndChar
StartChar: greaterequal
Encoding: 8805 8805 339
Width: 671
VWidth: 1473
Flags: W
HStem: 0 60<44 628>
Fore
628 323 m 1
 46 112 l 1
 46 174 l 1
 577 361 l 1
 46 541 l 1
 46 604 l 1
 628 402 l 1
 628 323 l 1
628 0 m 1
 44 0 l 1
 44 60 l 1
 628 60 l 1
 628 0 l 1
EndSplineSet
EndChar
StartChar: lozenge
Encoding: 9674 9674 340
Width: 534
VWidth: 1473
Flags: W
VStem: 66 402<359 359 359 359>
Fore
407 359 m 1
 268 583 l 1
 131 359 l 1
 268 133 l 1
 407 359 l 1
468 359 m 1
 301 82 l 1
 237 82 l 1
 66 359 l 1
 237 633 l 1
 301 633 l 1
 468 359 l 1
EndSplineSet
EndChar
StartChar: dottedcircle
Encoding: 9676 9676 341
Width: 797
VWidth: 1473
Flags: W
HStem: 56 66<254.928 316.265 494.09 542.187> 118 66<159.735 222.074 574.926 636.287> 217 66<97.5686 160.074 636.666 699.431> 329 66<75.713 136.072 660.691 705.91> 438 66<97.7353 144.91 633.937 698.187> 536 67<159.953 221.796 573.813 634.33> 598 66<254.813 316.431 493.346 540.2> 617 68<365.926 429.962>
VStem: 74 64<330.154 377.212> 96 66<219.065 281.187 439.735 486.91> 158 66<135.09 182.2 537.813 585.031> 253 65<73.7883 120.846 599.16 646.475> 364 68<37.191 99.9349 619.204 682.796> 477 67<58.5 119.953 599.813 661.935> 573 65<135.09 181.672 537.16 601.334> 635 66<219.951 280.938 439.926 501.796> 659 64<330.735 378.603>
Fore
398 685 m 256x391c
 417 685 432 671 432 651 c 256
 432 631 417 617 398 617 c 256
 378 617 364 631 364 651 c 256
 364 671 378 685 398 685 c 256x391c
398 102 m 256
 417 102 432 89 432 69 c 0
 432 42 410 35 398 35 c 256
 384 35 364 42 364 69 c 0
 364 89 378 102 398 102 c 256
105 395 m 0
 131 395 138 375 138 361 c 0
 138 340 127 329 105 329 c 0
 84 329 74 340 74 361 c 0x389c
 74 375 80 395 105 395 c 0
689 395 m 256
 709 395 723 381 723 361 c 256
 723 335 703 329 689 329 c 0
 669 329 659 340 659 361 c 0x381c80
 659 375 665 395 689 395 c 256
128 504 m 256
 148 504 162 490 162 470 c 256
 162 444 142 438 128 438 c 0
 107 438 96 449 96 470 c 0x385c
 96 484 102 504 128 504 c 256
190 603 m 256x3c3c
 210 603 224 588 224 569 c 256
 224 549 210 536 190 536 c 0
 169 536 158 547 158 569 c 0
 158 581 164 603 190 603 c 256x3c3c
286 664 m 0x3a1c
 305 664 318 651 318 631 c 0
 318 609 307 598 286 598 c 256
 264 598 253 609 253 631 c 0
 253 644 260 664 286 664 c 0x3a1c
667 504 m 0
 687 504 700 490 700 470 c 0
 700 449 689 438 667 438 c 0
 646 438 632 450 632 470 c 256
 632 490 646 504 667 504 c 0
605 603 m 0x3c1c
 624 603 636 589 636 569 c 0
 636 547 626 536 605 536 c 0
 583 536 572 547 572 569 c 0
 572 589 585 603 605 603 c 0x3c1c
510 664 m 256x3a1c
 529 664 542 649 542 631 c 0
 542 609 531 598 510 598 c 0
 495 598 476 605 476 631 c 0
 476 651 491 664 510 664 c 256x3a1c
128 283 m 0
 148 283 162 270 162 250 c 256
 162 230 147 217 128 217 c 256
 109 217 96 230 96 250 c 0x385c
 96 272 107 283 128 283 c 0
190 184 m 0x783c
 210 184 224 171 224 152 c 256
 224 132 210 118 190 118 c 256
 164 118 158 138 158 152 c 0
 158 173 169 184 190 184 c 0x783c
286 56 m 0xb81c
 260 56 253 76 253 90 c 0
 253 111 264 122 286 122 c 256
 307 122 318 111 318 90 c 0
 318 76 312 56 286 56 c 0xb81c
669 217 m 0
 649 217 635 230 635 250 c 0
 635 272 646 283 669 283 c 0
 690 283 701 272 701 250 c 0x381d
 701 230 688 217 669 217 c 0
573 152 m 256x781e
 573 171 587 184 607 184 c 0
 628 184 638 173 638 152 c 0
 638 138 632 118 607 118 c 256
 587 118 573 132 573 152 c 256x781e
477 90 m 256
 477 116 497 122 511 122 c 0
 533 122 544 111 544 90 c 0
 544 70 531 56 511 56 c 256xb81c
 491 56 477 70 477 90 c 256
EndSplineSet
EndChar
StartChar: uni0E10.alt1
Encoding: 63232 63232 342
Width: 602
VWidth: 1473
Flags: W
HStem: -4 42<341.745 421.569> 112 52<181.093 220> 255 53<181.049 267.855> 371 53<132.456 213.073> 383 53<165.792 417.003> 520 59<312.723 482.136> 538 51<144.118 246.098>
VStem: 78 53<425.914 526.251> 121 53<181.762 247.162> 449 59<164.593 353.87>
Fore
508 309 m 0xe940
 508 258 487 135 479 18 c 0
 479 -3 407 -4 387 -4 c 0
 350 -4 283 1 283 19 c 0
 291 174 294 255 222 255 c 0
 194 255 174 234 174 209 c 0
 174 194 183 164 220 164 c 2
 264 164 l 1
 264 138 l 1
 220 112 l 1
 159 112 121 151 121 209 c 256
 121 267 162 308 222 308 c 0
 348 308 340 162 334 49 c 0
 334 40 373 38 383 38 c 256
 397 38 428 40 430 50 c 0
 430.032 50.1594 449 234.989 449 301 c 0
 449 350 421 383 306 383 c 0xe8c0
 239 383 198 371 152 371 c 0
 108 371 78 396 78 466 c 0
 78 564 146 589 199 589 c 0xf340
 234 589 314 579 376 579 c 0
 430 579 481 591 522 603 c 1
 525 587 536 571 536 548 c 0
 536 542 532 537 523 533 c 1
 494 526 420 520 377 520 c 0xe540
 332.266 520 218.573 538 202 538 c 0
 160 538 131 527 131 467 c 0
 131 430 138 424 175 424 c 256xf340
 227 424 270 436 348 436 c 0
 478 436 508 360 508 309 c 0xe940
EndSplineSet
EndChar
StartChar: uni0E34.alt1
Encoding: 63233 63233 343
Width: 0
VWidth: 1473
Flags: W
HStem: 644 47<-435.653 -258> 671 39<-609.957 -569.546 -569.546 -448.212> 806 47<-558.961 -347.251>
VStem: -667 57<710 760.985> -667 465<671.236 688.385>
Fore
-550 671 m 0x68
 -656 671 -667 654 -667 682 c 0
 -665 749 -629 853 -458 853 c 0
 -288 853 -202 761 -202 657 c 0
 -202 648 -207 644 -217 644 c 0xa8
 -272 644 -414 671 -550 671 c 0x68
-258 691 m 1
 -263 720 -309 806 -463 806 c 0
 -573 806 -610 748 -610 710 c 1x70
 -584 712 -557 713 -529 713 c 0
 -502 713 -420 711 -258 691 c 1
EndSplineSet
EndChar
StartChar: uni0E35.alt1
Encoding: 63234 63234 344
Width: 0
VWidth: 1473
Flags: W
HStem: 644 47<-420.653 -243> 671 39<-594.684 -554.546 -554.546 -433.212> 806 47<-543.223 -344.115>
VStem: -653 466<671.236 683.778> -264 64<797.905 887 644 887 849 849>
Fore
-256 781 m 1x70
 -261 793 -264 815 -264 849 c 2
 -264 887 l 1
 -200 887 l 1
 -200 716 l 1x68
 -192 688 l 2
 -188 678 -187 668 -187 657 c 0
 -187 648 -192 644 -202 644 c 0xb0
 -258 644 -399 671 -535 671 c 0
 -640 671 -653 654 -653 682 c 0
 -648 755 -611 853 -443 853 c 0
 -366 853 -293 819 -256 781 c 1x70
-243 691 m 1xa0
 -251 722 -318 806 -448 806 c 0
 -558 806 -595 748 -595 710 c 1x60
 -569 712 -542 713 -514 713 c 0
 -487 713 -405 711 -243 691 c 1xa0
EndSplineSet
EndChar
StartChar: uni0E36.alt1
Encoding: 63235 63235 345
Width: 0
VWidth: 1473
Flags: W
HStem: 644 47<-435.653 -258> 671 39<-609.957 -569.546 -569.546 -448.212> 806 47<-558.961 -347.305> 869 41<-282.363 -211.38>
VStem: -667 57<710 760.985> -206 41<796.047 853.907>
Fore
-258 691 m 1xbc
 -263 720 -309 806 -463 806 c 0
 -573 806 -610 748 -610 710 c 1x7c
 -584 712 -557 713 -529 713 c 0
 -502 713 -420 711 -258 691 c 1xbc
-458 853 m 0
 -397 853 -350 837 -329 824 c 1
 -329 870 -296 910 -247 910 c 256
 -198 910 -165 874 -165 825 c 0
 -165 776 -204 748 -231 744 c 1
 -215 722 -202 696 -202 657 c 0
 -202 648 -207 644 -217 644 c 0xbc
 -272 644 -414 671 -550 671 c 0
 -656 671 -667 654 -667 682 c 0
 -665 749 -629 853 -458 853 c 0
-247 781 m 256
 -214 781 -206 809 -206 825 c 256
 -206 841 -214 869 -247 869 c 256
 -279 869 -287 843 -287 825 c 256
 -287 807 -279 781 -247 781 c 256
EndSplineSet
EndChar
StartChar: uni0E37.alt1
Encoding: 63236 63236 346
Width: 0
VWidth: 1473
Flags: W
HStem: 644 47<-435.653 -258> 671 39<-609.957 -569.546 -569.546 -448.212> 806 47<-558.961 -402.989>
VStem: -667 57<710 760.985> -386 63<841 896> -278 63<800.614 896>
Fore
-258 691 m 1xbc
 -263 720 -309 806 -463 806 c 0
 -573 806 -610 748 -610 710 c 1x7c
 -584 712 -557 713 -529 713 c 0
 -502 713 -420 711 -258 691 c 1xbc
-273 793 m 1
 -279 821 -278 839 -278 850 c 2
 -278 896 l 1
 -215 896 l 1
 -215 716 l 1
 -206 688 l 2
 -204 678 -202 668 -202 657 c 0
 -202 648 -207 644 -217 644 c 0xbc
 -272 644 -414 671 -550 671 c 0
 -656 671 -667 654 -667 682 c 0
 -665 749 -629 853 -458 853 c 0
 -444 853 -405 850 -386 841 c 1
 -386 896 l 1
 -323 896 l 1
 -323 824 l 1
 -302 815 -296 811 -273 793 c 1
EndSplineSet
EndChar
StartChar: uni0E48.alt2
Encoding: 63242 63242 352
Width: 0
VWidth: 1473
Flags: W
HStem: 678 200<-138 -97>
VStem: -152 68<764.25 878 793 878 793 793>
Fore
-138 678 m 1
 -152 793 l 1
 -152 878 l 1
 -84 878 l 1
 -84 793 l 1
 -97 678 l 1
 -138 678 l 1
EndSplineSet
Substitution2: "Single Substitution lookup 25 subtable" uni0E48.alt3
Substitution2: "Single Substitution lookup 26 subtable" uni0E48
Substitution2: "Single Substitution lookup 27 subtable" uni0E48.alt1
Substitution2: "Single Substitution lookup 25 subtable" uni0E48.alt3
Substitution2: "Single Substitution lookup 26 subtable" uni0E48
Substitution2: "Single Substitution lookup 27 subtable" uni0E48.alt1
EndChar
StartChar: uni0E49.alt2
Encoding: 63243 63243 353
Width: 0
VWidth: 1473
Flags: W
HStem: 676 37<-305.766 -175.722> 853 38<-311.572 -252.804>
VStem: -354 40<801.258 850.995> -250 42<761.126 835.332> -81 59<781.44 881>
Fore
-250 813 m 0
 -250 829 -256 853 -280 853 c 0
 -303 853 -314 841 -314 816 c 0
 -314 808 -310 800 -301 791 c 2
 -284 776 l 1
 -296 762 l 1
 -327 768 l 1
 -345 783 -354 800 -354 818 c 0
 -354 864 -325 891 -281 891 c 0
 -218 889 -208 833 -208 815 c 0
 -208 786 -220 721 -306 712 c 1
 -301 713 -297 713 -293 713 c 2
 -268 713 l 2
 -154 713 -102 780 -81 881 c 1
 -22 881 l 1
 -55 758 -117 676 -268 676 c 0
 -314 676 -350 680 -376 688 c 1
 -376 689 -374 715 -368 729 c 1
 -365 728 -362 728 -358 728 c 0
 -305 728 -250 758 -250 813 c 0
EndSplineSet
Substitution2: "Single Substitution lookup 25 subtable" uni0E49.alt3
Substitution2: "Single Substitution lookup 26 subtable" uni0E49
Substitution2: "Single Substitution lookup 27 subtable" uni0E49.alt1
Substitution2: "Single Substitution lookup 25 subtable" uni0E49.alt3
Substitution2: "Single Substitution lookup 26 subtable" uni0E49
Substitution2: "Single Substitution lookup 27 subtable" uni0E49.alt1
EndChar
StartChar: uni0E4A.alt2
Encoding: 63244 63244 354
Width: 0
VWidth: 1473
Flags: W
HStem: 675 38<-346.353 -287.666> 787 20G<-318 -274> 838 43<-335.42 -246.241 -201.109 -156.088>
VStem: -390 39<727.266 823.031> -286 40<714.216 762.796> -152 49<720 830.38> -59 56<796.028 913.469>
Fore
-351 760 m 0
 -351 740 -344 713 -314 713 c 0
 -295 713 -286 724 -286 747 c 0
 -286 758 -295 770 -301 776 c 2
 -318 793 l 1
 -306 807 l 1
 -274 800 l 1
 -248 774 -246 758 -246 748 c 0
 -246 715 -260 675 -315 675 c 0
 -375 675 -390 727 -390 770 c 0
 -390 852 -332 881 -293 881 c 0
 -249 881 -232 849 -227 834 c 1
 -213 870 -192 880 -168 880 c 0
 -141 880 -124 871 -116 852 c 0
 -107 833 -103 814 -103 793 c 0
 -103 766 -105 751 -115 726 c 1
 -83 748 -59 819 -59 878 c 0
 -59 891 -60 904 -63 916 c 1
 -18 916 l 2
 -6 916 -3 913 -3 899 c 0
 -3 804 -62 709 -115 687 c 1
 -153 687 l 2
 -165 687 -152 698 -152 769 c 0
 -152 815 -157 837 -178 837 c 0
 -187 837 -206 835 -228 785 c 1
 -249 832 -267 838 -290 838 c 0
 -314 838 -351 827 -351 760 c 0
EndSplineSet
Substitution2: "Single Substitution lookup 25 subtable" uni0E4A.alt3
Substitution2: "Single Substitution lookup 26 subtable" uni0E4A
Substitution2: "Single Substitution lookup 27 subtable" uni0E4A.alt1
Substitution2: "Single Substitution lookup 25 subtable" uni0E4A.alt3
Substitution2: "Single Substitution lookup 26 subtable" uni0E4A
Substitution2: "Single Substitution lookup 27 subtable" uni0E4A.alt1
EndChar
StartChar: uni0E4B.alt2
Encoding: 63245 63245 355
Width: 0
VWidth: 1473
Flags: W
HStem: 670 215<-127 -85 -140 -85 -74 -74> 760 44<-221 -140 -74 7>
VStem: -221 228<760 804> -140 66<804 885>
Fore
7 760 m 1x60
 -77 760 l 1x60
 -85 670 l 1
 -127 670 l 1xa0
 -136 760 l 1
 -221 760 l 1
 -221 804 l 1x60
 -140 804 l 1x50
 -140 885 l 1
 -74 885 l 1x90
 -74 804 l 1x50
 7 804 l 1
 7 760 l 1x60
EndSplineSet
Substitution2: "Single Substitution lookup 25 subtable" uni0E4B.alt3
Substitution2: "Single Substitution lookup 26 subtable" uni0E4B
Substitution2: "Single Substitution lookup 27 subtable" uni0E4B.alt1
Substitution2: "Single Substitution lookup 25 subtable" uni0E4B.alt3
Substitution2: "Single Substitution lookup 26 subtable" uni0E4B
Substitution2: "Single Substitution lookup 27 subtable" uni0E4B.alt1
EndChar
StartChar: uni0E4C.alt2
Encoding: 63246 63246 356
Width: 0
VWidth: 1473
Flags: W
HStem: 676 41<-207.4 -145.927>
VStem: -253 41<720.427 790.542> -134 41<720.818 800.406>
Fore
-134 754 m 0
 -134 783 -150 796 -159 803 c 1
 -144 815 l 1
 -112 810 l 1
 -101 799 -93 785 -93 754 c 0
 -93 710 -126 676 -172 676 c 0
 -240 679 -253 734 -253 757 c 0
 -253 865 -137 842 -88 926 c 0
 -81 939 -77 955 -77 974 c 1
 -31 974 l 2
 -12 974 -27 909 -80 868 c 0
 -93 857 -109 847 -126 838 c 2
 -180 810 l 2
 -208 795 -212 772 -212 760 c 0
 -212 734 -197 717 -174 717 c 0
 -158 717 -134 724 -134 754 c 0
EndSplineSet
Substitution2: "Single Substitution lookup 25 subtable" uni0E4C.alt3
Substitution2: "Single Substitution lookup 26 subtable" uni0E4C
Substitution2: "Single Substitution lookup 27 subtable" uni0E4C.alt1
Substitution2: "Single Substitution lookup 25 subtable" uni0E4C.alt3
Substitution2: "Single Substitution lookup 26 subtable" uni0E4C
Substitution2: "Single Substitution lookup 27 subtable" uni0E4C.alt1
EndChar
StartChar: uni0E0D.alt1
Encoding: 63247 63247 357
Width: 957
VWidth: 1473
Flags: W
HStem: -9 52<167.359 247.326 573.923 776.746> 150 52<209 247.634> 392 47<183.044 247.929> 547 51<203.582 417.584>
VStem: 66 58<442.496 495.91> 97 59<55.405 363.585> 256 53<64.4472 129.901> 479 54<82.4452 235.6 235.6 481.141> 818 59<85.7878 244.154 244.154 589>
Back
138 152 m 1
 138 175 l 1
 180 203 l 1
 208 203 231.667 192.667 251 172 c 128
 270.333 151.333 280 126.333 280 97 c 256
 280 67.6667 269.667 42.6667 249 22 c 128
 228.333 1.33333 203.333 -9 174 -9 c 0
 136.667 -9 109.667 1.83333 93 23.5 c 128
 76.3333 45.1667 68 76.6667 68 118 c 2
 68 262 l 2
 68 299.333 71.6667 326.667 79 344 c 128
 86.3333 361.333 98.3333 378.333 115 395 c 1
 111 397 105 400.833 97 406.5 c 128
 89 412.167 81.1667 418.833 73.5 426.5 c 128
 65.8333 434.167 59 441.833 53 449.5 c 128
 47 457.167 44 464 44 470 c 0
 44 478.667 49.6667 490.333 61 505 c 128
 72.3333 519.667 88.5 534 109.5 548 c 128
 130.5 562 155.5 573.833 184.5 583.5 c 128
 213.5 593.167 245.667 598 281 598 c 0
 314.333 598 345 594.5 373 587.5 c 128
 401 580.5 424.833 568.167 444.5 550.5 c 128
 464.167 532.833 479.667 509.167 491 479.5 c 128
 502.333 449.833 508 412.333 508 367 c 0
 508 349 508 349 508 336.5 c 0
 506.5 286.5 l 0
 505.5 261.5 504.833 241.167 504.5 225.5 c 128
 504.167 209.833 504 197 504 187 c 0
 504 163.667 505.167 142.833 507.5 124.5 c 128
 509.833 106.167 515 92 523 82 c 0
 535.667 68.6667 553.333 58.8333 576 52.5 c 128
 598.667 46.1667 625.333 43 656 43 c 256
 686 43 712.333 46.1667 735 52.5 c 128
 757.667 58.8333 775.333 68.6667 788 82 c 0
 796 92 801.5 104.167 804.5 118.5 c 128
 807.5 132.833 809 149.667 809 169 c 0
 809 185.667 808.5 208.833 807.5 238.5 c 128
 806.5 268.167 806 295.333 806 320 c 2
 806 580 l 1
 865 580 l 1
 865 194 l 2
 865 156.667 863 127.5 859 106.5 c 128
 855 85.5 846 67.3333 832 52 c 0
 808.667 25.3333 780 8.5 746 1.5 c 128
 712 -5.5 682 -9 656 -9 c 256
 629.333 -9 599 -5.5 565 1.5 c 128
 531 8.5 502.333 25.3333 479 52 c 0
 466.333 66.6667 458.167 86.1667 454.5 110.5 c 128
 450.833 134.833 449 162.667 449 194 c 2
 449 367 l 2
 449 405 445.333 435.667 438 459 c 128
 430.667 482.333 420 500.5 406 513.5 c 128
 392 526.5 374.667 535.333 354 540 c 128
 333.333 544.667 309 547 281 547 c 0
 257 547 234.167 544 212.5 538 c 128
 190.833 532 171.833 524.833 155.5 516.5 c 128
 139.167 508.167 126.167 500 116.5 492 c 128
 106.833 484 102 477.667 102 473 c 0
 102 469.667 103.667 465.167 107 459.5 c 128
 110.333 453.833 114.667 448 120 442 c 128
 125.333 436 130.5 430.833 135.5 426.5 c 128
 140.5 422.167 144.333 420 147 420 c 0
 155 420 163.5 423.167 172.5 429.5 c 128
 181.5 435.833 190.333 439 199 439 c 0
 201.667 439 205 436.5 209 431.5 c 128
 213 426.5 216.5 421.167 219.5 415.5 c 128
 222.5 409.833 224.167 404.5 224.5 399.5 c 128
 224.833 394.5 223.333 392 220 392 c 0
 204.667 392 191.5 390.5 180.5 387.5 c 128
 169.5 384.5 160 378.333 152 369 c 128
 144 359.667 137.833 346.333 133.5 329 c 128
 129.167 311.667 127 289.333 127 262 c 2
 127 118 l 2
 127 95.3333 131.167 77.1667 139.5 63.5 c 128
 147.833 49.8333 159.333 43 174 43 c 0
 190.667 43 203.667 48.3333 213 59 c 128
 222.333 69.6667 227 82.3333 227 97 c 256
 227 111.667 222.833 124.5 214.5 135.5 c 128
 206.167 146.5 194.667 152 180 152 c 2
 138 152 l 1
EndSplineSet
Fore
256 97 m 256xf780
 256 116 247 150 209 150 c 2
 168 150 l 1
 168 174 l 1
 209 202 l 1
 269 202 309 154 309 97 c 256
 309 41 267 -9 205 -9 c 0
 162 -9 97 10 97 133 c 2
 97 262 l 2xf780
 97 330 108 359 144 395 c 1
 126 404 66 449 66 470 c 0
 66 502 161 598 311 598 c 0
 440 598 538 552 538 367 c 2
 536 286 l 2
 534 227 533 207 533 187 c 0
 533 100.187 541.012 43 676 43 c 256
 811 43 821 105 821 169 c 0
 821 214 818 260 818 320 c 2
 818 589 l 1
 877 589 l 1
 877 194 l 2
 877 112.715 876.353 -9 676 -9 c 256
 480.915 -9 479 101.562 479 194 c 2
 479 367 l 2
 479 509 429 547 311 547 c 0
 209 547 124 489 124 473 c 0xfb80
 124 460 165 420 177 420 c 0
 197 420 205 439 228 439 c 0
 241 439 264 392 249 392 c 0
 193 392 156 375 156 262 c 2
 156 113 l 2
 156 57 185 43 205 43 c 0
 246 43 256 77 256 97 c 256xf780
EndSplineSet
EndChar
StartChar: uni0E4D.alt1
Encoding: 63249 63249 359
Width: 0
VWidth: 1473
Flags: W
HStem: 688 49<-377.211 -295.054> 837 48<-376.339 -295.661>
VStem: -435 49<746.311 827.441> -286 49<746.046 827.441>
Fore
-336 885 m 256
 -279 885 -237 840 -237 787 c 256
 -237 729 -282 688 -336 688 c 256
 -390 688 -435 729 -435 787 c 256
 -435 840 -393 885 -336 885 c 256
-336 737 m 256
 -306 737 -286 760 -286 787 c 256
 -286 813 -307 837 -336 837 c 256
 -365 837 -386 813 -386 787 c 256
 -386 757 -363 737 -336 737 c 256
EndSplineSet
EndChar
StartChar: uni0E47.alt1
Encoding: 63250 63250 360
Width: 0
VWidth: 1473
Flags: W
HStem: 676 36<-375.624 -261.032> 819 38<-306.783 -248.147> 888 46<-506.605 -401.256 -402.25 -398.945 -399.938 -263.779>
VStem: -579 52<730.653 866.383> -349 40<767.258 816.995> -245 45<728.06 800.268>
Fore
-429 796 m 1
 -381 727 -356 712 -311 712 c 0
 -272 712 -245 739 -245 779 c 0
 -245 795 -251 819 -275 819 c 0
 -298 819 -309 807 -309 782 c 0
 -309 774 -305 766 -296 757 c 2
 -280 742 l 1
 -292 728 l 1
 -323 734 l 1
 -340 749 -349 766 -349 784 c 0
 -349 830 -320 857 -277 857 c 0
 -214 855 -200 801 -200 781 c 0
 -200 713 -252 676 -312 676 c 0
 -358 676 -392 689 -429 738 c 1
 -476 681 l 1
 -514 681 l 1
 -544 688 -579 730 -579 798 c 0
 -579 907 -505 934 -457 934 c 0
 -406 934 -396 927 -355 927 c 0
 -287 927 -242 943 -242 1011 c 1
 -214 1014 -172 1007 -177 986 c 0
 -190 930 -217 881 -342 881 c 0
 -394 881 -404 888 -445 888 c 0
 -481 888 -527 876 -527 801 c 0
 -527 767 -518 742 -496 720 c 1
 -429 796 l 1
EndSplineSet
EndChar
StartChar: uni0E38.alt1
Encoding: 63256 63256 366
Width: 0
VWidth: 1473
Flags: W
HStem: -305 38<-191.022 -130.298>
VStem: -233 39<-375.374 -315.591> -149 56<-516 -403.148 -516 -267 -516 -516> -127 45<-395.223 -317.006>
Fore
-82 -345 m 0xd0
 -82 -386 -93 -382 -93 -427 c 2
 -93 -516 l 1
 -149 -516 l 1
 -149 -426 l 2xe0
 -149 -416 -148 -408 -145 -402 c 2
 -138 -383 l 2
 -129 -362 -127 -361 -127 -346 c 0
 -127 -330 -134 -305 -161 -305 c 256
 -187 -305 -194 -327 -194 -342 c 0
 -194 -362 -181 -372 -171 -376 c 2
 -155 -383 l 1
 -162 -399 l 1
 -190 -401 l 1
 -223 -392 -233 -364 -233 -342 c 0
 -233 -298 -201 -267 -156 -267 c 0
 -110 -268 -82 -300 -82 -345 c 0xd0
EndSplineSet
EndChar
StartChar: uni0E39.alt1
Encoding: 63257 63257 367
Width: 0
VWidth: 1473
Flags: W
HStem: -499 31<-207.568 -145.479> -305 38<-298.735 -235.979>
VStem: -339 38<-357.944 -307.124> -273 58<-465.507 -387.589> -233 41<-391.471 -316.757> -138 56<-465.276 -275>
Fore
-273 -435 m 2xf4
 -273 -392 -233 -387 -233 -343 c 0
 -233 -331 -239 -305 -265 -305 c 0
 -289 -305 -301 -317 -301 -342 c 0
 -301 -351 -296 -359 -287 -368 c 2
 -271 -383 l 1
 -283 -398 l 1
 -314 -392 l 1
 -331 -377 -339 -360 -339 -340 c 0
 -339 -294 -309 -267 -265 -267 c 0
 -205 -269 -192 -317 -192 -342 c 0xec
 -192 -386 -215 -378 -215 -448 c 0
 -215 -466 -191 -468 -177 -468 c 256
 -163 -468 -138 -466 -138 -448 c 2
 -138 -275 l 1
 -82 -275 l 1
 -82 -454 l 2
 -82 -498 -135 -499 -178 -499 c 0
 -223 -499 -273 -499 -273 -454 c 2
 -273 -435 l 2xf4
EndSplineSet
EndChar
StartChar: uni0E3A.alt1
Encoding: 63258 63258 368
Width: 0
VWidth: 1473
Flags: W
HStem: -383 118<-159.776 -64.2244>
VStem: -174 124<-368.519 -279.481>
Fore
-112 -265 m 256
 -77 -265 -50 -291 -50 -324 c 256
 -50 -359 -81 -383 -112 -383 c 256
 -147 -383 -174 -357 -174 -324 c 256
 -174 -289 -143 -265 -112 -265 c 256
EndSplineSet
EndChar
StartChar: uni0E0E.alt1
Encoding: 63259 63259 369
Width: 673
VWidth: 1473
Flags: W
HStem: -209 45<231.091 336.854> -82 44<235.774 340.64> -30 20G<412 431> -9 52<95.7139 181.79> 147 49<96.166 130> 392 47<233.75 295.676> 547 51<250.582 464.584>
VStem: 37 51<51.1814 129.822> 113 58<442.496 495.91> 159 59<188.488 376.958> 183 45<-160.562 -91.7307> 192 57<51.9921 225.358> 412 48<-56.2003 -19.803> 526 59<-149 5.92358 5.92358 481.141>
Fore
140 -9 m 0xff1c
 79 -9 37 37 37 94 c 256
 37 154 74 196 130 196 c 1
 164 171 l 1
 164 147 l 1
 130 147 l 2
 96 147 88 117 88 94 c 256
 88 74 98 43 140 43 c 0
 161 43 192 52 192 106 c 0xff1c
 192 194 159 223 159 301 c 0xff4c
 159 343 167 370 192 395 c 1xff1c
 173 404 113 449 113 470 c 0
 113 502 208 598 358 598 c 0
 487 598 585 552 585 367 c 2
 585 -206 l 1
 524 -206 l 1
 511 -184 475 -145 423 -116 c 1
 381 -181 332 -209 271 -209 c 0
 201 -209 183 -156 183 -125 c 0
 183 -73 231 -38 296 -38 c 0
 333 -38 367 -44 398 -57 c 1
 405 -40 412 -19 412 -10 c 1
 450 -23 460 -28 460 -38 c 0
 460 -46 462 -34 445 -80 c 1
 477 -99 506 -124 527 -149 c 1
 527 -106 l 2
 527 -60 526 -14 526 122 c 2
 526 367 l 2
 526 509 476 547 358 547 c 0
 256 547 171 489 171 473 c 0xffac
 171 460 213 420 224 420 c 0
 244 420 252 439 275 439 c 0
 289 439 312 392 296 392 c 0
 234 392 218 366 218 299 c 0xff4c
 218 237 249 148 249 106 c 0
 249 14 191 -9 140 -9 c 0xff1c
270 -164 m 0
 314 -164 349 -143 379 -96 c 1
 354 -87 329 -82 302 -82 c 0
 253 -82 228 -97 228 -128 c 0xff2c
 228 -152 242 -164 270 -164 c 0
EndSplineSet
EndChar
